<svg width="19" height="26" viewBox="0 0 19 26" fill="none" xmlns="http://www.w3.org/2000/svg">
<path d="M9.75291 0.500002C9.92542 0.499709 10.0963 0.531794 10.2558 0.594423C10.4152 0.657052 10.5602 0.748998 10.6823 0.865002V0.870002C12.3734 2.4569 13.9079 4.18834 15.2664 6.0425C17.12 8.61 18.9421 11.9925 18.9421 15.5C18.9421 18.8425 17.9969 21.38 16.2667 23.0875C14.5339 24.795 12.1894 25.5 9.75291 25.5C7.31646 25.5 4.96928 24.795 3.23909 23.0875C1.50889 21.38 0.563721 18.8425 0.563721 15.5C0.563721 11.9925 2.38581 8.61 4.2394 6.0425C5.59844 4.18867 7.13192 2.45652 8.82086 0.867502C8.94278 0.751046 9.09026 0.65864 9.24975 0.595578C9.40923 0.532516 9.58022 0.500037 9.75291 0.500002ZM9.75291 3.54C8.8655 4.435 7.59739 5.8075 6.40542 7.4575C4.64635 9.89 3.1892 12.7575 3.1892 15.5C3.1892 18.4075 4.00573 20.245 5.12681 21.35C6.24789 22.455 7.83893 23 9.75291 23C11.6669 23 13.2579 22.455 14.379 21.35C15.5001 20.245 16.3166 18.4075 16.3166 15.5C16.3166 12.7575 14.8568 9.89 13.1004 7.4575C12.0901 6.07305 10.971 4.76347 9.75291 3.54Z" />
</svg>
