<svg width="11" height="20" viewBox="0 0 11 20" fill="none" xmlns="http://www.w3.org/2000/svg">
<path d="M0.371226 0.330654C0.601694 0.111363 0.909807 -0.00743991 1.22784 0.000360852C1.54587 0.00816161 1.84779 0.141927 2.06723 0.372254L10.0704 8.77226C10.2832 8.99543 10.4019 9.29193 10.4019 9.60025C10.4019 9.90858 10.2832 10.2051 10.0704 10.4283L2.06882 18.8283C1.84732 19.0494 1.54819 19.1752 1.23522 19.1789C0.922256 19.1826 0.620226 19.0639 0.39355 18.8481C0.166874 18.6323 0.0334906 18.3364 0.0218473 18.0236C0.0102041 17.7109 0.121223 17.4059 0.331225 17.1739L7.54403 9.59946L0.331226 2.02505C0.111729 1.79479 -0.0073567 1.4868 0.000143977 1.16877C0.00764466 0.850746 0.141118 0.550309 0.371226 0.330654Z"/>
</svg>
