<svg width="23" height="26" viewBox="0 0 23 26" fill="none" xmlns="http://www.w3.org/2000/svg">
<path d="M7.90625 25.2654V22.8972C5.58708 22.1249 3.68958 20.726 2.21375 18.7005C0.737917 16.6749 0 14.3517 0 11.7309C0 10.1032 0.299958 8.57868 0.899875 7.15729C1.49979 5.7359 2.3206 4.49341 3.36231 3.42981C4.40498 2.36719 5.62254 1.5299 7.015 0.91794C8.40746 0.30598 9.89048 0 11.4641 0C13.053 0 14.5456 0.30598 15.9419 0.91794C17.3391 1.5299 18.56 2.36719 19.6046 3.42981C20.6492 4.49341 21.4763 5.7359 22.0858 7.15729C22.6953 8.57868 23 10.1032 23 11.7309C23 14.3351 22.2606 16.6466 20.7819 18.6653C19.3023 20.684 17.4062 22.0824 15.0938 22.8605V25.2654C15.0938 25.4736 15.0247 25.6481 14.8867 25.7888C14.7487 25.9296 14.5777 26 14.3736 26C14.1694 26 13.9989 25.9296 13.8618 25.7888C13.7248 25.6481 13.6562 25.4741 13.6562 25.2668V23.2476C13.2873 23.3337 12.9231 23.3909 12.5637 23.4192C12.2044 23.4476 11.8378 23.4617 11.4641 23.4617C11.097 23.4617 10.7396 23.4461 10.3917 23.4148C10.0438 23.3835 9.6945 23.3278 9.34375 23.2476V25.2668C9.34375 25.4741 9.27475 25.6481 9.13675 25.7888C8.99875 25.9296 8.82769 26 8.62356 26C8.41944 26 8.24885 25.9296 8.11181 25.7888C7.97477 25.6481 7.90625 25.4726 7.90625 25.2654ZM11.5 22.0687C14.2792 22.0687 16.651 21.0667 18.6156 19.0627C20.5802 17.0586 21.5625 14.6391 21.5625 11.8042C21.5625 8.96923 20.5802 6.54973 18.6156 4.54571C16.651 2.54169 14.2792 1.53968 11.5 1.53968C8.72083 1.53968 6.34896 2.54169 4.38438 4.54571C2.41979 6.54973 1.4375 8.96923 1.4375 11.8042C1.4375 14.6391 2.41979 17.0586 4.38438 19.0627C6.34896 21.0667 8.72083 22.0687 11.5 22.0687ZM7.1875 8.13829H15.8125C16.0166 8.13829 16.1872 8.0679 16.3242 7.92713C16.4622 7.78636 16.5312 7.61187 16.5312 7.40364C16.5312 7.19542 16.4622 7.02141 16.3242 6.88162C16.1872 6.74183 16.0166 6.67193 15.8125 6.67193H7.1875C6.98337 6.67193 6.81279 6.74232 6.67575 6.88309C6.53775 7.02386 6.46875 7.19787 6.46875 7.40511C6.46875 7.61236 6.53775 7.78636 6.67575 7.92713C6.81279 8.0679 6.98337 8.13829 7.1875 8.13829ZM11.224 16.4291L9.84112 17.8383C9.67725 18.0064 9.6001 18.1946 9.60969 18.4028C9.61927 18.611 9.70552 18.7992 9.86844 18.9673C10.0314 19.1335 10.2201 19.2166 10.4348 19.2166C10.6495 19.2166 10.8388 19.1335 11.0026 18.9673L12.7679 17.1667C12.995 16.934 13.1086 16.6603 13.1086 16.3455C13.1086 16.0307 12.9926 15.7541 12.7607 15.5155L11.776 14.5111L13.1589 13.1019C13.3228 12.9347 13.4047 12.7422 13.4047 12.5242C13.4047 12.3052 13.3232 12.1121 13.1603 11.945C12.9955 11.7778 12.8062 11.6942 12.5925 11.6942C12.3788 11.6942 12.1895 11.7778 12.0247 11.945L10.2379 13.772C10.0069 14.0086 9.89144 14.2838 9.89144 14.5976C9.89144 14.9114 10.0074 15.1871 10.2393 15.4246L11.224 16.4291Z" />
</svg>
