<svg width="14" height="14" viewBox="0 0 14 14" fill="none" xmlns="http://www.w3.org/2000/svg">
<path d="M10.6914 9L12.5376 8.5L12.9991 10.5"  stroke-linecap="round" stroke-linejoin="round"/>
<path d="M12.5385 8.5C12.1285 9.75861 11.3837 10.8576 10.3981 11.6584C9.4125 12.4592 8.23012 12.926 7 13C5.86287 13.0002 4.75325 12.6213 3.82183 11.9146C2.89042 11.2079 2.18236 10.2078 1.79385 9.05M3.30769 5L1.46154 5.5L1 3.5" stroke-linecap="round" stroke-linejoin="round"/>
<path d="M1.46094 5.5C2.23632 3.2 4.61786 1 6.9994 1C8.14207 1.00348 9.25577 1.38976 10.1878 2.10588C11.1199 2.822 11.8247 3.8329 12.2056 5"  stroke-linecap="round" stroke-linejoin="round"/>
</svg>
