<svg width="23" height="18" viewBox="0 0 23 18" fill="none" xmlns="http://www.w3.org/2000/svg">
<path d="M5.11239 14.3409C5.3918 14.3409 5.6252 14.2457 5.81261 14.0554C6.00002 13.866 6.09372 13.6307 6.09372 13.3496C6.09372 13.0693 5.99959 12.8349 5.81133 12.6463C5.62222 12.4577 5.38796 12.3634 5.10856 12.3634C4.82915 12.3634 4.59617 12.4577 4.40961 12.6463C4.2222 12.8366 4.1285 13.0723 4.1285 13.3534C4.1285 13.6337 4.22263 13.8686 4.41089 14.058C4.6 14.2466 4.83298 14.3409 5.11239 14.3409ZM5.11239 10.5827C5.29298 10.5827 5.44461 10.521 5.56728 10.3976C5.68909 10.2741 5.75 10.1216 5.75 9.93986V4.302C5.75 4.12029 5.68867 3.96771 5.566 3.84429C5.44333 3.72086 5.29128 3.65914 5.10983 3.65914C4.92839 3.65914 4.77676 3.72086 4.65494 3.84429C4.53313 3.96771 4.47222 4.12029 4.47222 4.302V9.93986C4.47222 10.1216 4.53356 10.2741 4.65622 10.3976C4.77889 10.521 4.93094 10.5827 5.11239 10.5827ZM10.2222 12.2143H17.8889C18.0703 12.2143 18.222 12.1526 18.3438 12.0291C18.4664 11.9057 18.5278 11.7527 18.5278 11.5701C18.5278 11.3876 18.4664 11.235 18.3438 11.1124C18.222 10.9899 18.0703 10.9286 17.8889 10.9286H10.2222C10.0408 10.9286 9.88915 10.9903 9.76733 11.1137C9.64467 11.2371 9.58333 11.3901 9.58333 11.5727C9.58333 11.7553 9.64467 11.9079 9.76733 12.0304C9.89 12.153 10.0416 12.2143 10.2222 12.2143ZM10.2222 7.07143H17.8889C18.0703 7.07143 18.222 7.00971 18.3438 6.88629C18.4664 6.76286 18.5278 6.60986 18.5278 6.42729C18.5278 6.24471 18.4664 6.09214 18.3438 5.96957C18.222 5.847 18.0703 5.78571 17.8889 5.78571H10.2222C10.0408 5.78571 9.88915 5.84743 9.76733 5.97086C9.64467 6.09429 9.58333 6.24729 9.58333 6.42986C9.58333 6.61243 9.64467 6.765 9.76733 6.88757C9.89 7.01014 10.0416 7.07143 10.2222 7.07143ZM2.06361 18C1.47583 18 0.985167 17.802 0.591611 17.406C0.197204 17.0091 0 16.515 0 15.9236V2.07643C0 1.485 0.197204 0.991285 0.591611 0.595285C0.985167 0.198428 1.47583 0 2.06361 0H20.9364C21.5242 0 22.0148 0.198428 22.4084 0.595285C22.8028 0.991285 23 1.485 23 2.07643V15.9236C23 16.515 22.8032 17.0087 22.4097 17.4047C22.0153 17.8016 21.5242 18 20.9364 18H2.06361ZM2.06361 16.7143H20.9364C21.1323 16.7143 21.3125 16.632 21.4769 16.4674C21.6404 16.302 21.7222 16.1207 21.7222 15.9236V2.07643C21.7222 1.87929 21.6404 1.698 21.4769 1.53257C21.3125 1.368 21.1323 1.28571 20.9364 1.28571H2.06361C1.86768 1.28571 1.68752 1.368 1.52311 1.53257C1.35956 1.698 1.27778 1.87929 1.27778 2.07643V15.9236C1.27778 16.1207 1.35956 16.302 1.52311 16.4674C1.68752 16.632 1.86768 16.7143 2.06361 16.7143Z" />
</svg>
