<svg width="22" height="14" viewBox="0 0 22 14" fill="none" xmlns="http://www.w3.org/2000/svg">
<path d="M1.66667 14C1.33612 14 1.05884 13.888 0.834837 13.664C0.610837 13.44 0.499226 13.1631 0.500004 12.8333C0.500004 12.5028 0.612004 12.2255 0.836004 12.0015C1.06 11.7775 1.33689 11.6659 1.66667 11.6667H20.3333C20.6639 11.6667 20.9412 11.7787 21.1652 12.0027C21.3892 12.2267 21.5008 12.5036 21.5 12.8333C21.5 13.1639 21.388 13.4412 21.164 13.6652C20.94 13.8892 20.6631 14.0008 20.3333 14H1.66667ZM1.66667 8.16667C1.33612 8.16667 1.05884 8.05467 0.834837 7.83067C0.610837 7.60667 0.499226 7.32978 0.500004 7C0.500004 6.66945 0.612004 6.39217 0.836004 6.16817C1.06 5.94417 1.33689 5.83256 1.66667 5.83334H20.3333C20.6639 5.83334 20.9412 5.94534 21.1652 6.16934C21.3892 6.39334 21.5008 6.67023 21.5 7C21.5 7.33056 21.388 7.60784 21.164 7.83184C20.94 8.05584 20.6631 8.16745 20.3333 8.16667H1.66667ZM1.66667 2.33334C1.33612 2.33334 1.05884 2.22134 0.834837 1.99734C0.610837 1.77334 0.499226 1.49645 0.500004 1.16667C0.500004 0.836115 0.612004 0.558838 0.836004 0.334838C1.06 0.110838 1.33689 -0.000773741 1.66667 4.0369e-06H20.3333C20.6639 4.0369e-06 20.9412 0.112004 21.1652 0.336004C21.3892 0.560004 21.5008 0.836893 21.5 1.16667C21.5 1.49723 21.388 1.7745 21.164 1.9985C20.94 2.2225 20.6631 2.33412 20.3333 2.33334H1.66667Z" />
</svg>
