<svg width="6" height="10" viewBox="0 0 6 10" fill="none" xmlns="http://www.w3.org/2000/svg">
<path d="M0.524609 8.97461C0.387109 8.83711 0.318359 8.66211 0.318359 8.44961C0.318359 8.23711 0.387109 8.06211 0.524609 7.92461L3.44961 4.99961L0.524609 2.07461C0.387109 1.93711 0.318359 1.76211 0.318359 1.54961C0.318359 1.33711 0.387109 1.16211 0.524609 1.02461C0.662109 0.887109 0.837109 0.818359 1.04961 0.818359C1.26211 0.818359 1.43711 0.887109 1.57461 1.02461L5.02461 4.47461C5.09961 4.54961 5.15286 4.63086 5.18436 4.71836C5.21586 4.80586 5.23136 4.89961 5.23086 4.99961C5.23086 5.09961 5.21511 5.19336 5.18361 5.28086C5.15211 5.36836 5.09911 5.44961 5.02461 5.52461L1.57461 8.97461C1.43711 9.11211 1.26211 9.18086 1.04961 9.18086C0.837109 9.18086 0.662109 9.11211 0.524609 8.97461Z" />
</svg>
