<svg width="14" height="11" viewBox="0 0 14 11" fill="none" xmlns="http://www.w3.org/2000/svg">
<path d="M4.46875 7.71875L11.8437 0.343749C12.0729 0.114583 12.3646 0 12.7188 0C13.0729 0 13.3646 0.114583 13.5937 0.343749C13.8229 0.572916 13.9375 0.864583 13.9375 1.21875C13.9375 1.57292 13.8229 1.86458 13.5937 2.09375L5.34375 10.3437C5.09375 10.5937 4.80208 10.7187 4.46875 10.7187C4.13542 10.7187 3.84375 10.5937 3.59375 10.3437L0.34375 7.09375C0.114583 6.86458 0 6.57292 0 6.21875C0 5.86458 0.114583 5.57292 0.34375 5.34375C0.572916 5.11458 0.864583 5 1.21875 5C1.57292 5 1.86458 5.11458 2.09375 5.34375L4.46875 7.71875Z" />
</svg>
