<svg width="19" height="19" viewBox="0 0 19 19" fill="none" xmlns="http://www.w3.org/2000/svg">
<path d="M0 14.5384V18.3512H3.75L14.81 7.10621L11.06 3.2935L0 14.5384ZM17.71 4.15771C17.8027 4.06365 17.8762 3.95193 17.9264 3.82893C17.9766 3.70593 18.0024 3.57408 18.0024 3.44092C18.0024 3.30776 17.9766 3.17591 17.9264 3.05292C17.8762 2.92992 17.8027 2.81819 17.71 2.72413L15.37 0.345003C15.2775 0.250749 15.1676 0.175972 15.0466 0.124951C14.9257 0.0739304 14.796 0.0476685 14.665 0.0476685C14.534 0.0476685 14.4043 0.0739304 14.2834 0.124951C14.1624 0.175972 14.0525 0.250749 13.96 0.345003L12.13 2.2056L15.88 6.01831L17.71 4.15771Z" />
</svg>
