<svg width="20" height="14" viewBox="0 0 20 14" fill="none" xmlns="http://www.w3.org/2000/svg">
<path d="M19.243 6.4457C17.2063 2.15527 14.1276 -0.00390625 10.0004 -0.00390625C5.87113 -0.00390625 2.79457 2.15527 0.757851 6.44785C0.676158 6.62084 0.633789 6.80977 0.633789 7.00107C0.633789 7.19238 0.676158 7.38131 0.757851 7.5543C2.79457 11.8447 5.87328 14.0039 10.0004 14.0039C14.1297 14.0039 17.2063 11.8447 19.243 7.55215C19.4084 7.2041 19.4084 6.8002 19.243 6.4457ZM10.0004 12.457C6.535 12.457 3.99769 10.6996 2.20805 7C3.99769 3.30039 6.535 1.54297 10.0004 1.54297C13.4659 1.54297 16.0032 3.30039 17.7928 7C16.0053 10.6996 13.468 12.457 10.0004 12.457ZM9.91449 3.21875C7.82621 3.21875 6.13324 4.91172 6.13324 7C6.13324 9.08828 7.82621 10.7812 9.91449 10.7812C12.0028 10.7812 13.6957 9.08828 13.6957 7C13.6957 4.91172 12.0028 3.21875 9.91449 3.21875ZM9.91449 9.40625C8.58461 9.40625 7.50824 8.32988 7.50824 7C7.50824 5.67012 8.58461 4.59375 9.91449 4.59375C11.2444 4.59375 12.3207 5.67012 12.3207 7C12.3207 8.32988 11.2444 9.40625 9.91449 9.40625Z" />
</svg>
