<svg width="16" height="12" viewBox="0 0 16 12" fill="none" xmlns="http://www.w3.org/2000/svg">
<path d="M15.5617 5.54648C13.8953 2.03613 11.3763 0.269531 7.99955 0.269531C4.62104 0.269531 2.10385 2.03613 0.437443 5.54824C0.370603 5.68978 0.335938 5.84436 0.335938 6.00088C0.335938 6.1574 0.370603 6.31198 0.437443 6.45352C2.10385 9.96387 4.62279 11.7305 7.99955 11.7305C11.3781 11.7305 13.8953 9.96387 15.5617 6.45176C15.697 6.16699 15.697 5.83652 15.5617 5.54648ZM7.99955 10.4648C5.1642 10.4648 3.08822 9.02695 1.62397 6C3.08822 2.97305 5.1642 1.53516 7.99955 1.53516C10.8349 1.53516 12.9109 2.97305 14.3751 6C12.9126 9.02695 10.8367 10.4648 7.99955 10.4648ZM7.92924 2.90625C6.22065 2.90625 4.83549 4.29141 4.83549 6C4.83549 7.70859 6.22065 9.09375 7.92924 9.09375C9.63783 9.09375 11.023 7.70859 11.023 6C11.023 4.29141 9.63783 2.90625 7.92924 2.90625ZM7.92924 7.96875C6.84115 7.96875 5.96049 7.08809 5.96049 6C5.96049 4.91191 6.84115 4.03125 7.92924 4.03125C9.01733 4.03125 9.89799 4.91191 9.89799 6C9.89799 7.08809 9.01733 7.96875 7.92924 7.96875Z" />
</svg>
