<svg width="15" height="19" viewBox="0 0 15 19" fill="none" xmlns="http://www.w3.org/2000/svg">
<path fill-rule="evenodd" clip-rule="evenodd" d="M1.51685 1.56881V4.27064C1.51685 4.47868 1.43695 4.6782 1.29472 4.8253C1.15248 4.9724 0.959574 5.05505 0.758427 5.05505C0.55728 5.05505 0.364371 4.9724 0.222138 4.8253C0.0799057 4.6782 0 4.47868 0 4.27064V0.784404C0 0.681394 0.0196175 0.579394 0.057732 0.484225C0.0958465 0.389057 0.151712 0.302585 0.222138 0.229747C0.292565 0.156908 0.376173 0.0991293 0.46819 0.0597094C0.560206 0.0202894 0.658829 0 0.758427 0H14.2416C14.4427 0 14.6356 0.0826425 14.7779 0.229747C14.9201 0.376851 15 0.576367 15 0.784404V4.27064C15 4.47868 14.9201 4.6782 14.7779 4.8253C14.6356 4.9724 14.4427 5.05505 14.2416 5.05505C14.0404 5.05505 13.8475 4.9724 13.7053 4.8253C13.5631 4.6782 13.4831 4.47868 13.4831 4.27064V1.56881H8.42697V17.4312H10.4562C10.6573 17.4312 10.8502 17.5138 10.9925 17.6609C11.1347 17.808 11.2146 18.0076 11.2146 18.2156C11.2146 18.4236 11.1347 18.6232 10.9925 18.7703C10.8502 18.9174 10.6573 19 10.4562 19H4.5573C4.35616 19 4.16325 18.9174 4.02101 18.7703C3.87878 18.6232 3.79888 18.4236 3.79888 18.2156C3.79888 18.0076 3.87878 17.808 4.02101 17.6609C4.16325 17.5138 4.35616 17.4312 4.5573 17.4312H6.57303V1.56881H1.51685Z" />
</svg>
