<svg width="7" height="12" viewBox="0 0 7 12" fill="none" xmlns="http://www.w3.org/2000/svg">
<path d="M0.290068 9.87999L4.17007 5.99999L0.290068 2.11999C0.197486 2.02741 0.124046 1.9175 0.0739412 1.79653C0.0238363 1.67557 -0.00195312 1.54592 -0.00195312 1.41499C-0.00195313 1.28406 0.0238363 1.15441 0.0739412 1.03345C0.124046 0.912482 0.197486 0.802571 0.290068 0.70999C0.38265 0.617408 0.49256 0.543968 0.613524 0.493863C0.734489 0.443758 0.864137 0.417969 0.995068 0.417969C1.126 0.417969 1.25565 0.443758 1.37661 0.493863C1.49757 0.543968 1.60749 0.617408 1.70007 0.70999L6.29007 5.29999C6.68007 5.68999 6.68007 6.31999 6.29007 6.70999L1.70007 11.3C1.60755 11.3927 1.49767 11.4662 1.37669 11.5164C1.25572 11.5666 1.12604 11.5924 0.995068 11.5924C0.864099 11.5924 0.734417 11.5666 0.613443 11.5164C0.49247 11.4662 0.382581 11.3927 0.290068 11.3C-0.0899323 10.91 -0.0999323 10.27 0.290068 9.87999Z"/>
</svg>
