<svg width="7" height="12" viewBox="0 0 7 12" fill="none" xmlns="http://www.w3.org/2000/svg">
<path d="M6.70818 9.87816L2.83084 5.99971L6.70818 2.12126C6.8007 2.02872 6.87409 1.91885 6.92416 1.79794C6.97423 1.67702 7 1.54742 7 1.41654C7 1.28567 6.97423 1.15607 6.92416 1.03515C6.87409 0.914238 6.8007 0.804371 6.70818 0.711826C6.61566 0.619281 6.50583 0.54587 6.38495 0.495785C6.26406 0.4457 6.1345 0.419922 6.00366 0.419922C5.87282 0.419922 5.74326 0.4457 5.62238 0.495785C5.5015 0.54587 5.39167 0.619281 5.29915 0.711826L0.712299 5.29999C0.322567 5.68984 0.322567 6.31959 0.712299 6.70943L5.29915 11.2976C5.3916 11.3903 5.50141 11.4638 5.6223 11.5139C5.74319 11.5641 5.87279 11.5899 6.00366 11.5899C6.13454 11.5899 6.26414 11.5641 6.38503 11.5139C6.50592 11.4638 6.61573 11.3903 6.70818 11.2976C7.08792 10.9078 7.09791 10.268 6.70818 9.87816Z" />
</svg>
