<svg width="455" height="635" viewBox="0 0 455 635" fill="none" xmlns="http://www.w3.org/2000/svg">
<path d="M310.53 181.526C319.295 177.144 324.139 169.071 321.349 163.493C318.56 157.916 309.195 156.948 300.428 161.332C296.902 163.035 293.835 165.558 291.484 168.689L254.583 187.722L263.883 204.849L299.274 184.267C303.191 184.266 307.051 183.326 310.53 181.526Z" fill="#FFB6B6"/>
<path d="M101.455 624.273L119.02 624.271L127.376 556.518L101.451 556.52L101.455 624.273Z" fill="#FFB6B6"/>
<path d="M161.636 623.874C162.183 624.796 162.472 627.769 162.472 628.84C162.472 632.132 159.803 634.801 156.51 634.801H102.112C99.866 634.801 98.045 632.981 98.045 630.734V628.47C98.045 628.47 95.354 621.663 100.894 613.273C100.894 613.273 107.78 619.842 118.069 609.553L121.104 604.056L143.067 620.119L155.241 621.618C157.905 621.946 160.266 621.567 161.636 623.874Z" fill="#2F2E41"/>
<path d="M129.038 549.774L144.638 557.849L183.208 501.523L160.185 489.606L129.038 549.774Z" fill="#FFB6B6"/>
<path d="M182.664 577.09C182.727 578.159 181.616 580.932 181.124 581.883C179.61 584.807 176.012 585.95 173.088 584.436L124.781 559.426C122.786 558.394 122.006 555.939 123.039 553.945L124.08 551.933C124.08 551.933 124.82 544.651 133.597 539.748C133.597 539.748 136.692 548.748 150.56 544.341L155.781 540.855L167.901 565.218L178.023 572.146C180.237 573.661 182.509 574.411 182.664 577.09Z" fill="#2F2E41"/>
<path d="M83.6167 86.4967H129.682L128.677 101.517L158.717 197.269L164.349 261.104L108.024 270.491L81.7393 152.209L87.3717 97.7617L83.6167 86.4967Z" />
<path d="M86.4331 98.7003L37.6182 123.108L67.6581 224.493L62.0256 327.755C62.0256 327.755 139.003 352.162 135.248 282.695C131.493 213.228 131.493 201.963 131.493 201.963L86.4331 98.7003Z" fill="#2F2E41"/>
<path d="M164.349 111.348C164.349 111.348 176.553 102.455 182.185 115.598C187.818 128.74 224.429 195.391 224.429 195.391L281.693 170.045L291.08 190.698C291.08 190.698 244.143 235.758 215.98 230.125C187.818 224.493 165.288 175.678 165.288 175.678L164.349 111.348Z" fill="#2F2E41"/>
<path d="M67.658 308.98C67.658 308.98 65.7805 339.02 69.5355 363.427C73.2905 387.835 98.6367 595.298 98.6367 595.298L130.554 593.421L133.37 350.285L178.43 421.63L139.003 528.647L166.227 540.851L223.49 423.507L184.063 290.205L172.798 256.41L88.3104 265.798L67.658 308.98Z" fill="#2F2E41"/>
<path d="M193.45 316.49C193.45 316.49 142.758 331.51 131.493 201.963L128.945 97.5084L176.553 109.965L170.92 203.84L193.45 316.49Z" fill="#2F2E41"/>
<path d="M107.085 74.293C125.75 74.293 140.88 59.1625 140.88 40.4981C140.88 21.8336 125.75 6.70312 107.085 6.70312C88.4209 6.70312 73.2904 21.8336 73.2904 40.4981C73.2904 59.1625 88.4209 74.293 107.085 74.293Z" fill="#FFB6B6"/>
<path d="M85.4942 73.3541C85.4942 73.3541 70.4742 56.4567 68.5967 48.9467C66.7192 41.4367 66.7192 20.7842 68.5967 18.9067C70.4742 17.0292 91.1267 -1.74571 98.6367 0.131775C106.147 2.00926 121.033 11.3968 134.309 11.3968C138.064 11.3968 139.942 30.1717 139.942 30.1717L124.922 32.0492C124.922 32.0492 106.147 22.6617 108.024 32.0492C109.902 41.4367 94.8817 41.4367 94.8817 41.4367L96.7592 48.9467L91.1267 50.8242L87.3717 43.3142C87.3717 43.3142 89.2492 60.2117 94.8817 67.7217C100.514 75.2317 85.4942 73.3541 85.4942 73.3541Z" fill="#2F2E41"/>
<path d="M70.5305 343.68C75.683 352.015 84.16 356.112 89.4636 352.832C94.7673 349.552 94.8887 340.138 89.7332 331.802C87.7195 328.443 84.9307 325.616 81.6003 323.556L59.3229 288.518L43.1033 299.322L66.7869 332.717C67.1412 336.618 68.4249 340.377 70.5305 343.68Z" fill="#FFB6B6"/>
<path d="M45.1281 123.108H35.7406C35.7406 123.108 -1.80936 207.595 0.0681298 224.493C0.0681298 224.493 0.0681302 239.513 9.45562 250.778C18.8431 262.043 58.2705 325.878 58.2705 325.878L75.168 312.735L41.3731 233.88L62.0255 151.27L45.1281 123.108Z" fill="#2F2E41"/>
<path d="M250.058 397.085C245.623 397.085 241.397 395.273 238.357 392.041C218.781 371.231 208 344.038 208 315.472C208 291.667 215.385 268.94 229.357 249.747C232.118 245.955 236.402 243.576 241.111 243.219C245.895 242.85 250.574 244.603 253.947 248.01L310.715 305.351C316.396 311.09 316.977 320.252 312.066 326.662L263.008 390.696C260.093 394.501 255.673 396.822 250.882 397.064C250.607 397.078 250.332 397.085 250.058 397.085Z" />
<path d="M340.509 430.528C323.005 430.528 306.21 426.649 290.589 418.998C284.915 416.219 280.832 411.097 279.386 404.944C277.94 398.791 279.315 392.386 283.158 387.372L324.04 334.01C331.477 324.303 330.597 310.428 321.994 301.737L280.144 259.465C274.095 253.355 271.352 244.975 272.619 236.473C273.893 227.928 278.995 220.669 286.617 216.56C303.802 207.294 323.276 202.604 342.935 203.026C402.181 204.262 451.016 251.535 454.112 310.647C455.766 342.228 444.732 372.207 423.041 395.062C401.338 417.932 372.027 430.528 340.509 430.528ZM340.55 206.879C322.345 206.879 306.515 210.914 290.589 219.5C284.053 223.024 277.547 229.72 276.455 237.045C275.37 244.326 277.719 251.504 282.9 256.737L324.75 299.008C334.709 309.07 335.728 325.131 327.119 336.368L286.237 389.73C283.103 393.819 281.982 399.041 283.162 404.058C284.34 409.074 287.669 413.25 292.295 415.516C307.38 422.904 325.093 427 342 427C372.444 427 399.264 414.483 420.228 392.393C441.179 370.317 451.837 341.357 450.239 310.85C447.248 253.757 400.079 208.097 342.854 206.903C342.087 206.887 341.317 206.879 340.55 206.879Z" />
<path d="M347.965 317.234C345.754 314.651 344.649 310.871 344.649 305.89C344.649 300.958 345.754 297.199 347.965 294.616C350.175 292.033 353.236 290.742 357.145 290.742C361.1 290.742 364.196 292.033 366.43 294.616C368.664 297.199 369.78 300.958 369.78 305.89C369.78 310.871 368.664 314.651 366.43 317.234C364.196 319.817 361.1 321.109 357.145 321.109C353.236 321.109 350.175 319.817 347.965 317.234ZM361.124 313.22C361.962 311.731 362.38 309.288 362.38 305.89C362.38 302.586 361.95 300.178 361.089 298.665C360.227 297.153 358.913 296.397 357.145 296.397C355.423 296.397 354.143 297.153 353.305 298.665C352.467 300.178 352.049 302.586 352.049 305.89C352.049 309.241 352.467 311.674 353.305 313.185C354.143 314.699 355.423 315.454 357.145 315.454C358.96 315.454 360.287 314.711 361.124 313.22ZM360.502 334.498L385.418 291.439C388.858 291.439 391.004 295.167 389.278 298.142L364.335 341.144C360.924 341.144 358.794 337.45 360.502 334.498ZM383.358 337.758C381.148 335.175 380.042 331.371 380.042 326.344C380.042 321.412 381.148 317.665 383.358 315.105C385.568 312.546 388.652 311.266 392.608 311.266C396.563 311.266 399.647 312.546 401.858 315.105C404.068 317.665 405.174 321.435 405.174 326.414C405.174 331.395 404.068 335.175 401.858 337.758C399.647 340.341 396.563 341.633 392.608 341.633C388.652 341.633 385.568 340.341 383.358 337.758ZM396.517 333.709C397.355 332.198 397.774 329.765 397.774 326.414C397.774 323.11 397.343 320.702 396.483 319.189C395.62 317.677 394.33 316.92 392.608 316.92C390.839 316.92 389.537 317.677 388.699 319.189C387.861 320.702 387.442 323.11 387.442 326.414C387.442 329.765 387.861 332.198 388.699 333.709C389.537 335.223 390.839 335.978 392.608 335.978C394.376 335.978 395.68 335.223 396.517 333.709Z" />
</svg>
