<svg width="1079" height="1093" viewBox="0 0 1079 1093" fill="none" xmlns="http://www.w3.org/2000/svg">
<g clip-path="url(#clip0_1186_110)">
<path d="M242.003 182.532L233.777 225.726L274.789 237.29L269.693 191.175L242.003 182.532Z" fill="#F8A8AB"/>
<path d="M732.202 490.164H309.238C261.274 490.164 222.391 529.052 222.391 577.024V987.226C222.391 1035.2 261.274 1074.09 309.238 1074.09H732.202C780.167 1074.09 819.05 1035.2 819.05 987.226V577.024C819.05 529.052 780.167 490.164 732.202 490.164Z" fill="white"/>
<path d="M732.203 1076.14H309.238C260.217 1076.14 220.334 1036.25 220.334 987.226V577.024C220.334 527.996 260.217 488.107 309.238 488.107H732.203C781.224 488.107 821.106 527.996 821.106 577.024V987.226C821.106 1036.25 781.224 1076.14 732.203 1076.14ZM309.238 492.221C262.484 492.221 224.447 530.263 224.447 577.024V987.226C224.447 1033.99 262.484 1072.03 309.238 1072.03H732.203C778.957 1072.03 816.993 1033.99 816.993 987.226V577.024C816.993 530.263 778.957 492.221 732.203 492.221L309.238 492.221Z" fill="#3F3D56"/>
<path d="M762.84 668.001H592.831C585.62 668.001 579.754 662.133 579.754 654.921C579.754 647.709 585.62 641.842 592.831 641.842H762.84C770.051 641.842 775.918 647.709 775.918 654.921C775.918 662.133 770.051 668.001 762.84 668.001Z" />
<path d="M603.349 770.858H438.093C433.926 770.858 430.536 767.468 430.536 763.301C430.536 759.134 433.926 755.745 438.093 755.745H603.349C607.516 755.745 610.904 759.134 610.904 763.301C610.904 767.468 607.516 770.858 603.349 770.858Z" />
<path d="M369.775 518.256H275.427C275.074 518.256 274.789 518.542 274.789 518.894V529.879C274.789 530.232 275.074 530.517 275.427 530.517H369.775C370.128 530.517 370.413 530.232 370.413 529.879V518.894C370.413 518.542 370.128 518.256 369.775 518.256Z" />
<path d="M687.573 530.517C692.989 530.517 697.381 526.126 697.381 520.708C697.381 515.291 692.989 510.899 687.573 510.899C682.156 510.899 677.765 515.291 677.765 520.708C677.765 526.126 682.156 530.517 687.573 530.517Z" fill="#3F3D56"/>
<path d="M714.544 530.517C719.961 530.517 724.352 526.126 724.352 520.708C724.352 515.291 719.961 510.899 714.544 510.899C709.127 510.899 704.736 515.291 704.736 520.708C704.736 526.126 709.127 530.517 714.544 530.517Z" fill="#3F3D56"/>
<path d="M741.515 530.517C746.932 530.517 751.323 526.126 751.323 520.708C751.323 515.291 746.932 510.899 741.515 510.899C736.098 510.899 731.707 515.291 731.707 520.708C731.707 526.126 736.098 530.517 741.515 530.517Z" fill="#3F3D56"/>
<path d="M308.209 811.311C308.209 812.668 309.299 813.758 310.656 813.758H730.785C732.142 813.758 733.232 812.668 733.232 811.311C733.232 809.953 732.142 808.863 730.785 808.863H310.656C309.299 808.863 308.209 809.953 308.209 811.311Z" fill="#3F3D56"/>
<path d="M436.34 207.57C445.284 200.179 456.348 198.803 461.05 204.497C465.752 210.19 462.313 220.796 453.365 228.189C449.831 231.191 445.629 233.304 441.112 234.349L402.82 265.189L388.733 246.908L427.978 218.446C429.857 214.205 432.724 210.476 436.34 207.57Z" fill="#F8A8AB"/>
<path d="M215.016 277.154C214.996 275.79 215.009 263.893 223.815 256.373C233.931 247.736 248.205 251.232 253.212 252.458C264.777 255.291 265.725 260.253 276.586 265.351C296.906 274.889 271.446 270.007 283.537 266.949C287.722 265.89 347.931 261.714 362.919 252.488C392.067 234.545 411.928 223.664 411.928 223.664L424.911 249.635C424.911 249.635 406.137 275.744 379.714 295.085C352.611 314.925 339.059 324.846 318.464 328.678C316.69 329.009 273.071 336.457 237.94 310.206C229.927 304.219 215.244 293.248 215.016 277.154Z" fill="#E6E6E6"/>
<path d="M255.291 211.104C280.27 211.104 300.519 190.852 300.519 165.869C300.519 140.886 280.27 120.634 255.291 120.634C230.311 120.634 210.062 140.886 210.062 165.869C210.062 190.852 230.311 211.104 255.291 211.104Z" fill="#F8A8AB"/>
<path d="M609.504 469.779L562.924 422.092L538.88 447.177L573.583 492.9L608.005 496.838L609.504 469.779Z" fill="#F8A8AB"/>
<path d="M343.535 380.355C346.259 380.582 354.917 382.317 363.192 377.763C368.839 374.655 371.736 370.035 372.714 368.565C384.85 350.335 431.433 321.907 473.239 320.157C482.706 319.761 488.938 320.858 494.602 323.811C502.634 327.998 505.84 333.996 516.032 348.047C521.607 355.733 527.775 362.973 533.418 370.61C566.45 415.318 578.972 418.827 577.692 433.16C576.272 449.063 559.124 464.151 547.726 462.409C543.058 461.696 541.251 458.45 535.015 451.878C516.73 432.61 509.165 436.17 496.147 421.412C480.948 404.182 482.937 389.895 475.008 389.343C467.654 388.832 464.529 401.019 448.83 417.21C441.646 424.618 436.531 428.017 420.947 438.83C360.257 480.94 359.288 483.899 347.041 487.257C341.682 488.727 303.649 499.156 290.1 482.559C268.898 456.588 318.986 378.315 343.535 380.355Z" fill="#2F2E41"/>
<path d="M595.263 480.555C598.689 479.016 602.695 477.217 603.983 473.08C604.855 470.281 604.353 466.83 602.551 464.445C600.471 461.693 597.393 461.33 597.517 460.843C597.707 460.102 604.986 460.392 612.977 463.217C614.484 463.75 621.316 466.246 630.005 473.031C636.967 478.467 636.03 479.557 640.396 482.692C653.797 492.313 666.366 484.73 673.618 493.753C676.416 497.236 677.61 502.18 676.432 506.178C674.067 514.206 662.565 516.969 656.279 518.395C641.14 521.831 629.681 519.026 617.716 517.01C577.024 510.152 554.161 516.398 551.101 506.969C550.522 505.185 551.463 505.337 554.6 492.241C557.697 479.317 557.595 475.767 560.233 474.732C564.202 473.174 566.868 480.261 576.869 482.686C585.731 484.836 593.044 481.551 595.263 480.555Z" fill="#2F2E41"/>
<path d="M526.693 625.779L514.925 560.161L480.945 567.414L483.989 624.737L510.261 647.328L526.693 625.779Z" fill="#F8A8AB"/>
<path d="M356.824 402.412C358.951 404.129 365.141 410.427 374.545 411.307C380.963 411.907 385.954 409.71 387.588 409.044C407.866 400.775 462.371 403.414 497.946 425.446C506.002 430.435 510.543 434.843 513.572 440.467C517.866 448.442 517.152 455.206 517.696 472.556C517.994 482.047 519.033 491.503 519.414 500.99C521.645 556.535 530.036 566.472 520.93 577.613C510.826 589.975 488.166 592.828 479.713 584.986C476.251 581.774 476.578 578.073 475.107 569.133C470.796 542.921 462.537 541.617 460.051 522.095C457.149 499.301 466.817 488.597 460.565 483.687C454.768 479.134 445.339 487.463 423.259 492.043C413.155 494.139 407.014 494.078 388.047 494.273C314.187 495.032 311.724 496.937 299.704 492.837C294.445 491.043 257.119 478.312 255.227 456.971C252.265 423.573 337.656 386.937 356.824 402.412Z" fill="#2F2E41"/>
<path d="M508.86 626.698C512.558 627.349 516.883 628.11 520.272 625.411C522.565 623.585 524.087 620.447 523.935 617.461C523.759 614.016 521.416 611.987 521.792 611.654C522.365 611.147 528.225 615.475 533.251 622.3C534.2 623.588 538.45 629.49 541.831 639.985C544.54 648.393 543.153 648.768 545.005 653.814C550.692 669.302 565.35 670.086 566.284 681.625C566.644 686.078 564.856 690.84 561.637 693.486C555.172 698.801 544.104 694.627 538.102 692.277C523.646 686.617 515.739 677.861 506.971 669.473C477.151 640.945 454.726 633.272 457.487 623.752C458.01 621.95 458.703 622.604 468.652 613.531C478.471 604.575 480.379 601.581 483.143 602.206C487.302 603.147 485.529 610.508 492.442 618.131C498.569 624.887 506.464 626.276 508.86 626.698Z" fill="#2F2E41"/>
<path d="M261.457 174.517C263.218 168.217 261.006 165.922 263.26 163.094C263.26 163.094 264.167 161.956 272.277 158.886C269.884 145.001 271.676 142.653 271.676 142.653C273.74 139.947 277.876 139.293 280.692 139.647C286.647 140.396 287.702 145.78 291.512 145.659C296.776 145.492 303.09 134.954 301.13 125.82C299.531 118.369 292.639 112.835 290.911 113.796C289.198 114.748 283.031 110.55 280.692 111.391C279.095 111.965 271.577 111.201 269.872 111.992C268.011 112.856 262.679 118.234 262.17 117.556C258.627 112.847 258.703 111.203 256.648 110.188C253.006 108.39 249.048 111.714 242.221 114.998C228.176 121.755 224.063 117.724 217.576 123.415C214.299 126.289 212.541 131.783 209.16 142.653C204.432 157.855 202.068 165.456 204.351 172.713C206.68 180.114 210.11 178.504 215.171 188.946C220.806 200.569 218.864 207.326 224.188 209.988C228.303 212.045 234.916 210.736 237.412 206.982C241.687 200.554 230.638 191.86 234.407 181.731C236.72 175.514 243.856 170.799 248.232 172.112C253.181 173.596 253.545 182.47 256.648 182.332C259.305 182.215 261.15 175.615 261.457 174.517Z" fill="#2F2E41"/>
<path d="M227.194 217.803C236.449 207.424 274.148 218.167 277.687 234.637C279.142 241.411 273.769 244.271 275.282 252.071C277.495 263.48 290.026 262.702 299.327 274.316C312.531 290.804 298.928 306.921 313.753 334.436C316.921 340.315 319.591 345.271 325.174 350.067C337.986 361.073 349.908 357.298 356.432 367.502C361.31 375.132 359.306 384.537 358.836 386.74C356.911 395.774 351.693 397.975 348.016 405.377C341.899 417.693 348.825 426.735 349.219 441.449C349.711 459.86 339.928 485.38 320.365 493.754C298.387 503.161 271.879 487.581 259.052 472.111C251.398 462.88 249.176 454.364 245.828 443.854C230.863 396.882 222.408 401.13 210.964 363.895C197.881 321.328 195.309 271.459 210.964 255.679C213.039 253.587 218.749 248.753 222.385 240.047C227.277 228.334 223.05 222.449 227.194 217.803Z" fill="#E6E6E6"/>
<path d="M363.951 459.414C371.127 468.532 372.239 479.627 366.436 484.193C360.633 488.76 350.114 485.069 342.937 475.946C340.02 472.341 338.008 468.09 337.071 463.548L307.155 424.528L322.613 412.735L353.279 450.794C357.473 452.773 361.133 455.729 363.951 459.414Z" fill="#F8A8AB"/>
<path d="M254.388 257.359C255.719 257.061 267.366 254.646 276.523 261.734C287.042 269.876 286.532 284.566 286.354 289.718C285.941 301.619 281.277 303.56 278.503 315.235C273.313 337.076 283.197 357.374 288.658 368.588C290.549 372.47 296.621 384.347 308.71 397.139C332.22 422.017 353.197 435.108 353.197 435.108L330.662 455.143C330.662 455.143 294.765 444.2 270.442 422.276C245.492 399.787 207.123 320.217 199.169 300.834C198.484 299.165 208.187 326.302 226.713 286.548C230.939 277.481 238.681 260.867 254.388 257.359Z" fill="#E6E6E6"/>
<path d="M563.376 867.342C549.053 869.538 538.575 878.71 539.973 887.827C541.372 896.944 554.116 902.552 568.445 900.354C574.181 899.554 579.642 897.392 584.371 894.049L644.945 883.979L640.902 860.031L580.465 868.585C574.95 866.812 569.09 866.386 563.376 867.342Z" fill="#FFB6B6"/>
<path d="M824.401 792.697L800.914 842.544L682.839 882.298L584.86 887.526L582.406 863.99L688.592 841.784L797.553 790.286L824.401 792.697Z" fill="#E6E6E6"/>
<path d="M606.627 981.969L585.54 1035.31L558.251 1016.71L574.376 960.879L606.627 981.969Z" fill="#FFB6B6"/>
<path d="M518.558 962.119L462.739 1015.47L485.067 1039.04L542.125 994.375L518.558 962.119Z" fill="#FFB6B6"/>
<path d="M834.862 788.435L834.242 784.093L819.978 756.18L772.842 768.586L781.525 807.044L834.862 788.435Z" fill="#FFB6B6"/>
<path d="M815.016 974.525L816.465 993.159C816.465 993.159 822.458 1071.29 774.082 1077.5C725.706 1083.7 704.619 1089.9 676.09 1041.52L631.435 962.12L605.352 993.159L570.655 965.841C570.655 965.841 595.463 869.075 615.31 865.353C617.79 864.888 620.271 864.655 622.713 864.604C639.144 864.262 654.632 872.299 664.463 885.471L720.745 960.879L741.211 951.574L815.016 974.525Z" fill="#2F2E41"/>
<path d="M547.087 1032.83L558.251 1011.74L590.501 1034.07C590.501 1034.07 597.944 1061.37 586.78 1065.09C575.616 1068.81 544.606 1063.85 544.606 1063.85C544.606 1063.85 487.547 1076.25 486.307 1065.09C485.067 1053.92 512.356 1051.44 512.356 1051.44L547.087 1032.83Z" fill="#2F2E41"/>
<path d="M668.647 1017.95L582.439 963.619L538.404 1003.06L508.634 968.322C508.634 968.322 563.212 887.683 579.338 883.962C595.463 880.24 621.512 877.759 621.512 877.759L700.898 950.954L668.647 1017.95Z" fill="#2F2E41"/>
<path d="M461.499 1010.5L490.028 1041.52L486.266 1044.74C486.266 1044.74 478.864 1076.98 461.499 1066.07C444.133 1055.16 442.893 1052.68 442.893 1052.68C442.893 1052.68 393.276 1063.85 388.314 1044C383.353 1024.15 396.997 1027.87 396.997 1027.87L409.387 1035.31L461.499 1010.5Z" fill="#2F2E41"/>
<path d="M787.727 782.232C809.649 782.232 827.42 764.459 827.42 742.533C827.42 720.608 809.649 702.834 787.727 702.834C765.805 702.834 748.034 720.608 748.034 742.533C748.034 764.459 765.805 782.232 787.727 782.232Z" fill="#FFB6B6"/>
<path d="M778.424 798.981L835.483 781.612C835.483 781.612 857.81 833.717 854.089 857.289C850.368 880.86 816.465 993.159 816.465 993.159L741.211 951.574C741.211 951.574 739.971 926.762 736.25 915.597C732.529 904.431 720.745 870.315 746.793 841.781C772.842 813.247 778.424 798.981 778.424 798.981Z" fill="#E6E6E6"/>
<path d="M652.841 1059.48C643.555 1070.61 641.768 1084.42 648.849 1090.33C655.93 1096.24 669.195 1092.01 678.483 1080.88C682.254 1076.48 684.918 1071.25 686.251 1065.61L725.001 1017.97L706.126 1002.69L666.474 1049.11C661.166 1051.43 656.491 1054.98 652.841 1059.48Z" fill="#FFB6B6"/>
<path d="M822.19 824.01L835.677 877.439L769.669 983.117L702.284 1050.85L680.443 1032.73L748.402 948.158L799.914 839.192L822.19 824.01Z" fill="#E6E6E6"/>
<path d="M751.135 735.71C761.314 735.686 761.892 735.754 763.539 735.71C776.165 735.377 779.467 730.409 785.866 730.748C797.289 731.352 782.213 788.629 775.943 815.108C769.794 841.078 790.575 864.349 792.068 865.973C813.161 888.917 850.212 893.112 856.57 883.341C861.716 875.433 843.478 863.408 847.887 846.123C852.196 829.227 872.094 831.026 877.657 815.108C883.482 798.439 863.906 790.031 851.608 749.357C844.545 725.997 845.794 721.645 839.204 707.176C821.587 668.503 735.239 684.969 744.933 720.823C746.808 727.758 741.818 735.732 751.135 735.71Z" fill="#2F2E41"/>
<path d="M877.884 264.43H460.716C448.919 264.43 439.321 254.83 439.321 243.031V21.3984C439.321 9.59996 448.919 0 460.716 0H877.884C889.682 0 899.279 9.59994 899.279 21.3984V243.031C899.279 254.83 889.682 264.43 877.884 264.43Z" fill="white"/>
<path d="M877.884 264.43H460.716C448.919 264.43 439.321 254.83 439.321 243.031V21.3984C439.321 9.59996 448.919 0 460.716 0H877.884C889.682 0 899.279 9.59994 899.279 21.3984V243.031C899.279 254.83 889.682 264.43 877.884 264.43ZM460.716 3.57337C450.889 3.57337 442.894 11.5698 442.894 21.3984V243.031C442.894 252.86 450.889 260.856 460.716 260.856H877.884C887.711 260.856 895.707 252.86 895.707 243.031V21.3984C895.707 11.5698 887.711 3.57337 877.884 3.57337H460.716Z" fill="#3F3D56"/>
<path d="M845.687 26.8002C848.647 26.8002 851.046 24.4004 851.046 21.4401C851.046 18.4799 848.647 16.0801 845.687 16.0801C842.727 16.0801 840.328 18.4799 840.328 21.4401C840.328 24.4004 842.727 26.8002 845.687 26.8002Z" fill="#3F3D56"/>
<path d="M859.978 26.8002C862.938 26.8002 865.338 24.4004 865.338 21.4401C865.338 18.4799 862.938 16.0801 859.978 16.0801C857.019 16.0801 854.619 18.4799 854.619 21.4401C854.619 24.4004 857.019 26.8002 859.978 26.8002Z" fill="#3F3D56"/>
<path d="M874.27 26.8002C877.23 26.8002 879.629 24.4004 879.629 21.4401C879.629 18.4799 877.23 16.0801 874.27 16.0801C871.31 16.0801 868.91 18.4799 868.91 21.4401C868.91 24.4004 871.31 26.8002 874.27 26.8002Z" fill="#3F3D56"/>
<path d="M469.69 108.094C468.212 108.094 467.01 109.297 467.01 110.775C467.01 111.495 467.289 112.162 467.794 112.654C468.303 113.175 468.97 113.455 469.69 113.455H870.697C872.174 113.455 873.376 112.252 873.376 110.775C873.376 110.054 873.098 109.387 872.593 108.895C872.084 108.374 871.416 108.094 870.697 108.094H469.69Z" fill="#E6E6E6"/>
<path d="M820.677 107.201V114.348H469.69C468.707 114.348 467.814 113.955 467.171 113.294C466.51 112.651 466.117 111.757 466.117 110.775C466.117 108.809 467.725 107.201 469.69 107.201H820.677Z" />
<path d="M866.231 93.8011H830.503C826.562 93.8011 823.357 90.5958 823.357 86.6543C823.357 82.7128 826.563 79.5076 830.503 79.5076H866.231C870.171 79.5076 873.376 82.7128 873.376 86.6543C873.376 90.5958 870.171 93.8011 866.231 93.8011Z" fill="#E6E6E6"/>
<path d="M632.211 56.2806H472.37C468.43 56.2806 465.224 53.0753 465.224 49.1338C465.224 45.1923 468.43 41.9871 472.37 41.9871H632.211C636.151 41.9871 639.356 45.1923 639.356 49.1338C639.356 53.0753 636.151 56.2806 632.211 56.2806Z" fill="#E6E6E6"/>
<path d="M469.69 188.495C468.212 188.495 467.01 189.698 467.01 191.175C467.01 191.896 467.289 192.563 467.794 193.055C468.303 193.576 468.97 193.855 469.69 193.855H870.697C872.174 193.855 873.376 192.653 873.376 191.175C873.376 190.455 873.098 189.788 872.593 189.296C872.084 188.775 871.416 188.495 870.697 188.495H469.69Z" fill="#E6E6E6"/>
<path d="M683.123 187.602V194.749H469.69C468.707 194.749 467.814 194.356 467.171 193.695C466.51 193.051 466.117 192.158 466.117 191.175C466.117 189.21 467.725 187.602 469.69 187.602H683.123Z" />
<path d="M866.231 174.202H830.503C826.562 174.202 823.357 170.997 823.357 167.055C823.357 163.114 826.563 159.908 830.503 159.908H866.231C870.171 159.908 873.376 163.114 873.376 167.055C873.376 170.997 870.171 174.202 866.231 174.202Z" fill="#E6E6E6"/>
</g>
<defs>
<clipPath id="clip0_1186_110">
<rect width="1079" height="1093" fill="white"/>
</clipPath>
</defs>
</svg>
