<svg width="208" height="636" viewBox="0 0 208 636" fill="none" xmlns="http://www.w3.org/2000/svg">
<path d="M37.9496 351.411C36.0668 360.995 29.349 367.211 22.9431 365.289C16.5373 363.368 12.872 354.033 14.7548 344.45C15.4566 340.607 17.1054 337.081 19.5675 334.2L28.0678 293.741L47.9427 300.386L37.4482 339.568C38.5734 343.534 38.7405 347.603 37.9273 351.411H37.9496Z" fill="#F8A8AB"/>
<path d="M68.82 614.903H45.4916L45.4916 581.327H68.82V614.903Z" fill="#F8A8AB"/>
<path d="M48.0762 634.138C52.0645 634.499 72.0286 636.104 73.0312 631.459C73.9447 627.199 72.5967 622.746 72.4073 622.136C70.4911 602.765 69.7781 602.551 69.3437 602.426C68.6641 602.223 66.6811 603.183 63.4614 605.286L63.2609 605.421L63.2163 605.658C63.1606 605.964 61.7346 613.072 54.9722 611.976C50.3377 611.23 48.8338 610.19 48.3547 609.682C48.7446 609.501 49.2348 609.184 49.5802 608.642C50.0815 607.851 50.1706 606.834 49.8364 605.613C48.9674 602.392 46.3605 597.635 46.2491 597.442L45.9483 596.9L19.4336 615.05L3.05689 619.796C1.82028 620.158 0.828751 621.051 0.327423 622.249C-0.363297 623.921 0.0600379 625.865 1.39691 627.086C4.37146 629.798 10.276 634.443 16.4813 635.019C18.1302 635.178 20.3137 635.234 22.7647 635.234C33.0029 635.234 47.9536 634.16 48.065 634.138H48.0762Z" fill="#2F2E43"/>
<path d="M133.447 614.903H110.118V581.327H133.447V614.903Z" fill="#F8A8AB"/>
<path d="M112.703 634.138C116.691 634.499 136.655 636.104 137.658 631.459C138.572 627.199 137.224 622.746 137.034 622.136C135.118 602.765 134.405 602.551 133.97 602.426C133.291 602.223 131.308 603.183 128.088 605.286L127.888 605.421L127.843 605.658C127.787 605.964 126.361 613.072 119.599 611.976C114.965 611.23 113.461 610.19 112.982 609.682C113.371 609.501 113.862 609.184 114.207 608.642C114.708 607.851 114.797 606.834 114.463 605.613C113.594 602.392 110.987 597.635 110.876 597.442L110.575 596.9L84.0605 615.05L67.6837 619.796C66.4471 620.158 65.4556 621.051 64.9543 622.249C64.2636 623.921 64.6869 625.865 66.0238 627.086C68.9983 629.798 74.9029 634.443 81.1082 635.019C82.757 635.178 84.9406 635.234 87.3915 635.234C97.6297 635.234 112.58 634.16 112.692 634.138H112.703Z" fill="#2F2E43"/>
<path d="M114.541 113.339L78.3676 125.398V72.5754H111.188L114.541 113.339Z" fill="#F8A8AB"/>
<path d="M82.8461 87.1993C62.9418 87.1993 46.8062 70.831 46.8062 50.6396C46.8062 30.4482 62.9418 14.0798 82.8461 14.0798C102.75 14.0798 118.886 30.4482 118.886 50.6396C118.886 70.831 102.75 87.1993 82.8461 87.1993Z" fill="#F8A8AB"/>
<path d="M92.026 53.499L87.0573 59.613L78.0668 43.6555C78.0668 43.6555 66.5919 44.2545 66.5919 35.6203C66.5919 26.9861 56.064 26.7374 56.064 26.7374C56.064 26.7374 41.169 0.348874 72.0286 7.29918C72.0286 7.29918 93.4297 -7.57335 104.08 5.14063C104.08 5.14063 136.722 21.8101 127.375 50.8431L111.856 80.769L108.336 73.9995C108.336 73.9995 110.464 45.5654 92.0149 53.4876L92.026 53.499Z" fill="#2F2E43"/>
<path d="M44.1993 287.278H165.933L136.143 598.844L101.607 596.584L99.9024 372.207L78.1671 470.676L71.8058 594.888L40.3335 596.584L36.6793 455.283L44.1993 287.278Z" fill="#2F2E43"/>
<path d="M116.513 94.0254L75.2928 104.197L40.0549 258.674L44.1993 287.278L147.417 304.998L165.933 287.278L116.513 94.0254Z" />
<path d="M116.58 86.2953L130.673 102.332L159.26 109.293L208 329.127L114.084 345.265L87.9263 121.375L116.58 86.2953Z" fill="#2F2E43"/>
<path d="M75.3151 94.308L82.6679 120.889L48.6333 359.256H31.0756L39.1748 125.997L63.0158 106.785L75.3151 94.308Z" fill="#2F2E43"/>
<path d="M67.2383 125.577L53.1008 128.527C53.1008 128.527 46.9067 130.832 44.6562 148.688C42.417 166.544 42.0159 226.509 42.0159 226.509L17.9744 323.249L45.2801 332.38L58.1364 280.326L67.2495 125.566L67.2383 125.577Z" fill="#2F2E43"/>
<path d="M76.897 110.638L83.7374 123.364L70.0567 272.631L86.0212 287.673L100.849 273.795L90.0095 123.94L105.807 110.638L100.281 106.581L94.5772 113.52L83.1692 111.215L78.6127 104.264L76.897 110.638Z" fill="#2F2E43"/>
<path d="M144.086 311.372C138.349 319.227 129.659 321.928 124.679 317.418C119.699 312.909 120.312 302.885 126.049 295.019C128.3 291.844 131.274 289.38 134.728 287.843L159.46 254.945L174.634 269.569L148.643 300.444C147.985 304.524 146.426 308.264 144.086 311.361V311.372Z" fill="#F8A8AB"/>
<path d="M147.963 112.899L159.26 109.293C159.26 109.293 174.567 113.147 179.636 132.54L204.379 227.019L162.413 301.744L139.986 274.123L161.109 205.524L147.952 112.899H147.963Z" fill="#2F2E43"/>
</svg>
