<svg width="233" height="634" viewBox="0 0 233 634" fill="none" xmlns="http://www.w3.org/2000/svg">
<path d="M144.606 88.6291L171.685 178.028L172.552 180.9L165.977 298.733L162.297 285.035L145.867 283.172L137.969 282.27L139.77 213.453L131.176 184.522L114.96 129.98C114.756 129.279 114.565 128.584 114.383 127.887C116.339 120.149 114.643 109.667 118.144 101.99C122.539 92.3457 133.434 89.5729 144.606 88.6291Z" />
<path d="M77.2757 78.3452L64.8477 23.2946L61.8721 10.079C61.5442 8.62399 60.652 7.35868 59.3916 6.56111C58.1313 5.76355 56.6058 5.49896 55.1505 5.8255L51.1945 6.71823L5.3511 17.0631C3.89609 17.3911 2.63078 18.2833 1.83322 19.5437C1.03565 20.804 0.771059 22.3295 1.09759 23.7848C1.50015 43.827 3.60068 62.0138 12.2302 73.1115C13.2124 77.4281 15.3203 81.4075 18.3396 84.6451C21.3588 87.8826 25.1817 90.2627 29.4193 91.5433C29.5243 91.5783 29.6118 91.6134 29.7169 91.6483C29.7869 91.6659 29.8744 91.7009 29.9444 91.7184C33.9331 92.8407 38.1388 92.949 42.1799 92.0335L73.0222 85.0667C74.4772 84.7388 75.7425 83.8466 76.5401 82.5863C77.3377 81.326 77.6022 79.8006 77.2757 78.3452Z" fill="white"/>
<path d="M31.603 35.4188C32.6174 34.2484 33.9832 33.4376 35.4965 33.1076C37.0098 32.7777 38.5892 32.9462 39.9987 33.5882C43.0579 35.1162 44.2449 38.3672 43.7561 41.5997C43.2101 45.2109 41.3238 48.4983 41.1525 52.1956C41.0026 55.4314 42.2088 58.8313 45.0761 60.5734C47.1322 61.8226 49.2485 58.7301 47.1826 57.475C43.7829 55.4095 44.9254 50.8706 45.9115 47.7747C47.1428 43.9088 48.4259 39.9678 46.9026 35.9845C46.2283 34.3168 45.1466 32.8447 43.7564 31.703C42.3662 30.5613 40.712 29.7864 38.9449 29.4492C37.1779 29.112 35.3545 29.2233 33.6416 29.7729C31.9286 30.3224 30.3808 31.2927 29.1398 32.5949C27.5175 34.3442 29.9603 37.1902 31.603 35.4188Z" />
<path d="M48.1054 71.371C50.1746 71.371 51.8521 69.6936 51.8521 67.6243C51.8521 65.5551 50.1746 63.8777 48.1054 63.8777C46.0362 63.8777 44.3588 65.5551 44.3588 67.6243C44.3588 69.6936 46.0362 71.371 48.1054 71.371Z" />
<path d="M130.625 597.467L65.8194 597.094L50.2641 597C46.6994 596.979 43.7657 598.326 43.7212 600.007L43.664 602.204L43.0005 627.66C42.956 629.341 45.8105 630.725 49.3751 630.746C71.8701 633.054 92.7452 634.234 107.442 631.082C118.14 631.136 127.576 628.416 132.612 624.342C132.679 624.292 132.742 624.25 132.809 624.199C132.847 624.164 132.909 624.122 132.948 624.088C133.973 623.336 134.825 622.376 135.448 621.271C136.071 620.166 136.451 618.942 136.561 617.68L136.999 600.553C137.044 598.872 134.19 597.488 130.625 597.467Z" fill="white"/>
<path d="M117.105 579.608L100.138 579.607L92.067 514.163L117.108 514.165L117.105 579.608Z" fill="#FFB6B6"/>
<path d="M117.702 597.308L65.5269 597.306V596.646C65.5273 591.26 67.667 586.095 71.4754 582.286C75.2838 578.478 80.449 576.339 85.8349 576.338H85.8362L95.3666 569.108L113.148 576.339L117.703 576.339L117.702 597.308Z" fill="#2F2E41"/>
<path d="M195.105 615.608L178.138 615.607L170.067 550.163L195.108 550.165L195.105 615.608Z" fill="#FFB6B6"/>
<path d="M195.702 633.308L143.527 633.306V632.646C143.527 627.26 145.667 622.095 149.475 618.286C153.284 614.478 158.449 612.339 163.835 612.338H163.836L173.367 605.108L191.148 612.339L195.703 612.339L195.702 633.308Z" fill="#2F2E41"/>
<path d="M136.796 229.982L75.9235 369.163L68.9235 391.163L90.0872 545.579L124.247 543.912L124.171 524.109C124.171 524.109 116.041 519.701 124.144 517.306C132.247 514.912 131.906 508.833 124.077 499.873C116.247 490.912 123.71 405.163 123.71 405.163C123.71 405.163 155.947 374.292 152.435 366.228C148.924 358.163 155.443 358.163 155.443 358.163C155.443 358.163 162.393 356.92 162.658 353.541C162.924 350.163 168.075 343.37 168.075 343.37L166.27 581.193H195.745C195.745 581.193 209.22 558.8 206.572 553.982C203.924 549.163 200.22 548.69 206.572 542.926C212.924 537.163 222.246 541.879 218.085 531.021C213.924 520.163 214.993 402.987 214.993 402.987C214.993 402.987 231.389 334.989 221.259 330.372C211.129 325.755 216.165 326.407 222.147 320.081C228.129 313.755 217.984 314.333 223.056 309.544C228.129 304.755 228.333 248.392 228.333 248.392L136.796 229.982Z" fill="#2F2E41"/>
<path d="M232.924 269.163C190.254 269.063 153.644 278.653 110.974 278.553C113.754 259.313 123.469 229.156 126.247 209.912C130.155 182.845 127.125 166.689 131.023 139.623C131.413 136.973 131.794 134.333 132.174 131.683C133.714 120.983 130.023 110.283 136.643 98.9827C139.463 94.1627 144.154 89.2427 151.924 84.1627C168.064 85.8027 167.784 78.5227 183.924 80.1627L189.263 90.8027C189.943 94.8427 192.394 97.4727 195.714 99.4627C202.544 103.593 213.063 105.033 219.383 110.623C227.323 117.643 226.794 128.873 224.434 139.833C223.594 143.733 222.523 147.593 221.513 151.223C213.384 180.469 223.775 202.782 232.247 229.912C233.051 232.484 225.442 242.433 226.247 244.912C227.615 249.112 232.51 254.338 231.73 257.176C230.766 260.69 229.804 263.996 232.924 269.163Z" />
<path d="M160.616 77.2604C177.38 77.2604 190.971 63.6699 190.971 46.9052C190.971 30.1404 177.38 16.5499 160.616 16.5499C143.851 16.5499 130.26 30.1404 130.26 46.9052C130.26 63.6699 143.851 77.2604 160.616 77.2604Z" fill="#FFB6B6"/>
<path d="M156.302 72.9965L158.774 80.9027C164.257 78.1961 179.813 74.4405 184.379 70.3731C188.944 66.3057 192.475 60.6928 192.691 54.5823C192.803 51.4264 192.039 48.2429 192.563 45.1289C193.155 41.6102 195.327 38.5598 196.321 35.1329C197.251 31.5435 196.901 27.7421 195.331 24.3829C193.761 21.0237 191.07 18.3167 187.72 16.7276C182.688 14.5162 176.934 15.1369 171.464 14.6025C165.994 14.0681 159.892 11.5935 158.352 6.31734C157.776 4.34465 157.842 2.01872 156.08 0.727079C155.194 0.135148 154.121 -0.108037 153.067 0.044386C152.013 0.196809 151.052 0.734053 150.37 1.55258C150.289 1.64471 150.211 1.73774 150.136 1.83168C145.506 7.64049 136.779 8.07174 132.212 2.21287C131.914 1.83 131.627 1.43828 131.351 1.0377C130.392 1.93635 129.62 3.0163 129.08 4.21513C128.54 5.41396 128.243 6.7079 128.207 8.02212C128.17 9.33635 128.394 10.6448 128.867 11.8718C129.339 13.0989 130.049 14.2201 130.958 15.1708C129.233 15.1715 127.558 14.591 126.203 13.5228C124.849 12.4547 123.894 10.9613 123.493 9.28374C121.398 12.1771 119.248 15.1946 118.574 18.7027C117.901 22.2107 119.151 26.3599 122.368 27.9122C124.01 28.5611 125.772 28.8497 127.536 28.7584C119.236 38.5752 124.216 38.2927 141.023 29.0146C149.361 29.173 146.068 36.9207 146.176 45.2594C150.1 44.8824 154.141 44.5137 157.852 46.1662C159.58 46.8939 161.037 48.1455 162.017 49.7447C164.469 53.957 162.036 58.335 159.88 62.1663C158.036 65.4413 156.289 69.3853 157.819 72.818" fill="#2F2E41"/>
<path d="M101.054 327.47C102.584 326.625 103.912 325.457 104.946 324.048C105.98 322.639 106.696 321.022 107.043 319.309C107.391 317.596 107.363 315.828 106.96 314.127C106.557 312.426 105.79 310.833 104.711 309.458L133.669 256.738L121.056 245.143L87.1194 308.011C84.9401 309.999 83.5658 312.718 83.257 315.652C82.9482 318.586 83.7264 321.531 85.444 323.93C87.1617 326.328 89.6994 328.014 92.5765 328.666C95.4535 329.319 98.4701 328.893 101.054 327.47Z" fill="#FFB6B6"/>
<path d="M171.684 80.9327L164.934 201.853L132.414 277.843L113.654 293.193L99.0635 285.893L97.6935 285.213L117.114 236.023L122.974 221.183L125.703 176.513L128.284 134.273C128.728 127.004 130.677 119.906 134.006 113.429C137.335 106.952 141.972 101.236 147.623 96.6427L163.823 83.4828L171.684 80.9327Z" />
</svg>
