<svg width="19" height="19" viewBox="0 0 19 19" fill="none" xmlns="http://www.w3.org/2000/svg">
<path d="M12.2141 10.1786C15.587 10.1786 18.3212 8.96334 18.3212 7.46429C18.3212 5.96523 15.587 4.75 12.2141 4.75C8.84119 4.75 6.10693 5.96523 6.10693 7.46429C6.10693 8.96334 8.84119 10.1786 12.2141 10.1786Z"  stroke-linecap="round" stroke-linejoin="round"/>
<path d="M6.10693 7.46423V15.6071C6.10693 17.0999 8.82122 18.3214 12.2141 18.3214C15.6069 18.3214 18.3212 17.0999 18.3212 15.6071V7.46423"  stroke-linecap="round" stroke-linejoin="round"/>
<path d="M18.3213 11.5357C18.3213 13.0285 15.607 14.25 12.2142 14.25C8.82132 14.25 6.10704 13.0285 6.10704 11.5357M12.0785 2.03568C10.4926 1.05701 8.6467 0.583694 6.78561 0.678537C3.40632 0.678537 0.678467 1.89997 0.678467 3.39282C0.678467 4.19354 1.46561 4.91282 2.71418 5.42854"  stroke-linecap="round" stroke-linejoin="round"/>
<path d="M2.71418 13.5714C1.46561 13.0557 0.678467 12.3364 0.678467 11.5357V3.39282"  stroke-linecap="round" stroke-linejoin="round"/>
<path d="M2.71418 9.49995C1.46561 8.98423 0.678467 8.26495 0.678467 7.46423"  stroke-linecap="round" stroke-linejoin="round"/>
</svg>
