<svg width="356" height="609" viewBox="0 0 356 609" fill="none" xmlns="http://www.w3.org/2000/svg">
<path d="M303.74 608.19H110.62C81.9799 608.19 58.6799 584.89 58.6799 556.25V51.94C58.6799 23.3 81.9799 0 110.62 0H303.74C332.38 0 355.68 23.3 355.68 51.94V556.25C355.68 584.89 332.38 608.19 303.74 608.19ZM110.62 2C83.0799 2 60.6799 24.4 60.6799 51.94V556.25C60.6799 583.79 83.0799 606.19 110.62 606.19H303.74C331.28 606.19 353.68 583.79 353.68 556.25V51.94C353.68 24.4 331.28 2 303.74 2H110.62Z" fill="#DEDFE0"/>
<path d="M234.53 47.36H179.84C172.62 47.36 166.75 41.49 166.75 34.27C166.75 27.05 172.62 21.18 179.84 21.18H234.53C241.75 21.18 247.62 27.05 247.62 34.27C247.62 41.49 241.75 47.36 234.53 47.36Z" fill="#DADBDC"/>
<path d="M62.5999 304.11L82.2498 310.57V282.29H64.4199L62.5999 304.11Z" fill="#F6AAAE"/>
<path d="M79.81 290.12C90.6237 290.12 99.39 281.354 99.39 270.54C99.39 259.726 90.6237 250.96 79.81 250.96C68.9962 250.96 60.23 259.726 60.23 270.54C60.23 281.354 68.9962 290.12 79.81 290.12Z" fill="#F6AAAE"/>
<path d="M74.8299 272.07L77.5299 275.35L82.4099 266.81C82.4099 266.81 88.6399 267.13 88.6399 262.51C88.6399 257.89 94.3599 257.76 94.3599 257.76C94.3599 257.76 102.45 243.63 85.6899 247.35C85.6899 247.35 74.0599 239.38 68.2799 246.19C68.2799 246.19 50.5499 255.12 55.6199 270.67L64.0499 286.69L65.9599 283.06C65.9599 283.06 64.7999 267.83 74.8299 272.07Z" fill="#2F2E43"/>
<path d="M73.0099 572.09H57.1899V594.53H73.0099V572.09Z" fill="#F6AAAE"/>
<path d="M71.27 607.39C68.56 607.64 55.03 608.7 54.35 605.6C53.73 602.75 54.64 599.77 54.77 599.37C56.07 586.43 56.55 586.28 56.84 586.19C57.3 586.06 58.65 586.69 60.83 588.1L60.97 588.19L61 588.35C61.04 588.55 62.01 593.3 66.59 592.58C69.73 592.08 70.75 591.39 71.08 591.05C70.81 590.93 70.48 590.72 70.25 590.35C69.91 589.82 69.85 589.14 70.07 588.33C70.66 586.18 72.43 583 72.5 582.87L72.7 582.51L90.6799 594.64L101.78 597.81C102.62 598.05 103.29 598.65 103.63 599.45C104.1 600.57 103.81 601.87 102.91 602.68C100.89 604.49 96.89 607.6 92.68 607.98C91.56 608.08 90.08 608.12 88.42 608.12C81.47 608.12 71.34 607.4 71.26 607.39L71.27 607.39Z" fill="#2F2E43"/>
<path d="M23.6668 538.39L9.36304 555.681L21.5526 565.765L35.8564 548.474L23.6668 538.39Z" fill="#F6AAAE"/>
<path d="M12.03 574.58C9.79001 573.04 -1.31999 565.24 0.130007 562.42C1.47001 559.83 4.07001 558.12 4.43001 557.89C13.68 548.75 14.15 548.94 14.43 549.06C14.87 549.25 15.5 550.6 16.29 553.07L16.34 553.22L16.26 553.36C16.16 553.54 13.88 557.82 17.87 560.18C20.61 561.8 21.84 561.91 22.3 561.86C22.17 561.6 22.05 561.22 22.1 560.79C22.17 560.17 22.56 559.6 23.26 559.12C25.09 557.84 28.47 556.52 28.62 556.46L29 556.31L35.12 577.12L41.65 586.64C42.14 587.36 42.28 588.25 42.03 589.09C41.68 590.25 40.63 591.07 39.41 591.12C36.7 591.23 31.64 591.07 28.15 588.68C27.23 588.05 26.06 587.14 24.78 586.08C19.43 581.65 12.08 574.64 12.02 574.58L12.03 574.58Z" fill="#2F2E43"/>
<path d="M99.1799 399.02H44.9199L56.9799 578.38H75.0699L99.1899 399.02L99.1799 399.02Z" fill="#2F2E43"/>
<path d="M88.13 408.9L99.18 399.02L93.65 497.66L31.85 556.44L16.45 543.71L52.45 496.99L88.13 408.9Z" fill="#2F2E43"/>
<path d="M88.1299 293.51L61.3299 289.16L53.0099 303.71C42.4299 322.21 38.1199 343.63 40.7099 364.78L44.9199 399.03H99.1799L88.1299 293.52L88.1299 293.51Z" fill="#DADBDC"/>
<path d="M66.37 431.31C67.48 436.84 65.41 441.89 61.76 442.59C58.1 443.28 54.24 439.36 53.13 433.82C52.66 431.61 52.74 429.33 53.37 427.16L48.97 403.65L60.47 401.86L63.58 425.23C65 427.02 65.96 429.1 66.37 431.32V431.31Z" fill="#F6AAAE"/>
<path d="M52.38 424.94L35.49 372.76V372.68L41.87 318.95C42.85 310.72 49.83 304.52 58.11 304.52C63.18 304.52 67.88 306.81 71 310.81C74.12 314.81 75.21 319.92 73.98 324.85L62.71 369.92L65.4 421.07L52.37 424.94L52.38 424.94Z" fill="#DADBDC"/>
<path d="M247.099 365.318C278.943 365.318 304.758 339.503 304.758 307.659C304.758 275.815 278.943 250 247.099 250C215.255 250 189.44 275.815 189.44 307.659C189.44 339.503 215.255 365.318 247.099 365.318Z"/>
<path d="M223.075 303.853C222.066 303.853 221.098 304.254 220.384 304.967C219.671 305.681 219.27 306.649 219.27 307.658C219.27 308.667 219.671 309.635 220.384 310.349C221.098 311.062 222.066 311.463 223.075 311.463H243.295V331.682C243.297 332.689 243.699 333.655 244.412 334.367C245.126 335.078 246.092 335.478 247.099 335.478C248.107 335.478 249.073 335.078 249.787 334.367C250.5 333.655 250.902 332.689 250.904 331.682V311.463H271.124C272.133 311.463 273.101 311.062 273.815 310.349C274.528 309.635 274.929 308.667 274.929 307.658C274.929 306.649 274.528 305.681 273.815 304.967C273.101 304.254 272.133 303.853 271.124 303.853H250.904V283.633C250.904 282.624 250.503 281.656 249.79 280.943C249.076 280.229 248.109 279.828 247.099 279.828C246.09 279.828 245.123 280.229 244.409 280.943C243.696 281.656 243.295 282.624 243.295 283.633V303.853H223.075Z" fill="white"/>
</svg>
