<svg width="20" height="26" viewBox="0 0 20 26" fill="none" xmlns="http://www.w3.org/2000/svg">
<path d="M19.75 22.75V7.3125L12.4375 0H3.5C2.63805 0 1.8114 0.34241 1.2019 0.951903C0.59241 1.5614 0.25 2.38805 0.25 3.25V22.75C0.25 23.612 0.59241 24.4386 1.2019 25.0481C1.8114 25.6576 2.63805 26 3.5 26H16.5C17.362 26 18.1886 25.6576 18.7981 25.0481C19.4076 24.4386 19.75 23.612 19.75 22.75ZM12.4375 4.875C12.4375 5.52147 12.6943 6.14145 13.1514 6.59857C13.6085 7.05569 14.2285 7.3125 14.875 7.3125H18.125V22.75C18.125 23.181 17.9538 23.5943 17.649 23.899C17.3443 24.2038 16.931 24.375 16.5 24.375H3.5C3.06902 24.375 2.6557 24.2038 2.35095 23.899C2.0462 23.5943 1.875 23.181 1.875 22.75V3.25C1.875 2.81902 2.0462 2.4057 2.35095 2.10095C2.6557 1.7962 3.06902 1.625 3.5 1.625H12.4375V4.875Z" />
<path d="M4.47994 22.8914C4.16322 22.7648 3.90804 22.5201 3.76819 22.2089C3.45131 21.5784 3.55694 20.9479 3.89819 20.4182C4.21994 19.9193 4.75294 19.4952 5.35582 19.1393C6.11946 18.7062 6.92668 18.3549 7.76406 18.0912C8.41437 16.9221 8.99075 15.7135 9.48981 14.4723C9.19143 13.7943 8.95748 13.0898 8.79107 12.3679C8.65131 11.7179 8.59769 11.0744 8.71631 10.5219C8.83819 9.94669 9.16157 9.42994 9.77256 9.18456C10.0846 9.05944 10.4226 8.98956 10.7508 9.05944C10.9159 9.09459 11.0712 9.16605 11.2052 9.26864C11.3393 9.37123 11.4488 9.50238 11.5259 9.65256C11.6689 9.91906 11.7209 10.2311 11.7323 10.5268C11.7437 10.8323 11.7128 11.1703 11.6559 11.5246C11.5194 12.3533 11.2172 13.3673 10.8109 14.4398C11.2593 15.3986 11.7922 16.3155 12.4034 17.1796C13.1267 17.1224 13.8542 17.1497 14.5712 17.2608C15.1627 17.3681 15.7639 17.5777 16.1312 18.0164C16.3262 18.2504 16.4448 18.5364 16.4562 18.8582C16.4676 19.1702 16.3798 19.4789 16.2319 19.7731C16.1038 20.0456 15.9052 20.279 15.6567 20.4491C15.411 20.6093 15.1209 20.6878 14.8279 20.6733C14.2901 20.6506 13.7652 20.3548 13.3118 19.9957C12.7605 19.5399 12.2638 19.0218 11.8314 18.4519C10.7325 18.5767 9.64668 18.7974 8.58632 19.1117C8.10073 19.9729 7.54643 20.7934 6.92882 21.5654C6.45432 22.1342 5.93919 22.6314 5.42244 22.8443C5.12553 22.9786 4.78876 22.9955 4.47994 22.8914ZM6.72081 19.8023C6.45106 19.9258 6.20081 20.0558 5.97494 20.1891C5.44194 20.5043 5.09581 20.8114 4.92356 21.0779C4.77081 21.3136 4.76756 21.4842 4.85856 21.6646C4.87481 21.7003 4.89106 21.7231 4.90081 21.7361C4.9202 21.7309 4.93921 21.7244 4.95769 21.7166C5.18031 21.6256 5.53456 21.3347 5.98956 20.7871C6.24834 20.4702 6.49235 20.1416 6.72081 19.8023ZM9.38582 17.6411C9.92844 17.5144 10.476 17.4098 11.0271 17.3274C10.7312 16.8746 10.4547 16.4095 10.1983 15.9332C9.94344 16.5094 9.6725 17.0784 9.38582 17.6394V17.6411ZM13.3606 18.3723C13.6043 18.6372 13.8416 18.8598 14.0674 19.0386C14.4574 19.3473 14.7288 19.4497 14.8767 19.4546C14.9163 19.4597 14.9564 19.4511 14.9904 19.4302C15.058 19.3768 15.1107 19.3068 15.1432 19.2271C15.201 19.1281 15.2339 19.0166 15.2391 18.9021C15.2381 18.8639 15.2231 18.8274 15.1968 18.7997C15.1123 18.6989 14.8718 18.5527 14.3551 18.4601C14.0264 18.4051 13.6938 18.3763 13.3606 18.3739V18.3723ZM10.1268 12.6751C10.2636 12.2339 10.3721 11.7845 10.4518 11.3296C10.5022 11.0241 10.5217 10.7722 10.5136 10.5739C10.514 10.4646 10.4964 10.3559 10.4616 10.2522C10.3803 10.2623 10.3009 10.2842 10.2259 10.3172C10.0846 10.3741 9.96919 10.4894 9.90744 10.7771C9.84244 11.0891 9.85869 11.5392 9.98219 12.1128C10.0212 12.2932 10.0699 12.4817 10.1284 12.6751H10.1268Z" />
</svg>
