<svg width="11" height="11" viewBox="0 0 11 11" fill="none" xmlns="http://www.w3.org/2000/svg">
<path d="M9.96993 9.17399L7.74383 6.94696C8.41129 6.07718 8.7229 4.98608 8.61547 3.89499C8.50804 2.80391 7.9896 1.79454 7.16532 1.07164C6.34105 0.348743 5.27266 -0.0335493 4.17688 0.00231289C3.0811 0.0381751 2.04 0.489506 1.26475 1.26475C0.489506 2.04 0.0381751 3.0811 0.00231289 4.17688C-0.0335493 5.27266 0.348743 6.34105 1.07164 7.16532C1.79454 7.9896 2.80391 8.50804 3.89499 8.61547C4.98608 8.7229 6.07718 8.41129 6.94696 7.74383L9.17493 9.97227C9.22725 10.0246 9.28937 10.0661 9.35773 10.0944C9.4261 10.1227 9.49937 10.1373 9.57336 10.1373C9.64736 10.1373 9.72063 10.1227 9.789 10.0944C9.85736 10.0661 9.91948 10.0246 9.9718 9.97227C10.0241 9.91995 10.0656 9.85783 10.0939 9.78946C10.1223 9.7211 10.1368 9.64783 10.1368 9.57383C10.1368 9.49984 10.1223 9.42656 10.0939 9.3582C10.0656 9.28983 10.0241 9.22772 9.9718 9.17539L9.96993 9.17399ZM1.13446 4.32196C1.13446 3.69153 1.3214 3.07526 1.67165 2.55108C2.02189 2.0269 2.51971 1.61835 3.10215 1.37709C3.68459 1.13584 4.32549 1.07271 4.94381 1.1957C5.56212 1.31869 6.13008 1.62227 6.57586 2.06805C7.02164 2.51383 7.32522 3.08179 7.44821 3.70011C7.5712 4.31842 7.50808 4.95932 7.26682 5.54176C7.02557 6.1242 6.61702 6.62202 6.09284 6.97227C5.56866 7.32251 4.95239 7.50946 4.32196 7.50946C3.47685 7.50859 2.6666 7.17248 2.06901 6.5749C1.47143 5.97732 1.13533 5.16707 1.13446 4.32196Z" />
</svg>
