<svg width="55" height="60" viewBox="0 0 55 60" fill="none" xmlns="http://www.w3.org/2000/svg">
<path d="M45.4302 7.41C45.1902 7.41 44.9502 7.35 44.7402 7.23C38.9802 4.26 34.0002 3 28.0302 3C22.0902 3 16.4502 4.41 11.3202 7.23C10.6002 7.62 9.70021 7.35 9.28021 6.63C9.09311 6.27914 9.05115 5.86887 9.16335 5.48739C9.27555 5.10592 9.53295 4.78369 9.88021 4.59C15.4602 1.56 21.5802 0 28.0302 0C34.4202 0 40.0002 1.41 46.1202 4.56C46.8702 4.95 47.1402 5.85 46.7502 6.57C46.6316 6.82009 46.4448 7.0316 46.2113 7.1802C45.9777 7.32881 45.707 7.40846 45.4302 7.41ZM2.50021 23.16C2.22368 23.1626 1.95183 23.0885 1.71483 22.946C1.47783 22.8035 1.28493 22.5981 1.15754 22.3526C1.03015 22.1072 0.973247 21.8312 0.993134 21.5554C1.01302 21.2796 1.10893 21.0146 1.27021 20.79C4.24021 16.59 8.02021 13.29 12.5202 10.98C21.9402 6.12 34.0002 6.09 43.4502 10.95C47.9502 13.26 51.7302 16.53 54.7002 20.7C54.8153 20.8612 54.8973 21.0436 54.9416 21.2367C54.9858 21.4298 54.9913 21.6298 54.9578 21.825C54.9244 22.0203 54.8526 22.2069 54.7466 22.3743C54.6405 22.5416 54.5024 22.6863 54.3402 22.8C53.6502 23.28 52.7202 23.13 52.2402 22.44C49.613 18.7211 46.1233 15.6947 42.0702 13.62C33.4602 9.21 22.4502 9.21 13.8702 13.65C9.79021 15.75 6.37021 18.75 3.67021 22.53C3.43021 22.95 2.98021 23.16 2.50021 23.16ZM21.2502 59.37C21.0535 59.3724 20.8584 59.3336 20.6776 59.2561C20.4968 59.1786 20.3341 59.0641 20.2002 58.92C17.5902 56.31 16.1802 54.63 14.1702 51C12.1002 47.31 11.0202 42.81 11.0202 37.98C11.0202 29.07 18.6402 21.81 28.0002 21.81C37.3602 21.81 44.9802 29.07 44.9802 37.98C44.9802 38.82 44.3202 39.48 43.4802 39.48C42.6402 39.48 41.9802 38.82 41.9802 37.98C41.9802 30.72 35.7102 24.81 28.0002 24.81C20.2902 24.81 14.0202 30.72 14.0202 37.98C14.0202 42.3 14.9802 46.29 16.8102 49.53C18.7302 52.98 20.0502 54.45 22.3602 56.79C22.9302 57.39 22.9302 58.32 22.3602 58.92C22.0302 59.22 21.6402 59.37 21.2502 59.37ZM42.7602 53.82C39.1902 53.82 36.0402 52.92 33.4602 51.15C28.9902 48.12 26.3202 43.2 26.3202 37.98C26.3202 37.14 26.9802 36.48 27.8202 36.48C28.6602 36.48 29.3202 37.14 29.3202 37.98C29.3202 42.21 31.4802 46.2 35.1402 48.66C37.2702 50.1 39.7602 50.79 42.7602 50.79C43.4802 50.79 44.6802 50.7 45.8802 50.49C46.6902 50.34 47.4702 50.88 47.6202 51.72C47.7702 52.53 47.2302 53.31 46.3902 53.46C44.6802 53.79 43.1802 53.82 42.7602 53.82ZM36.7302 60C36.6102 60 36.4602 59.97 36.3402 59.94C31.5702 58.62 28.4502 56.85 25.1802 53.64C23.1081 51.5939 21.4649 49.155 20.3471 46.466C19.2293 43.777 18.6592 40.892 18.6702 37.98C18.6702 33.12 22.8102 29.16 27.9102 29.16C33.0102 29.16 37.1502 33.12 37.1502 37.98C37.1502 41.19 39.9402 43.8 43.3902 43.8C46.8402 43.8 49.6302 41.19 49.6302 37.98C49.6302 26.67 39.8802 17.49 27.8802 17.49C19.3602 17.49 11.5602 22.23 8.05021 29.58C6.88021 32.01 6.28021 34.86 6.28021 37.98C6.28021 40.32 6.49021 44.01 8.29021 48.81C8.59021 49.59 8.20021 50.46 7.42021 50.73C6.64021 51.03 5.77021 50.61 5.50021 49.86C4.05463 46.0659 3.31251 42.0401 3.31021 37.98C3.31021 34.38 4.00021 31.11 5.35021 28.26C9.34021 19.89 18.1902 14.46 27.8802 14.46C41.5302 14.46 52.6302 24.99 52.6302 37.95C52.6302 42.81 48.4902 46.77 43.3902 46.77C38.2902 46.77 34.1502 42.81 34.1502 37.95C34.1502 34.74 31.3602 32.13 27.9102 32.13C24.4602 32.13 21.6702 34.74 21.6702 37.95C21.6702 43.08 23.6502 47.88 27.2802 51.48C30.1302 54.3 32.8602 55.86 37.0902 57.03C37.9002 57.24 38.3502 58.08 38.1402 58.86C37.9902 59.55 37.3602 60 36.7302 60Z" />
</svg>
