<svg width="18" height="18" viewBox="0 0 18 18" fill="none" xmlns="http://www.w3.org/2000/svg">
<path d="M9.58862 13.1856C9.66728 13.264 9.72969 13.3572 9.77227 13.4597C9.81486 13.5623 9.83678 13.6722 9.83678 13.7833C9.83678 13.8943 9.81486 14.0043 9.77227 14.1069C9.72969 14.2094 9.66728 14.3026 9.58862 14.381L9.17096 14.7986C8.37954 15.59 7.30614 16.0346 6.1869 16.0346C5.06766 16.0346 3.99426 15.59 3.20284 14.7986C2.41141 14.0072 1.9668 12.9338 1.9668 11.8145C1.9668 10.6953 2.41141 9.62191 3.20284 8.83049L4.89877 7.13525C5.65919 6.37295 6.6823 5.93025 7.75854 5.89783C8.83478 5.86542 9.88268 6.24573 10.6876 6.96088C10.7707 7.03475 10.8384 7.12426 10.887 7.22431C10.9355 7.32435 10.9638 7.43298 10.9703 7.54397C10.9768 7.65497 10.9614 7.76616 10.925 7.8712C10.8886 7.97625 10.8318 8.07309 10.7579 8.15619C10.684 8.23929 10.5945 8.30703 10.4945 8.35554C10.3944 8.40405 10.2858 8.43237 10.1748 8.4389C10.0638 8.44543 9.95263 8.43003 9.84759 8.39359C9.74254 8.35715 9.6457 8.30037 9.5626 8.2265C9.07992 7.79783 8.45169 7.56977 7.80642 7.58898C7.16114 7.6082 6.5476 7.87323 6.09127 8.32986L4.39674 10.023C3.92196 10.4978 3.65524 11.1417 3.65524 11.8131C3.65524 12.4846 3.92196 13.1285 4.39674 13.6033C4.87152 14.0781 5.51546 14.3448 6.1869 14.3448C6.85834 14.3448 7.50228 14.0781 7.97705 13.6033L8.39471 13.1856C8.47307 13.1072 8.56613 13.045 8.66856 13.0025C8.77099 12.96 8.88078 12.9382 8.99166 12.9382C9.10255 12.9382 9.21234 12.96 9.31477 13.0025C9.4172 13.045 9.51025 13.1072 9.58862 13.1856ZM14.7974 3.20127C14.0053 2.41106 12.9321 1.96729 11.8133 1.96729C10.6945 1.96729 9.62131 2.41106 8.82924 3.20127L8.41159 3.61892C8.25308 3.77743 8.16403 3.99242 8.16403 4.21658C8.16403 4.44074 8.25308 4.65573 8.41159 4.81424C8.57009 4.97274 8.78508 5.06179 9.00924 5.06179C9.23341 5.06179 9.44839 4.97274 9.6069 4.81424L10.0246 4.39658C10.4993 3.9218 11.1433 3.65507 11.8147 3.65507C12.4861 3.65507 13.1301 3.9218 13.6049 4.39658C14.0796 4.87136 14.3464 5.5153 14.3464 6.18674C14.3464 6.85817 14.0796 7.50211 13.6049 7.97689L11.9096 9.67283C11.4529 10.1293 10.839 10.3939 10.1936 10.4126C9.54815 10.4313 8.91997 10.2026 8.4376 9.77338C8.3545 9.69951 8.25766 9.64273 8.15262 9.60629C8.04757 9.56984 7.93638 9.55445 7.82538 9.56098C7.71439 9.5675 7.60577 9.59583 7.50572 9.64434C7.40567 9.69285 7.31616 9.76059 7.24229 9.84369C7.16842 9.92679 7.11164 10.0236 7.0752 10.1287C7.03876 10.2337 7.02336 10.3449 7.02989 10.4559C7.03642 10.5669 7.06474 10.6755 7.11325 10.7756C7.16176 10.8756 7.2295 10.9651 7.3126 11.039C8.11696 11.754 9.16416 12.1345 10.2399 12.1028C11.3156 12.071 12.3385 11.6293 13.0993 10.8681L14.7953 9.17291C15.5864 8.38103 16.031 7.30758 16.0313 6.18823C16.0317 5.06887 15.5879 3.99511 14.7974 3.20267V3.20127Z" />
</svg>
