<svg width="33" height="27" viewBox="0 0 33 27" fill="none" xmlns="http://www.w3.org/2000/svg">
<path d="M10.5834 19.2333L28.0375 1.77918C28.5799 1.23682 29.2702 0.965637 30.1084 0.965637C30.9466 0.965637 31.6368 1.23682 32.1792 1.77918C32.7216 2.32154 32.9927 3.01182 32.9927 3.85001C32.9927 4.68821 32.7216 5.37849 32.1792 5.92085L12.6542 25.4458C12.0625 26.0375 11.3723 26.3333 10.5834 26.3333C9.79448 26.3333 9.1042 26.0375 8.51253 25.4458L0.820865 17.7542C0.278504 17.2118 0.00732422 16.5215 0.00732422 15.6833C0.00732422 14.8451 0.278504 14.1549 0.820865 13.6125C1.36323 13.0702 2.0535 12.799 2.8917 12.799C3.72989 12.799 4.42017 13.0702 4.96253 13.6125L10.5834 19.2333Z" />
</svg>
