<svg width="20" height="20" viewBox="0 0 20 20" fill="none" xmlns="http://www.w3.org/2000/svg">
<path d="M10 0C8.68678 0 7.38642 0.258658 6.17317 0.761205C4.95991 1.26375 3.85752 2.00035 2.92893 2.92893C1.05357 4.8043 0 7.34784 0 10C0 12.6522 1.05357 15.1957 2.92893 17.0711C3.85752 17.9997 4.95991 18.7362 6.17317 19.2388C7.38642 19.7413 8.68678 20 10 20C12.6522 20 15.1957 18.9464 17.0711 17.0711C18.9464 15.1957 20 12.6522 20 10C20 8.68678 19.7413 7.38642 19.2388 6.17317C18.7362 4.95991 17.9997 3.85752 17.0711 2.92893C16.1425 2.00035 15.0401 1.26375 13.8268 0.761205C12.6136 0.258658 11.3132 0 10 0ZM10 2C12.1217 2 14.1566 2.84285 15.6569 4.34315C17.1571 5.84344 18 7.87827 18 10C18 12.4 17 14.5 15.3 16C13.9 14.7 12 14 10 14C8 14 6.2 14.7 4.7 16C3 14.5 2 12.4 2 10C2 7.87827 2.84285 5.84344 4.34315 4.34315C5.84344 2.84285 7.87827 2 10 2ZM12 3.89C11.62 3.9 11.26 4.15 11.1 4.54L9.81 7.77L9.71 8C9 8.13 8.41 8.6 8.14 9.26C7.73 10.29 8.23 11.45 9.26 11.86C10.29 12.27 11.45 11.77 11.86 10.74C12.12 10.08 12 9.32 11.57 8.76L11.67 8.5L12.96 5.29L12.97 5.26C13.17 4.75 12.92 4.17 12.41 3.96C12.28 3.91 12.15 3.89 12 3.89ZM8 4C7.73478 4 7.48043 4.10536 7.29289 4.29289C7.10536 4.48043 7 4.73478 7 5C7 5.26522 7.10536 5.51957 7.29289 5.70711C7.48043 5.89464 7.73478 6 8 6C8.26522 6 8.51957 5.89464 8.70711 5.70711C8.89464 5.51957 9 5.26522 9 5C9 4.73478 8.89464 4.48043 8.70711 4.29289C8.51957 4.10536 8.26522 4 8 4ZM5 7C4.73478 7 4.48043 7.10536 4.29289 7.29289C4.10536 7.48043 4 7.73478 4 8C4 8.26522 4.10536 8.51957 4.29289 8.70711C4.48043 8.89464 4.73478 9 5 9C5.26522 9 5.51957 8.89464 5.70711 8.70711C5.89464 8.51957 6 8.26522 6 8C6 7.73478 5.89464 7.48043 5.70711 7.29289C5.51957 7.10536 5.26522 7 5 7ZM15 7C14.7348 7 14.4804 7.10536 14.2929 7.29289C14.1054 7.48043 14 7.73478 14 8C14 8.26522 14.1054 8.51957 14.2929 8.70711C14.4804 8.89464 14.7348 9 15 9C15.2652 9 15.5196 8.89464 15.7071 8.70711C15.8946 8.51957 16 8.26522 16 8C16 7.73478 15.8946 7.48043 15.7071 7.29289C15.5196 7.10536 15.2652 7 15 7Z" />
</svg>
