<svg width="28" height="28" viewBox="0 0 28 28" fill="none" xmlns="http://www.w3.org/2000/svg">
<path d="M18.9736 16.6696L16.7713 17.4046L11.3751 13.5502V6.44785L13.6108 4.95685L12.6395 3.50085L10.5001 4.9271L8.36076 3.50085L7.38951 4.95685L9.62513 6.44785V12.2999L5.25013 9.17523V6.99998H3.50013V8.9941L1.47363 9.6696L2.02663 11.3304L4.22901 10.5962L8.99513 14.0009L4.22901 17.4046L2.02663 16.6696L1.47363 18.3304L3.50013 19.0059V21H5.25013V18.8256L9.62513 15.701V21.5521L7.38951 23.0431L8.36076 24.4991L10.5001 23.072L12.6395 24.4991L13.6108 23.0431L11.3751 21.5521V15.7001L15.7501 18.8256V21H17.5001V19.0059L19.5266 18.3304L18.9736 16.6696Z" />
<path d="M26.173 12.1932L20.6745 2.07468C20.6202 1.97659 20.5405 1.89484 20.4439 1.83792C20.3473 1.781 20.2372 1.75098 20.125 1.75098C20.0129 1.75098 19.9028 1.781 19.8062 1.83792C19.7095 1.89484 19.6299 1.97659 19.5755 2.07468L14.077 12.1932C14.0247 12.2891 13.9981 12.3971 14.0001 12.5064C14.0021 12.6157 14.0324 12.7226 14.0882 12.8166C14.144 12.9106 14.2233 12.9884 14.3183 13.0425C14.4133 13.0966 14.5207 13.1251 14.63 13.1251H25.62C25.7293 13.1249 25.8366 13.0964 25.9315 13.0422C26.0264 12.9881 26.1055 12.9102 26.1612 12.8162C26.2169 12.7222 26.2472 12.6154 26.2491 12.5061C26.251 12.3969 26.2245 12.2891 26.1722 12.1932H26.173ZM19.4688 5.25006H20.7813V8.75006H19.4688V5.25006ZM20.125 11.3751C19.952 11.3751 19.7828 11.3237 19.6389 11.2276C19.495 11.1314 19.3829 10.9948 19.3166 10.8349C19.2504 10.675 19.2331 10.4991 19.2668 10.3294C19.3006 10.1596 19.3839 10.0037 19.5063 9.88134C19.6287 9.75897 19.7846 9.67563 19.9543 9.64187C20.1241 9.60811 20.3 9.62543 20.4599 9.69166C20.6198 9.75789 20.7564 9.87004 20.8526 10.0139C20.9487 10.1578 21 10.327 21 10.5001C21 10.7321 20.9078 10.9547 20.7438 11.1188C20.5797 11.2829 20.3571 11.3751 20.125 11.3751Z" />
</svg>
