<svg width="22" height="18" viewBox="0 0 22 18" fill="none" xmlns="http://www.w3.org/2000/svg">
<path d="M7.5 13H4.914L5.207 12.707C5.38916 12.5184 5.48995 12.2658 5.48767 12.0036C5.4854 11.7414 5.38023 11.4906 5.19482 11.3052C5.00941 11.1198 4.7586 11.0146 4.4964 11.0123C4.2342 11.01 3.9816 11.1108 3.793 11.293L1.793 13.293C1.6065 13.481 1.50186 13.7352 1.50186 14C1.50186 14.2648 1.6065 14.519 1.793 14.707L3.793 16.707C3.9816 16.8892 4.2342 16.99 4.4964 16.9877C4.7586 16.9854 5.00941 16.8802 5.19482 16.6948C5.38023 16.5094 5.4854 16.2586 5.48767 15.9964C5.48995 15.7342 5.38916 15.4816 5.207 15.293L4.914 15H7.5C7.76522 15 8.01957 14.8946 8.20711 14.7071C8.39464 14.5196 8.5 14.2652 8.5 14C8.5 13.7348 8.39464 13.4804 8.20711 13.2929C8.01957 13.1054 7.76522 13 7.5 13ZM20.207 13.293L18.207 11.293C18.0184 11.1108 17.7658 11.01 17.5036 11.0123C17.2414 11.0146 16.9906 11.1198 16.8052 11.3052C16.6198 11.4906 16.5146 11.7414 16.5123 12.0036C16.51 12.2658 16.6108 12.5184 16.793 12.707L17.086 13H14.5C14.2348 13 13.9804 13.1054 13.7929 13.2929C13.6054 13.4804 13.5 13.7348 13.5 14C13.5 14.2652 13.6054 14.5196 13.7929 14.7071C13.9804 14.8946 14.2348 15 14.5 15H17.086L16.793 15.293C16.6975 15.3852 16.6213 15.4956 16.5689 15.6176C16.5165 15.7396 16.4889 15.8708 16.4877 16.0036C16.4866 16.1364 16.5119 16.2681 16.5622 16.391C16.6125 16.5138 16.6867 16.6255 16.7806 16.7194C16.8745 16.8133 16.9862 16.8875 17.109 16.9378C17.2319 16.9881 17.3636 17.0134 17.4964 17.0123C17.6292 17.0111 17.7604 16.9835 17.8824 16.9311C18.0044 16.8787 18.1148 16.8025 18.207 16.707L20.207 14.707C20.3935 14.519 20.4981 14.2648 20.4981 14C20.4981 13.7352 20.3935 13.481 20.207 13.293ZM19.64 5.772C20.1912 5.14313 20.4966 4.33625 20.5 3.5C20.5 2.57174 20.1313 1.6815 19.4749 1.02513C18.8185 0.368749 17.9283 0 17 0C16.0717 0 15.1815 0.368749 14.5251 1.02513C13.8687 1.6815 13.5 2.57174 13.5 3.5C13.5034 4.33625 13.8088 5.14313 14.36 5.772C13.64 6.21834 13.0455 6.84071 12.6326 7.58043C12.2197 8.32015 12.002 9.15285 12 10C12 10.2652 12.1054 10.5196 12.2929 10.7071C12.4804 10.8946 12.7348 11 13 11C13.2652 11 13.5196 10.8946 13.7071 10.7071C13.8946 10.5196 14 10.2652 14 10C14 9.20435 14.3161 8.44129 14.8787 7.87868C15.4413 7.31607 16.2044 7 17 7C17.7956 7 18.5587 7.31607 19.1213 7.87868C19.6839 8.44129 20 9.20435 20 10C20 10.2652 20.1054 10.5196 20.2929 10.7071C20.4804 10.8946 20.7348 11 21 11C21.2652 11 21.5196 10.8946 21.7071 10.7071C21.8946 10.5196 22 10.2652 22 10C21.998 9.15285 21.7803 8.32015 21.3674 7.58043C20.9545 6.84071 20.36 6.21834 19.64 5.772ZM17 5C16.7033 5 16.4133 4.91203 16.1666 4.7472C15.92 4.58238 15.7277 4.34811 15.6142 4.07403C15.5007 3.79994 15.4709 3.49834 15.5288 3.20736C15.5867 2.91639 15.7296 2.64912 15.9393 2.43934C16.1491 2.22956 16.4164 2.0867 16.7074 2.02882C16.9983 1.97094 17.2999 2.00065 17.574 2.11418C17.8481 2.22771 18.0824 2.41997 18.2472 2.66664C18.412 2.91332 18.5 3.20333 18.5 3.5C18.4995 3.89766 18.3413 4.27889 18.0601 4.56008C17.7789 4.84127 17.3977 4.99947 17 5ZM7.64 5.772C8.19122 5.14313 8.49664 4.33625 8.5 3.5C8.5 2.57174 8.13125 1.6815 7.47487 1.02513C6.8185 0.368749 5.92826 0 5 0C4.07174 0 3.1815 0.368749 2.52513 1.02513C1.86875 1.6815 1.5 2.57174 1.5 3.5C1.50336 4.33625 1.80878 5.14313 2.36 5.772C1.63996 6.21834 1.04546 6.84071 0.632558 7.58043C0.219658 8.32015 0.00196256 9.15285 0 10C0 10.2652 0.105357 10.5196 0.292893 10.7071C0.48043 10.8946 0.734784 11 1 11C1.26522 11 1.51957 10.8946 1.70711 10.7071C1.89464 10.5196 2 10.2652 2 10C2 9.20435 2.31607 8.44129 2.87868 7.87868C3.44129 7.31607 4.20435 7 5 7C5.79565 7 6.55871 7.31607 7.12132 7.87868C7.68393 8.44129 8 9.20435 8 10C8 10.2652 8.10536 10.5196 8.29289 10.7071C8.48043 10.8946 8.73478 11 9 11C9.26522 11 9.51957 10.8946 9.70711 10.7071C9.89464 10.5196 10 10.2652 10 10C9.99804 9.15285 9.78034 8.32015 9.36744 7.58043C8.95454 6.84071 8.36004 6.21834 7.64 5.772ZM5 5C4.70333 5 4.41332 4.91203 4.16664 4.7472C3.91997 4.58238 3.72771 4.34811 3.61418 4.07403C3.50065 3.79994 3.47094 3.49834 3.52882 3.20736C3.5867 2.91639 3.72956 2.64912 3.93934 2.43934C4.14912 2.22956 4.41639 2.0867 4.70736 2.02882C4.99834 1.97094 5.29994 2.00065 5.57403 2.11418C5.84811 2.22771 6.08238 2.41997 6.2472 2.66664C6.41203 2.91332 6.5 3.20333 6.5 3.5C6.49947 3.89766 6.34127 4.27889 6.06008 4.56008C5.77889 4.84127 5.39766 4.99947 5 5Z" />
</svg>
