<svg width="20" height="17" viewBox="0 0 20 17" fill="none" xmlns="http://www.w3.org/2000/svg">
<path d="M18.9999 3C19.2547 3.00028 19.4999 3.09788 19.6852 3.27285C19.8706 3.44782 19.9821 3.68695 19.997 3.94139C20.012 4.19584 19.9292 4.44638 19.7656 4.64183C19.602 4.83729 19.37 4.9629 19.1169 4.993L18.9999 5V15C19.2547 15.0003 19.4999 15.0979 19.6852 15.2728C19.8706 15.4478 19.9821 15.687 19.997 15.9414C20.012 16.1958 19.9292 16.4464 19.7656 16.6418C19.602 16.8373 19.37 16.9629 19.1169 16.993L18.9999 17H0.999869C0.744989 16.9997 0.499837 16.9021 0.3145 16.7272C0.129164 16.5522 0.0176337 16.313 0.0026966 16.0586C-0.0122405 15.8042 0.0705433 15.5536 0.234134 15.3582C0.397724 15.1627 0.629773 15.0371 0.882869 15.007L0.999869 15V5C0.744989 4.99972 0.499837 4.90212 0.3145 4.72715C0.129164 4.55218 0.0176337 4.31305 0.0026966 4.05861C-0.0122405 3.80416 0.0705433 3.55362 0.234134 3.35817C0.397724 3.16271 0.629773 3.0371 0.882869 3.007L0.999869 3H18.9999ZM16.9999 5H2.99987V15H4.99987V8C4.99987 7.73478 5.10523 7.48043 5.29276 7.29289C5.4803 7.10536 5.73465 7 5.99987 7C6.26509 7 6.51944 7.10536 6.70698 7.29289C6.89451 7.48043 6.99987 7.73478 6.99987 8V15H8.99987V8C8.99987 7.73478 9.10523 7.48043 9.29276 7.29289C9.4803 7.10536 9.73465 7 9.99987 7C10.2651 7 10.5194 7.10536 10.707 7.29289C10.8945 7.48043 10.9999 7.73478 10.9999 8V15H12.9999V8C12.9999 7.73478 13.1052 7.48043 13.2928 7.29289C13.4803 7.10536 13.7347 7 13.9999 7C14.2651 7 14.5194 7.10536 14.707 7.29289C14.8945 7.48043 14.9999 7.73478 14.9999 8V15H16.9999V5ZM15.9999 0C16.2651 0 16.5194 0.105357 16.707 0.292893C16.8945 0.48043 16.9999 0.734784 16.9999 1C16.9999 1.26522 16.8945 1.51957 16.707 1.70711C16.5194 1.89464 16.2651 2 15.9999 2H3.99987C3.73465 2 3.4803 1.89464 3.29276 1.70711C3.10523 1.51957 2.99987 1.26522 2.99987 1C2.99987 0.734784 3.10523 0.48043 3.29276 0.292893C3.4803 0.105357 3.73465 0 3.99987 0H15.9999Z" />
</svg>
