<svg width="13" height="7" viewBox="0 0 13 7" fill="none" xmlns="http://www.w3.org/2000/svg">
<path d="M7.34894 0.251174C7.49931 0.107045 7.69941 0.0273639 7.90701 0.0289454C8.11462 0.030527 8.3135 0.113247 8.46168 0.259651C8.60986 0.406055 8.69576 0.604692 8.70125 0.813647C8.70674 1.0226 8.63139 1.22553 8.49109 1.37961L4.23205 6.74239C4.15881 6.82181 4.07042 6.88554 3.97216 6.92978C3.8739 6.97402 3.76779 6.99785 3.66017 6.99986C3.55256 7.00187 3.44564 6.982 3.34582 6.94146C3.246 6.90091 3.15533 6.84052 3.07922 6.76388L0.254804 3.92021C0.176149 3.84642 0.113061 3.75744 0.0693053 3.65857C0.0255492 3.55969 0.00202118 3.45296 0.000124592 3.34473C-0.001772 3.23651 0.0180018 3.12901 0.0582663 3.02864C0.0985308 2.92828 0.158461 2.83711 0.234482 2.76057C0.310503 2.68403 0.401057 2.62369 0.500743 2.58315C0.600428 2.54261 0.707202 2.5227 0.814695 2.52461C0.922188 2.52652 1.0282 2.55021 1.1264 2.59426C1.2246 2.63832 1.31299 2.70184 1.38628 2.78103L3.62148 5.03038L7.32759 0.274818C7.33424 0.266521 7.34137 0.258626 7.34894 0.251174ZM6.36691 5.77515L7.34894 6.76388C7.42503 6.84035 7.51564 6.9006 7.61536 6.94105C7.71508 6.9815 7.82186 7.00131 7.92935 6.9993C8.03684 6.9973 8.14283 6.97352 8.24099 6.92938C8.33915 6.88524 8.42748 6.82164 8.5007 6.74239L12.7619 1.37961C12.8384 1.30353 12.899 1.21269 12.9399 1.11252C12.9808 1.01236 13.0012 0.904923 12.9999 0.79663C12.9987 0.688338 12.9758 0.581411 12.9326 0.482234C12.8894 0.383057 12.8267 0.293664 12.7484 0.219395C12.6702 0.145125 12.5778 0.0875008 12.4769 0.0499639C12.376 0.0124271 12.2686 -0.00425301 12.1612 0.000920093C12.0537 0.00609319 11.9484 0.0330136 11.8516 0.080073C11.7547 0.127132 11.6682 0.193366 11.5973 0.274818L7.89013 5.03038L7.37243 4.50808L6.36584 5.77515H6.36691Z" />
</svg>
