<svg width="20" height="30" viewBox="0 0 20 30" fill="none" xmlns="http://www.w3.org/2000/svg">
<path d="M12.4417 1.89615L10.3263 13.0107L17.9899 13.0365L7.55831 28.104L9.67378 15.8761L2.01066 15.8494L12.4417 1.89615ZM12.4432 0.0211768C12.3925 0.0211768 12.3419 0.0230225 12.2922 0.0267432C11.9613 0.0534912 11.7419 0.164116 11.4818 0.33896C11.3353 0.436618 11.2032 0.554326 11.0894 0.688647C11.0553 0.728962 11.023 0.770884 10.9928 0.814272L0.48675 14.7188C0.0719058 15.2874 0.0109683 16.0379 0.329718 16.6651C0.648 17.2923 1.29159 17.6898 1.99706 17.6949L7.40925 17.7343L5.70769 27.7595C5.54597 28.621 6.00534 29.4798 6.81394 29.8257C7.04892 29.9267 7.30204 29.9787 7.55781 29.9785C8.14703 29.9785 8.63125 29.7029 8.99456 29.2051L19.5138 14.1376C19.9286 13.5689 19.9891 12.8175 19.6708 12.1913C19.3525 11.5641 18.7089 11.1666 18.0035 11.1614L12.5913 11.1521L14.2746 2.33721C14.3102 2.1929 14.3282 2.04478 14.328 1.89612C14.328 0.881743 13.5203 0.0548682 12.5097 0.0220557C12.4872 0.0211182 12.4652 0.0211182 12.4432 0.0211182L12.4432 0.0211768Z" />
</svg>
