<svg width="13" height="15" viewBox="0 0 13 15" fill="none" xmlns="http://www.w3.org/2000/svg">
<path d="M12.125 13.125V4.21875L7.90625 0H2.75C2.25272 0 1.77581 0.197544 1.42417 0.549175C1.07254 0.900806 0.875 1.37772 0.875 1.875V13.125C0.875 13.6223 1.07254 14.0992 1.42417 14.4508C1.77581 14.8025 2.25272 15 2.75 15H10.25C10.7473 15 11.2242 14.8025 11.5758 14.4508C11.9275 14.0992 12.125 13.6223 12.125 13.125ZM7.90625 2.8125C7.90625 3.18546 8.05441 3.54315 8.31813 3.80687C8.58185 4.07059 8.93954 4.21875 9.3125 4.21875H11.1875V13.125C11.1875 13.3736 11.0887 13.6121 10.9129 13.7879C10.7371 13.9637 10.4986 14.0625 10.25 14.0625H2.75C2.50136 14.0625 2.2629 13.9637 2.08709 13.7879C1.91127 13.6121 1.8125 13.3736 1.8125 13.125V1.875C1.8125 1.62636 1.91127 1.3879 2.08709 1.21209C2.2629 1.03627 2.50136 0.9375 2.75 0.9375H7.90625V2.8125Z" />
<path d="M3.31541 13.2066C3.13268 13.1335 2.98546 12.9923 2.90478 12.8128C2.72197 12.4491 2.78291 12.0853 2.97978 11.7797C3.16541 11.4919 3.47291 11.2472 3.82072 11.0419C4.26129 10.792 4.72699 10.5893 5.21009 10.4372C5.58527 9.76273 5.9178 9.06542 6.20572 8.34936C6.03357 7.95821 5.8986 7.55173 5.80259 7.1353C5.72197 6.7603 5.69103 6.38905 5.75947 6.0703C5.82978 5.73843 6.01634 5.4403 6.36884 5.29874C6.54884 5.22655 6.74384 5.18624 6.93322 5.22655C7.02848 5.24683 7.11803 5.28806 7.19538 5.34725C7.27273 5.40643 7.33593 5.48209 7.38041 5.56874C7.46291 5.72249 7.49291 5.90249 7.49947 6.07312C7.50603 6.24937 7.48822 6.44437 7.45541 6.64874C7.37666 7.12686 7.20228 7.71186 6.96791 8.33061C7.22655 8.88376 7.53402 9.41273 7.88666 9.91124C8.30394 9.87828 8.72364 9.89401 9.13728 9.95811C9.47853 10.02 9.82541 10.1409 10.0373 10.3941C10.1498 10.5291 10.2182 10.6941 10.2248 10.8797C10.2313 11.0597 10.1807 11.2378 10.0954 11.4075C10.0215 11.5647 9.90693 11.6994 9.76353 11.7975C9.62179 11.89 9.45444 11.9352 9.28541 11.9269C8.97509 11.9137 8.67228 11.7431 8.41072 11.5359C8.09266 11.273 7.80607 10.9741 7.55666 10.6453C6.92267 10.7173 6.29622 10.8446 5.68447 11.0259C5.40432 11.5228 5.08454 11.9962 4.72822 12.4416C4.45447 12.7697 4.15728 13.0566 3.85916 13.1794C3.68786 13.2569 3.49357 13.2666 3.31541 13.2066ZM4.60822 11.4244C4.45259 11.4956 4.30822 11.5706 4.17791 11.6475C3.87041 11.8294 3.67072 12.0066 3.57134 12.1603C3.48322 12.2962 3.48134 12.3947 3.53384 12.4987C3.54322 12.5194 3.55259 12.5325 3.55822 12.54C3.5694 12.537 3.58037 12.5332 3.59103 12.5287C3.71947 12.4762 3.92384 12.3084 4.18634 11.9925C4.33564 11.8097 4.47641 11.6201 4.60822 11.4244ZM6.14572 10.1775C6.45877 10.1044 6.77466 10.0441 7.09259 9.99655C6.92189 9.73532 6.76237 9.46696 6.61447 9.19218C6.46742 9.52461 6.31111 9.85286 6.14572 10.1766V10.1775ZM8.43884 10.5994C8.57947 10.7522 8.71634 10.8806 8.84666 10.9837C9.07166 11.1619 9.22822 11.2209 9.31353 11.2237C9.33637 11.2267 9.35955 11.2218 9.37916 11.2097C9.41816 11.1789 9.44852 11.1385 9.46728 11.0925C9.50061 11.0354 9.51959 10.971 9.52259 10.905C9.52205 10.883 9.51337 10.8619 9.49822 10.8459C9.44947 10.7878 9.31072 10.7034 9.01259 10.65C8.82296 10.6183 8.63111 10.6017 8.43884 10.6003V10.5994ZM6.57322 7.31249C6.65212 7.05798 6.71475 6.79871 6.76072 6.53624C6.78978 6.35999 6.80103 6.21468 6.79634 6.1003C6.7966 6.0372 6.78647 5.97449 6.76634 5.91468C6.71945 5.92048 6.67365 5.93312 6.63041 5.95218C6.54884 5.98499 6.48228 6.05155 6.44666 6.21749C6.40916 6.39749 6.41853 6.65718 6.48978 6.98811C6.51228 7.09218 6.54041 7.20093 6.57416 7.31249H6.57322Z" />
</svg>
