<svg width="12" height="14" viewBox="0 0 12 14" fill="none" xmlns="http://www.w3.org/2000/svg">
<path d="M1.5 12.25H3.75V7.75H8.25V12.25H10.5V5.5L6 2.125L1.5 5.5V12.25ZM1.5 13.75C1.0875 13.75 0.734251 13.603 0.440251 13.309C0.146251 13.015 -0.000498727 12.662 1.27335e-06 12.25V5.5C1.27335e-06 5.2625 0.0532511 5.0375 0.159751 4.825C0.266251 4.6125 0.413001 4.4375 0.600001 4.3L5.1 0.925C5.2375 0.825 5.38125 0.75 5.53125 0.7C5.68125 0.65 5.8375 0.625 6 0.625C6.1625 0.625 6.31875 0.65 6.46875 0.7C6.61875 0.75 6.7625 0.825 6.9 0.925L11.4 4.3C11.5875 4.4375 11.7345 4.6125 11.841 4.825C11.9475 5.0375 12.0005 5.2625 12 5.5V12.25C12 12.6625 11.853 13.0157 11.559 13.3097C11.265 13.6038 10.912 13.7505 10.5 13.75H6.75V9.25H5.25V13.75H1.5Z"/>
</svg>
