<svg width="17" height="17" viewBox="0 0 22 16" fill="none" xmlns="http://www.w3.org/2000/svg">
<path d="M5.5 16C3.98333 16 2.68733 15.475 1.612 14.425C0.536667 13.375 -0.000666047 12.0916 6.19579e-07 10.575C6.19579e-07 9.27498 0.391667 8.11664 1.175 7.09998C1.95833 6.08331 2.98333 5.43331 4.25 5.14998C4.53333 3.94998 5.24167 2.80831 6.375 1.72498C7.50833 0.641642 8.71667 0.0999756 10 0.0999756C10.55 0.0999756 11.021 0.295976 11.413 0.687976C11.805 1.07998 12.0007 1.55064 12 2.09998V8.14997L12.9 7.27498C13.0833 7.09164 13.3127 6.99998 13.588 6.99998C13.8633 6.99998 14.1007 7.09998 14.3 7.29998C14.4833 7.48331 14.575 7.71664 14.575 7.99998C14.575 8.28331 14.4833 8.51664 14.3 8.69998L11.7 11.3C11.6 11.4 11.4917 11.471 11.375 11.513C11.2583 11.555 11.1333 11.5756 11 11.575C10.8667 11.575 10.7417 11.5543 10.625 11.513C10.5083 11.4716 10.4 11.4006 10.3 11.3L7.7 8.69998C7.51667 8.51664 7.421 8.28764 7.413 8.01298C7.405 7.73831 7.50067 7.50064 7.7 7.29998C7.88333 7.11664 8.11267 7.02064 8.388 7.01198C8.66333 7.00331 8.90067 7.09098 9.1 7.27498L10 8.14997V2.09998C8.73333 2.33331 7.75 2.94598 7.05 3.93798C6.35 4.92998 6 5.95064 6 6.99998H5.5C4.53333 6.99998 3.70833 7.34164 3.025 8.02498C2.34167 8.70831 2 9.53331 2 10.5C2 11.4666 2.34167 12.2916 3.025 12.975C3.70833 13.6583 4.53333 14 5.5 14H17.5C18.2 14 18.7917 13.7583 19.275 13.275C19.7583 12.7916 20 12.2 20 11.5C20 10.8 19.7583 10.2083 19.275 9.72498C18.7917 9.24164 18.2 8.99998 17.5 8.99998H16V6.99998C16 6.19998 15.8167 5.45398 15.45 4.76198C15.0833 4.06998 14.6 3.48264 14 2.99998V0.674976C15.2333 1.25831 16.2083 2.12098 16.925 3.26298C17.6417 4.40498 18 5.65064 18 6.99998C19.15 7.13331 20.1043 7.62931 20.863 8.48798C21.6217 9.34664 22.0007 10.3506 22 11.5C22 12.75 21.5623 13.8126 20.687 14.688C19.8117 15.5633 18.7493 16.0006 17.5 16H5.5Z" />
</svg>
