<svg width="17" height="17" viewBox="0 0 24 24" fill="none" xmlns="http://www.w3.org/2000/svg">
<path d="M17.9997 4H5.99969C4.89469 4 3.97369 4.91 4.24669 5.98C4.53732 7.11389 5.07269 8.1704 5.81521 9.07531C6.55772 9.98021 7.48936 10.7116 8.54469 11.218C9.36769 11.612 9.99969 12.386 9.99969 13.298V19.382C9.99978 19.5524 10.0434 19.7199 10.1264 19.8687C10.2095 20.0175 10.3291 20.1426 10.4741 20.2322C10.619 20.3218 10.7845 20.3728 10.9547 20.3805C11.1249 20.3881 11.2943 20.3522 11.4467 20.276L13.4467 19.276C13.6128 19.193 13.7525 19.0654 13.8501 18.9075C13.9478 18.7496 13.9996 18.5677 13.9997 18.382V13.298C13.9997 12.386 14.6317 11.612 15.4537 11.218C16.5094 10.7119 17.4415 9.98062 18.1844 9.0757C18.9272 8.17077 19.4629 7.11411 19.7537 5.98C20.0247 4.91 19.1027 4 17.9997 4Z" />
</svg>
