<svg width="17" height="17" viewBox="0 0 22 16" fill="none" xmlns="http://www.w3.org/2000/svg">
<path d="M5.99996 15C4.75223 15 3.55561 14.5258 2.67334 13.6819C1.79107 12.838 1.29541 11.6934 1.29541 10.5C1.29541 9.30648 1.79107 8.16188 2.67334 7.31797C3.55561 6.47406 4.75223 5.99995 5.99996 5.99995C6.29464 4.68713 7.15672 3.53343 8.39654 2.79267C9.01044 2.42587 9.6986 2.1715 10.4217 2.04406C11.1449 1.91663 11.8888 1.91863 12.6111 2.04995C13.3333 2.18127 14.0198 2.43934 14.6312 2.80943C15.2427 3.17952 15.7672 3.65437 16.1747 4.20688C16.5823 4.75939 16.8649 5.37873 17.0065 6.02955C17.1481 6.68036 17.1459 7.34991 17 7.99995H18C18.9282 7.99995 19.8185 8.3687 20.4748 9.02508C21.1312 9.68146 21.5 10.5717 21.5 11.5C21.5 12.4282 21.1312 13.3184 20.4748 13.9748C19.8185 14.6312 18.9282 15 18 15H17" stroke-width="2" stroke-linecap="round" stroke-linejoin="round"/>
<path d="M8 12L11 9M11 9L14 12M11 9V18" stroke-width="2" stroke-linecap="round" stroke-linejoin="round"/>
</svg>
