<svg width="18" height="18" viewBox="0 0 18 18" fill="none" xmlns="http://www.w3.org/2000/svg">
<path d="M9 12L12 9M12 9L9 6M12 9H1M1 4.248V4.2C1 3.08 1 2.52 1.218 2.092C1.41 1.715 1.715 1.41 2.092 1.218C2.52 1 3.08 1 4.2 1H13.8C14.92 1 15.48 1 15.907 1.218C16.284 1.41 16.59 1.715 16.782 2.092C17 2.519 17 3.079 17 4.197V13.804C17 14.922 17 15.481 16.782 15.908C16.5899 16.2844 16.2836 16.5903 15.907 16.782C15.48 17 14.921 17 13.803 17H4.197C3.079 17 2.519 17 2.092 16.782C1.71569 16.5903 1.40974 16.2843 1.218 15.908C1 15.48 1 14.92 1 13.8V13.75" stroke-width="1.6" stroke-linecap="round" stroke-linejoin="round"/>
</svg>
