<svg width="80" height="80" viewBox="0 0 80 80" fill="none" xmlns="http://www.w3.org/2000/svg">
<path d="M76.2501 37.5C76.2452 33.1917 74.5315 29.0613 71.4851 26.015C68.4387 22.9686 64.3084 21.2549 60.0001 21.25H47.6001C46.5251 21.1843 31.1626 20 16.5189 7.71871C15.6079 6.95392 14.4977 6.46494 13.3185 6.30919C12.1394 6.15344 10.9403 6.33739 9.862 6.83944C8.78374 7.34149 7.87113 8.14079 7.23134 9.14346C6.59155 10.1461 6.25115 11.3106 6.25012 12.5V62.5C6.2426 63.6907 6.57886 64.8584 7.21853 65.8628C7.8582 66.8672 8.77412 67.6657 9.85637 68.1625C10.934 68.6712 12.1353 68.8589 13.3168 68.7032C14.4982 68.5475 15.6099 68.0549 16.5189 67.2843C24.0143 60.9833 32.9318 56.6029 42.5001 54.5218V62.7093C42.5 63.738 42.7537 64.7509 43.2389 65.658C43.7241 66.5651 44.4256 67.3384 45.2814 67.9093C45.4201 68.0028 45.5652 68.0864 45.7157 68.1593L50.2282 70.3656C51.0623 70.8649 52.0014 71.1627 52.9707 71.2355C53.9401 71.3082 54.9131 71.1539 55.8123 70.7846C56.7116 70.4154 57.5123 69.8415 58.1509 69.1086C58.7894 68.3756 59.2482 67.5038 59.4907 66.5625L62.9564 53.4937C66.6906 52.7985 70.0639 50.8189 72.4919 47.8978C74.9198 44.9767 76.2494 41.2983 76.2501 37.5ZM13.7501 59.8843V15.125C25.0532 23.8968 36.3032 27.0312 42.5001 28.1437V46.875C36.3032 47.975 25.0532 51.1093 13.7501 59.8843ZM52.622 63.1875L50.0001 61.9062V53.75H55.1251L52.622 63.1875ZM60.0001 46.25H50.0001V28.75H60.0001C62.3208 28.75 64.5464 29.6718 66.1873 31.3128C67.8283 32.9537 68.7501 35.1793 68.7501 37.5C68.7501 39.8206 67.8283 42.0462 66.1873 43.6872C64.5464 45.3281 62.3208 46.25 60.0001 46.25Z" />
</svg>
