<svg width="1332" height="686" viewBox="0 0 1332 686" fill="none" xmlns="http://www.w3.org/2000/svg">
<path d="M850.873 261.582C850.734 261.582 850.594 261.577 850.455 261.568C841.24 260.976 809.711 256.516 790.882 223.959C789.491 221.556 789.765 218.498 791.566 216.352C807.291 203.563 819.574 189.722 826.825 174.343C828.134 172.782 830.099 171.93 832.088 171.965C834.129 172.013 836.011 172.974 837.25 174.602C846.19 186.349 863.839 207.145 881.598 214.435C883.594 215.256 885.039 216.92 885.562 219.005C886.082 221.072 885.601 223.203 884.244 224.851L855.998 259.149C854.728 260.692 852.836 261.582 850.873 261.582Z" fill="#E6E6E6"/>
<path d="M797.395 218.418C796.914 218.992 796.826 219.811 797.177 220.458C814.211 251.825 844.666 254.286 850.598 254.461C851.169 254.493 851.704 254.236 852.067 253.796L880.11 219.745C880.507 219.262 880.63 218.646 880.447 218.051C880.263 217.454 879.81 217.009 879.204 216.834C860.158 211.267 840.174 185.485 834.503 177.715C834.172 177.261 833.659 176.989 833.099 176.97C832.522 176.965 831.997 177.191 831.63 177.628C823.516 193.449 812.155 207.08 797.395 218.418Z" fill="white"/>
<path d="M811.516 225.765L836.936 199.847C838.674 198.075 835.952 195.348 834.212 197.122L808.792 223.041C807.054 224.812 809.777 227.539 811.516 225.765Z" fill="#E6E6E6"/>
<path d="M826.859 233.067C833.875 226.779 839.971 219.498 844.964 211.509C846.281 209.4 842.949 207.464 841.637 209.564C836.81 217.288 830.917 224.264 824.135 230.343C822.285 232.001 825.017 234.719 826.859 233.067Z" fill="#E6E6E6"/>
<path d="M840.687 241.811C847.074 234.735 852.511 226.838 856.792 218.32C857.902 216.11 854.58 214.157 853.465 216.375C849.329 224.606 844.135 232.249 837.962 239.086C836.304 240.923 839.021 243.656 840.687 241.811Z" fill="#E6E6E6"/>
<path d="M708.226 566C708.034 566 707.841 565.993 707.648 565.981C694.898 565.162 651.274 558.991 625.22 513.943C623.295 510.618 623.675 506.387 626.167 503.418C646.837 485.489 662.4 465.884 674.952 445.292C676.764 443.133 679.483 441.953 682.234 442.001C685.059 442.068 687.663 443.398 689.377 445.651C701.746 461.905 726.167 490.678 750.739 500.766C753.501 501.901 755.5 504.204 756.224 507.088C756.944 509.948 756.278 512.896 754.399 515.177L715.317 562.633C713.56 564.768 710.943 566 708.226 566Z" fill="#E6E6E6"/>
<path d="M634.232 506.276C633.567 507.071 633.445 508.204 633.93 509.099C657.5 552.5 699.638 555.905 707.846 556.146C708.636 556.191 709.377 555.836 709.879 555.226L748.681 508.112C749.23 507.444 749.399 506.592 749.147 505.769C748.891 504.943 748.265 504.327 747.427 504.084C721.074 496.382 693.423 460.709 685.577 449.958C685.118 449.33 684.409 448.953 683.633 448.927C682.836 448.92 682.109 449.233 681.602 449.837C668.152 472.186 653.022 491.996 634.232 506.276Z" fill="white"/>
<path d="M653.771 516.442L688.943 480.58C691.347 478.129 687.581 474.356 685.173 476.81L650.001 512.673C647.597 515.124 651.363 518.897 653.771 516.442Z" fill="#E6E6E6"/>
<path d="M675 526.546C684.707 517.845 693.143 507.771 700.05 496.717C701.873 493.799 697.263 491.12 695.447 494.026C688.769 504.713 680.614 514.365 671.231 522.776C668.67 525.071 672.451 528.831 675 526.546Z" fill="#E6E6E6"/>
<path d="M694.132 538.644C702.97 528.854 710.493 517.927 716.416 506.141C717.953 503.083 713.355 500.381 711.813 503.45C706.09 514.838 698.903 525.413 690.363 534.874C688.069 537.415 691.827 541.197 694.132 538.644Z" fill="#E6E6E6"/>
<path d="M1298.29 175.99C1298.16 176.032 1298.02 176.07 1297.89 176.104C1288.93 178.348 1257.54 183.709 1229.69 158.439C1227.63 156.574 1226.96 153.578 1228.02 150.986C1238.3 134.092 1244.69 117.169 1248.8 100.229C1249.57 98.3443 1251.18 96.9332 1253.09 96.3606C1255.05 95.7843 1257.13 96.1266 1258.81 97.2995C1270.9 105.763 1294.05 120.19 1313.18 121.722C1315.34 121.895 1317.22 123.04 1318.35 124.866C1319.48 126.676 1319.67 128.852 1318.88 130.836L1302.43 172.11C1301.69 173.967 1300.16 175.391 1298.29 175.99Z" fill="#E6E6E6"/>
<path d="M1234.2 151.177C1233.92 151.87 1234.08 152.677 1234.61 153.187C1260.4 177.87 1290.15 170.933 1295.86 169.291C1296.41 169.148 1296.84 168.74 1297.05 168.21L1313.39 127.232C1313.62 126.651 1313.55 126.027 1313.19 125.517C1312.83 125.004 1312.27 124.718 1311.64 124.736C1291.8 125.239 1264.91 106.774 1257.14 101.101C1256.68 100.77 1256.11 100.667 1255.57 100.82C1255.02 100.99 1254.59 101.366 1254.38 101.893C1250.04 120.24 1243.99 137.209 1234.2 151.177Z" fill="white"/>
<path d="M1249.89 153.871L1266.2 121.438C1267.32 119.221 1263.89 117.454 1262.78 119.674L1246.46 152.106C1245.35 154.323 1248.77 156.091 1249.89 153.871Z" fill="#E6E6E6"/>
<path d="M1266.73 156.15C1271.49 148.023 1275.08 139.23 1277.4 130.1C1278.01 127.69 1274.25 126.861 1273.64 129.262C1271.4 138.089 1267.91 146.529 1263.3 154.385C1262.05 156.529 1265.48 158.284 1266.73 156.15Z" fill="#E6E6E6"/>
<path d="M1282.56 160.263C1286.49 151.578 1289.26 142.399 1290.74 132.982C1291.13 130.539 1287.37 129.691 1286.98 132.144C1285.55 141.243 1282.93 150.105 1279.14 158.499C1278.12 160.753 1281.54 162.529 1282.56 160.263Z" fill="#E6E6E6"/>
<path d="M85.2893 666.989C85.1567 667.032 85.0225 667.07 84.8867 667.104C75.9304 669.348 44.5421 674.709 16.6858 649.439C14.6287 647.574 13.9584 644.578 15.0192 641.986C25.2991 625.092 31.6936 608.169 35.798 591.229C36.5697 589.344 38.181 587.933 40.0857 587.36C42.0452 586.784 44.13 587.126 45.8064 588.299C57.9007 596.763 81.0483 611.19 100.184 612.722C102.335 612.895 104.219 614.04 105.353 615.866C106.478 617.676 106.669 619.852 105.878 621.835L89.4287 663.11C88.6894 664.967 87.1593 666.391 85.2893 666.989Z" fill="#E6E6E6"/>
<path d="M21.2005 642.176C20.9174 642.87 21.0834 643.677 21.6145 644.187C47.398 668.87 77.1538 661.932 82.8567 660.291C83.4107 660.148 83.8424 659.739 84.0535 659.21L100.385 618.232C100.616 617.651 100.545 617.027 100.19 616.517C99.8325 616.004 99.2656 615.718 98.6351 615.735C78.7986 616.239 51.9082 597.773 44.139 592.101C43.6846 591.77 43.1137 591.667 42.574 591.82C42.0234 591.99 41.5925 592.366 41.3761 592.893C37.0404 611.239 30.9894 628.209 21.2005 642.176Z" fill="white"/>
<path d="M36.8892 644.871L53.201 612.438C54.3161 610.221 50.8923 608.454 49.7758 610.674L33.464 643.106C32.349 645.323 35.7728 647.091 36.8892 644.871Z" fill="#E6E6E6"/>
<path d="M53.7278 647.15C58.4933 639.023 62.0809 630.23 64.4007 621.1C65.0131 618.69 61.2493 617.861 60.6394 620.261C58.3966 629.089 54.9092 637.529 50.3026 645.385C49.0457 647.529 52.4762 649.284 53.7278 647.15Z" fill="#E6E6E6"/>
<path d="M69.5624 651.263C73.4896 642.577 76.2615 633.399 77.7424 623.982C78.1266 621.539 74.3667 620.691 73.9811 623.143C72.5502 632.242 69.9324 641.105 66.1372 649.499C65.1179 651.753 68.5381 653.528 69.5624 651.263Z" fill="#E6E6E6"/>
<path d="M208.186 272.434C208.037 272.395 207.889 272.349 207.742 272.3C198.045 269.022 165.562 255.199 154.74 214.932C153.94 211.96 155.111 208.764 157.655 206.983C177.371 197.394 193.481 185.448 207.466 172.114C209.316 170.819 211.665 170.469 213.784 171.077C215.957 171.715 217.696 173.284 218.555 175.383C224.758 190.528 237.691 217.861 254.616 230.764C256.518 232.215 257.588 234.412 257.55 236.794C257.514 239.157 256.387 241.3 254.461 242.676L214.372 271.299C212.57 272.587 210.289 272.998 208.186 272.434Z" fill="#E6E6E6"/>
<path d="M163.305 210.867C162.625 211.345 162.296 212.196 162.485 212.99C171.726 251.467 203.633 262.841 209.935 264.73C210.537 264.928 211.185 264.807 211.699 264.439L251.5 236.022C252.063 235.619 252.371 234.995 252.346 234.306C252.32 233.613 251.963 233.007 251.365 232.645C232.566 221.219 218.564 187.877 214.721 177.929C214.496 177.348 214.026 176.909 213.431 176.728C212.815 176.557 212.188 176.648 211.67 177.011C196.626 191.518 180.808 203.713 163.305 210.867Z" fill="white"/>
<path d="M176.319 222.787L210.977 202.326C213.346 200.928 211.213 197.227 208.841 198.627L174.183 219.088C171.814 220.487 173.947 224.188 176.319 222.787Z" fill="#E6E6E6"/>
<path d="M190.653 235.009C199.97 230.289 208.588 224.241 216.226 217.118C218.242 215.238 215.229 212.209 213.221 214.081C205.837 220.968 197.524 226.747 188.517 231.31C186.06 232.555 188.206 236.249 190.653 235.009Z" fill="#E6E6E6"/>
<path d="M202.951 248.34C211.821 242.596 219.909 235.699 226.938 227.806C228.761 225.758 225.763 222.713 223.933 224.769C217.143 232.395 209.387 239.089 200.815 244.641C198.513 246.131 200.638 249.838 202.951 248.34Z" fill="#E6E6E6"/>
<path d="M668.289 331.989C668.157 332.032 668.023 332.07 667.887 332.104C658.93 334.348 627.542 339.709 599.686 314.439C597.629 312.574 596.958 309.578 598.019 306.986C608.299 290.092 614.694 273.169 618.798 256.229C619.57 254.344 621.181 252.933 623.086 252.36C625.045 251.784 627.13 252.126 628.806 253.299C640.901 261.763 664.048 276.19 683.184 277.722C685.335 277.895 687.219 279.04 688.353 280.866C689.478 282.676 689.669 284.852 688.878 286.835L672.429 328.11C671.689 329.967 670.159 331.391 668.289 331.989Z" fill="#E6E6E6"/>
<path d="M604.2 307.176C603.917 307.87 604.083 308.677 604.615 309.187C630.398 333.87 660.154 326.932 665.857 325.291C666.411 325.148 666.842 324.739 667.053 324.21L683.385 283.232C683.616 282.651 683.545 282.027 683.19 281.517C682.832 281.004 682.266 280.718 681.635 280.735C661.799 281.239 634.908 262.773 627.139 257.101C626.685 256.77 626.114 256.667 625.574 256.82C625.023 256.99 624.592 257.366 624.376 257.893C620.04 276.239 613.989 293.209 604.2 307.176Z" fill="white"/>
<path d="M619.889 309.871L636.201 277.438C637.316 275.221 633.892 273.454 632.776 275.674L616.464 308.106C615.349 310.323 618.773 312.091 619.889 309.871Z" fill="#E6E6E6"/>
<path d="M636.728 312.15C641.493 304.023 645.081 295.23 647.401 286.1C648.013 283.69 644.249 282.861 643.639 285.261C641.397 294.089 637.909 302.529 633.303 310.385C632.046 312.529 635.476 314.284 636.728 312.15Z" fill="#E6E6E6"/>
<path d="M652.562 316.263C656.49 307.577 659.261 298.399 660.742 288.982C661.127 286.539 657.367 285.691 656.981 288.143C655.55 297.242 652.932 306.105 649.137 314.499C648.118 316.753 651.538 318.528 652.562 316.263Z" fill="#E6E6E6"/>
<path d="M987.013 78.7963C986.904 78.8311 986.794 78.862 986.682 78.8902C979.33 80.7325 953.564 85.1332 930.697 64.3895C929.008 62.8586 928.458 60.3992 929.329 58.271C937.768 44.403 943.017 30.5113 946.386 16.6059C947.019 15.0585 948.342 13.9001 949.906 13.4301C951.514 12.957 953.226 13.238 954.602 14.2008C964.53 21.1487 983.531 32.9916 999.239 34.249C1001.01 34.391 1002.55 35.3307 1003.48 36.8295C1004.41 38.3155 1004.56 40.1018 1003.91 41.73L990.411 75.6119C989.804 77.1357 988.548 78.3051 987.013 78.7963Z" fill="#E6E6E6"/>
<path d="M934.403 58.428C934.171 58.9974 934.307 59.6597 934.743 60.078C955.908 80.3403 980.334 74.6453 985.015 73.2976C985.47 73.1801 985.825 72.8451 985.998 72.4102L999.404 38.7722C999.594 38.2954 999.535 37.7833 999.244 37.3642C998.951 36.9435 998.485 36.7087 997.968 36.723C981.684 37.1359 959.61 21.9781 953.233 17.322C952.86 17.05 952.391 16.9654 951.948 17.091C951.496 17.2307 951.142 17.5391 950.965 17.9721C947.406 33.0322 942.438 46.9619 934.403 58.428Z" fill="white"/>
<path d="M947.282 60.6395L960.672 34.016C961.588 32.1961 958.777 30.7453 957.861 32.5675L944.47 59.191C943.555 61.0109 946.366 62.4617 947.282 60.6395Z" fill="#E6E6E6"/>
<path d="M961.104 62.5102C965.016 55.8388 967.961 48.6212 969.865 41.1262C970.368 39.1478 967.278 38.4675 966.777 40.4381C964.936 47.6842 962.074 54.6127 958.292 61.0617C957.26 62.8212 960.076 64.2623 961.104 62.5102Z" fill="#E6E6E6"/>
<path d="M974.103 65.8868C977.327 58.7569 979.602 51.2226 980.818 43.4919C981.133 41.4864 978.047 40.7906 977.73 42.8038C976.555 50.2731 974.407 57.5481 971.291 64.4383C970.454 66.2889 973.262 67.7463 974.103 65.8868Z" fill="#E6E6E6"/>
<path d="M461.718 137.048C461.597 136.979 461.479 136.905 461.362 136.827C453.679 131.707 428.604 112.08 428.575 74.47C428.572 71.6934 430.339 69.1826 432.971 68.2243C452.388 64.4726 469.214 57.8258 484.511 49.4727C486.425 48.7762 488.553 49.02 490.258 50.0447C492.002 51.1074 493.151 52.8807 493.41 54.9102C495.278 69.5532 500.166 96.3872 511.9 111.581C513.218 113.289 513.637 115.453 513.048 117.52C512.465 119.57 510.983 121.175 508.983 121.923L467.373 137.503C465.501 138.204 463.418 138.03 461.718 137.048Z" fill="#E6E6E6"/>
<path d="M436.986 72.9277C436.282 73.1847 435.797 73.8501 435.777 74.5859C434.846 110.268 459.99 127.626 465.04 130.743C465.518 131.057 466.11 131.102 466.644 130.902L507.956 115.435C508.542 115.215 508.955 114.743 509.095 114.137C509.233 113.527 509.064 112.915 508.627 112.46C494.916 98.1168 490.5 65.7971 489.474 56.2326C489.414 55.6736 489.106 55.1817 488.63 54.8851C488.134 54.592 487.566 54.5256 487.03 54.7202C470.536 63.848 453.907 70.7803 436.986 72.9277Z" fill="white"/>
<path d="M445.542 86.3517L480.516 76.6155C482.907 75.95 481.912 72.2274 479.519 72.8938L444.545 82.6299C442.154 83.2955 443.149 87.018 445.542 86.3517Z" fill="#E6E6E6"/>
<path d="M455.179 100.347C464.398 98.409 473.318 95.1519 481.636 90.7292C483.832 89.5618 481.914 86.2188 479.727 87.3816C471.686 91.6574 463.094 94.7519 454.181 96.6252C451.75 97.1363 452.757 100.856 455.179 100.347Z" fill="#E6E6E6"/>
<path d="M462.782 114.833C471.852 111.899 480.509 107.779 488.475 102.542C490.542 101.183 488.641 97.8306 486.566 99.1943C478.87 104.254 470.55 108.276 461.785 111.111C459.431 111.873 460.417 115.598 462.782 114.833Z" fill="#E6E6E6"/>
</svg>
