<svg width="80" height="80" viewBox="0 0 80 80" fill="none" xmlns="http://www.w3.org/2000/svg">
<path d="M24.167 0C22.1779 0 20.2702 0.790176 18.8637 2.1967C17.4572 3.60322 16.667 5.51088 16.667 7.5V59.1667C16.667 61.1558 17.4572 63.0634 18.8637 64.47C20.2702 65.8765 22.1779 66.6667 24.167 66.6667H49.167C51.144 66.6668 53.0412 65.8862 54.4457 64.4948C55.8502 63.1034 56.6485 61.2136 56.667 59.2367V54.17C56.667 53.507 56.4036 52.8711 55.9348 52.4022C55.4659 51.9334 54.83 51.67 54.167 51.67C52.657 51.67 51.7037 51.26 51.047 50.73C50.3537 50.1733 49.7803 49.3133 49.3437 48.1C48.4337 45.5833 48.337 42.2667 48.337 39.1667C48.3369 38.533 48.0963 37.923 47.6637 37.46L47.1137 36.87C46.9344 36.6685 46.7453 36.4761 46.547 36.2933C46.3003 36.06 45.547 35.3433 42.6037 32.4C41.0403 30.8367 40.177 29.5167 39.8937 28.5067C39.7791 28.1569 39.7607 27.7827 39.8403 27.4233C39.9658 27.0089 40.2021 26.6366 40.5237 26.3467C40.8128 26.0264 41.1839 25.7913 41.597 25.6667C41.9552 25.587 42.3283 25.6054 42.677 25.72C43.6837 26.0033 45.0037 26.8733 46.567 28.4367C48.367 30.2367 50.077 31.9233 51.607 33.4367C54.1403 35.9433 56.1837 37.97 57.3403 39.2033C57.7935 39.6842 58.4186 39.9661 59.0791 39.9874C59.7395 40.0088 60.3815 39.7677 60.8647 39.3171C61.348 38.8664 61.6332 38.2428 61.6579 37.5825C61.6827 36.9222 61.4451 36.2789 60.997 35.7933C59.5781 34.3094 58.1346 32.8492 56.667 31.4133V20.2L66.137 29.6733C67.5437 31.08 68.337 32.9867 68.337 34.9733V64.1667C68.337 64.8297 68.6004 65.4656 69.0692 65.9344C69.5381 66.4033 70.1739 66.6667 70.837 66.6667C71.5 66.6667 72.1359 66.4033 72.6048 65.9344C73.0736 65.4656 73.337 64.8297 73.337 64.1667V34.9767C73.3369 33.3348 73.0133 31.709 72.3847 30.1922C71.7561 28.6755 70.8349 27.2974 69.6737 26.1367L56.667 13.13V7.49667C56.6661 5.50812 55.8755 3.60132 54.4691 2.19552C53.0627 0.789718 51.1555 -1.964e-07 49.167 0H24.167ZM44.6403 49.8C44.9637 50.6933 45.3803 51.58 45.9203 52.4067C44.6466 53.0184 43.5715 53.9774 42.819 55.1734C42.0665 56.3694 41.6672 57.7536 41.667 59.1667V61.6667H31.667V59.1667C31.667 57.1775 30.8768 55.2699 29.4703 53.8634C28.0638 52.4568 26.1561 51.6667 24.167 51.6667H21.667V15H24.167C26.1561 15 28.0638 14.2098 29.4703 12.8033C30.8768 11.3968 31.667 9.48912 31.667 7.5V5H41.667V7.5C41.667 9.48912 42.4572 11.3968 43.8637 12.8033C45.2702 14.2098 47.1779 15 49.167 15H51.667V26.46L50.1037 24.9C48.3337 23.13 46.277 21.54 44.0337 20.9067C42.8362 20.5521 41.5659 20.5233 40.3537 20.8233C39.6027 21.0185 38.8904 21.3397 38.247 21.7733C36.3624 21.5163 34.4435 21.7239 32.6575 22.3781C30.8716 23.0323 29.2726 24.1132 27.9999 25.5268C26.7273 26.9403 25.8195 28.6436 25.3557 30.4882C24.8919 32.3328 24.8862 34.2629 25.339 36.1102C25.7918 37.9576 26.6893 39.6662 27.9536 41.0873C29.2178 42.5084 30.8103 43.5989 32.5923 44.2637C34.3744 44.9286 36.292 45.1476 38.1781 44.9018C40.0641 44.656 41.8615 43.9527 43.4137 42.8533C43.537 45.1333 43.847 47.61 44.6403 49.8ZM30.0003 33.3333C30 31.8811 30.4739 30.4686 31.3499 29.3104C32.226 28.1522 33.4562 27.3117 34.8537 26.9167C34.7251 27.9029 34.8023 28.9051 35.0803 29.86C35.7103 32.1033 37.297 34.1633 39.0703 35.9367L41.287 38.1433C40.3443 39.0495 39.1558 39.6585 37.8696 39.8944C36.5835 40.1303 35.2563 39.9827 34.0533 39.47C32.8504 38.9574 31.8247 38.1023 31.1041 37.0111C30.3834 35.92 29.9996 34.641 30.0003 33.3333ZM21.667 7.5C21.667 6.83696 21.9304 6.20107 22.3992 5.73223C22.8681 5.26339 23.504 5 24.167 5H26.667V7.5C26.667 8.16304 26.4036 8.79893 25.9348 9.26777C25.4659 9.73661 24.83 10 24.167 10H21.667V7.5ZM46.667 5H49.167C49.83 5 50.4659 5.26339 50.9348 5.73223C51.4036 6.20107 51.667 6.83696 51.667 7.5V10H49.167C48.5039 10 47.8681 9.73661 47.3992 9.26777C46.9304 8.79893 46.667 8.16304 46.667 7.5V5ZM51.667 56.6667V59.1667C51.667 59.8297 51.4036 60.4656 50.9348 60.9344C50.4659 61.4033 49.83 61.6667 49.167 61.6667H46.667V59.1667C46.667 58.5036 46.9304 57.8677 47.3992 57.3989C47.8681 56.9301 48.5039 56.6667 49.167 56.6667H51.667ZM26.667 61.6667H24.167C23.504 61.6667 22.8681 61.4033 22.3992 60.9344C21.9304 60.4656 21.667 59.8297 21.667 59.1667V56.6667H24.167C24.83 56.6667 25.4659 56.9301 25.9348 57.3989C26.4036 57.8677 26.667 58.5036 26.667 59.1667V61.6667Z" />
</svg>
