<svg width="75" height="75" viewBox="0 0 75 75" fill="none" xmlns="http://www.w3.org/2000/svg">
<path d="M37.5003 65.625C43.7406 65.6241 49.8035 63.5478 54.7343 59.723C59.6651 55.8982 63.1839 50.5422 64.7366 44.4981C66.2893 38.454 65.7878 32.0651 63.311 26.3373C60.8343 20.6096 56.5229 15.8681 51.0557 12.8595C45.5885 9.85096 39.2759 8.74609 33.1119 9.71886C26.9478 10.6916 21.2823 13.6868 17.0073 18.2329C12.7323 22.7789 10.0907 28.6176 9.49818 34.8298C8.9057 41.0419 10.3961 47.2747 13.7347 52.5469L9.37529 65.625L22.4534 61.2657C26.9519 64.1212 32.172 65.6335 37.5003 65.625Z"  stroke-width="6.66667" stroke-linecap="round" stroke-linejoin="round"/>
</svg>
