<svg width="802" height="729" viewBox="0 0 802 729" fill="none" xmlns="http://www.w3.org/2000/svg">
<g clip-path="url(#clip0_1379_1083)">
<path d="M385.484 146.075C394.412 136.983 406.338 134.223 412.12 139.909C417.901 145.596 415.349 157.575 406.416 166.669C402.897 170.351 398.549 173.136 393.734 174.791L355.417 212.837L337.958 194.464L377.586 158.908C379.156 154.06 381.864 149.66 385.484 146.075Z" fill="#FFB6B6"/>
<path d="M262.94 114.67L303.115 203.853L367.268 169.105L390.227 181.298C390.227 181.298 337.783 269.03 301.875 259.043C265.967 249.056 202.204 158.499 213.692 130.55C225.181 102.601 262.94 114.67 262.94 114.67Z" fill="#E6E6E6"/>
<path d="M449.172 165.011C439.845 156.328 436.763 144.474 442.287 138.536C447.81 132.598 459.846 134.824 469.174 143.512C472.948 146.931 475.849 151.205 477.634 155.976L516.686 193.266L498.807 211.231L462.207 172.562C457.322 171.123 452.852 168.534 449.172 165.011Z" fill="#FFB8B8"/>
<path d="M645.883 170.759L570.506 251.062C570.506 251.062 553.579 267.821 525.729 243.653C497.88 219.484 466.918 179.832 466.918 179.832L484.288 160.915L515.056 188.383C515.056 188.383 533.323 195.738 534.593 200.497C535.863 205.256 532.312 207.225 538.02 205.7C543.727 204.175 543.838 200.773 544.196 205.932C544.554 211.091 541.068 217.121 547.661 211.281C554.255 205.44 556.222 208.993 556.222 208.993L604.399 145.136C604.399 145.136 635.529 120.503 644.479 142.584C653.428 164.665 645.883 170.759 645.883 170.759Z" />
<path d="M245.324 709.035L274.618 709.032L288.553 595.968L245.318 595.971L245.324 709.035Z" fill="#FFB6B6"/>
<path d="M345.689 708.37C346.601 709.907 347.082 714.868 347.082 716.656C347.082 722.15 342.631 726.604 337.14 726.604H246.42C242.674 726.604 239.638 723.566 239.638 719.817V716.038C239.638 716.038 235.15 704.679 244.389 690.678C244.389 690.678 255.873 701.641 273.032 684.471L278.092 675.298L314.721 702.103L335.024 704.604C339.465 705.151 343.404 704.519 345.689 708.37Z" fill="#2F2E41"/>
<path d="M582.948 187.273H655.544V79.9349L582.948 79.9349V187.273Z" fill="#2F2E41"/>
<path d="M639.248 154.544L636.706 123.801H602.902L595.408 156.373L639.248 154.544Z" fill="#E6A4A4"/>
<path d="M267.491 120.393L268.084 80.8572L243.719 65.6592L217.225 98.0879L267.491 120.393Z" fill="#FFB6B6"/>
<path opacity="0.1" d="M267.491 120.393L269.068 81.8423L243.719 65.6592L252.331 113.368L267.491 120.393Z" fill="black"/>
<path d="M614.481 133.583C634.888 133.583 651.432 117.028 651.432 96.6079C651.432 76.1874 634.888 59.6333 614.481 59.6333C594.074 59.6333 577.53 76.1874 577.53 96.6079C577.53 117.028 594.074 133.583 614.481 133.583Z" fill="#FFB8B8"/>
<path d="M605.16 57.7081C605.16 57.7081 605.16 42.529 619.246 45.7816C633.332 49.0343 637.666 54.4554 637.666 54.4554C637.666 54.4554 643.084 63.1292 651.752 64.2135C660.42 65.2977 668.005 90.2349 666.921 95.656C665.838 101.077 660.42 115.172 668.005 121.677C675.589 128.183 686.425 137.941 683.174 147.699C679.924 157.457 670.172 182.394 670.172 182.394C670.172 182.394 697.371 186.372 695.148 203.357C695.148 203.357 682.091 193.236 664.754 193.236C647.418 193.236 649.585 161.764 649.585 161.764C649.585 161.764 648.501 142.278 645.251 136.857C642 131.435 646.334 101.077 630.081 84.8137C613.828 68.5504 605.16 57.7081 605.16 57.7081Z" fill="#2F2E41"/>
<path d="M609.494 54.4556C609.494 54.4556 588.907 58.7925 581.322 79.3928C573.738 99.9931 577.568 103.826 577.568 103.826C577.568 103.826 575.891 116.231 566.688 120.581C557.485 124.93 565.069 143.362 565.069 143.362C565.069 143.362 562.902 161.794 533.647 168.299C504.392 174.805 570.334 224.691 570.334 224.691C570.334 224.691 565.593 201.146 595.931 200.062C626.27 198.978 589.99 143.362 589.99 143.362L586.74 107.583C586.74 107.583 593.241 66.382 612.745 60.9609C632.248 55.5398 609.494 54.4556 609.494 54.4556Z" fill="#2F2E41"/>
<path d="M267.567 93.16C291.499 93.16 310.899 73.7471 310.899 49.8001C310.899 25.8531 291.499 6.44019 267.567 6.44019C243.636 6.44019 224.235 25.8531 224.235 49.8001C224.235 73.7471 243.636 93.16 267.567 93.16Z" fill="#FFB6B6"/>
<path d="M326.663 381.824L286.298 656.685H235.653L242.388 499.788L245.932 417.29L235.653 378.022C235.653 378.022 230.967 369.293 227.019 358.712C222.569 346.772 219.054 332.458 224.272 325.67C226.192 323.168 231.184 321.315 237.967 319.936C242.112 319.089 246.936 318.429 252.144 317.917C282.094 314.951 324.694 316.803 324.694 316.803L325.777 352.565L326.378 372.534L326.663 381.824Z" fill="#2F2E41"/>
<path d="M78.5361 665.242L104.343 679.113L170.095 586.113L132.008 565.64L78.5361 665.242Z" fill="#FFB6B6"/>
<path d="M167.262 712.188C167.339 713.974 165.416 718.572 164.571 720.147C161.972 724.987 155.944 726.803 151.107 724.202L71.1911 681.239C67.8913 679.465 66.6533 675.35 68.4263 672.048L70.2138 668.718C70.2138 668.718 71.633 656.587 86.3942 648.629C86.3942 648.629 91.3251 663.725 114.562 656.726L123.358 651.042L142.946 692.002L159.648 703.82C163.302 706.405 167.071 707.714 167.262 712.188Z" fill="#2F2E41"/>
<path d="M326.378 372.534L304.955 415.517L242.388 499.788L139.386 638.528L94.7773 614.549L217.056 408.532L226.586 369.066C226.586 369.066 226.586 364.801 227.019 358.712C227.866 346.664 230.406 327.463 237.967 319.936C238.991 318.912 240.104 318.104 241.315 317.562C243.589 316.538 247.369 316.784 252.144 317.917C272.091 322.685 309.316 343.167 325.777 352.565L326.378 372.534Z" fill="#2F2E41"/>
<path d="M636.496 712.483L611.309 712.48L599.327 615.266L636.501 615.269L636.496 712.483Z" fill="#FFB8B8"/>
<path d="M550.202 711.911C549.418 713.233 549.004 717.499 549.004 719.036C549.004 723.76 552.831 727.59 557.553 727.59H635.554C638.775 727.59 641.386 724.977 641.386 721.754V718.504C641.386 718.504 645.245 708.738 637.3 696.7C637.3 696.7 627.427 706.126 612.673 691.362L608.322 683.476L576.828 706.523L559.372 708.673C555.553 709.144 552.166 708.6 550.202 711.911Z" fill="#2F2E41"/>
<path d="M735.718 682.782L712.435 692.393L664.301 607.103L698.665 592.916L735.718 682.782Z" fill="#FFB8B8"/>
<path d="M655.731 715.191C655.51 716.712 656.754 720.813 657.339 722.234C659.14 726.601 664.138 728.68 668.503 726.878L740.606 697.106C743.584 695.876 745.001 692.465 743.773 689.485L742.534 686.481C742.534 686.481 742.378 675.981 730.446 667.885C730.446 667.885 724.912 680.367 705.645 672.351L698.617 666.721L678.29 700.047L662.973 708.698C659.622 710.59 656.285 711.381 655.731 715.191Z" fill="#2F2E41"/>
<path d="M648.053 379.007L637.774 418.275L640.511 481.996L645.05 587.832L645.178 590.817L645.69 602.717L648.053 657.67H597.409L574.863 504.152L557.043 382.809L558.914 321.02L559.012 317.789C559.012 317.789 649.589 313.848 659.434 326.655C669.279 339.462 648.053 379.007 648.053 379.007Z" fill="#2F2E41"/>
<path d="M718.516 618.165L709.93 622.608L678.179 639.05L673.532 641.454L645.69 602.717L574.863 504.152L557.043 382.809L558.914 321.02C566.928 318.468 573.337 317.424 576.586 318.941C591.216 325.788 590.517 370.672 590.517 370.672L599.427 410.276L640.511 481.996L718.516 618.165Z" fill="#2F2E41"/>
<path d="M222.795 89.7237L272.021 113.368C272.021 113.368 324.201 268.038 324.201 275.919C324.201 283.801 338.969 288.727 330.109 297.593C321.248 306.459 346.601 313.968 332.94 321.051C319.279 328.133 234.059 366.872 224.583 363.379C198.447 353.744 225.69 318.34 225.69 318.34C225.69 318.34 206.058 302.519 209.012 294.637C211.965 286.756 191.29 136.026 191.29 136.026L222.795 89.7237Z" fill="#E6E6E6"/>
<path d="M264.92 60.1855L270.494 71.3395C270.494 71.3395 276.067 51.2623 284.985 46.8008C293.902 42.3392 295.017 35.6468 295.017 35.6468C295.017 35.6468 306.164 50.1469 313.966 46.8008C321.769 43.4546 325.113 41.2238 316.196 27.839C307.278 14.4543 309.508 21.1467 309.508 21.1467C309.508 21.1467 301.705 9.9927 302.819 13.3389C303.934 16.6851 296.131 4.41572 296.131 7.7619C296.131 11.1081 290.558 1.06952 290.558 4.41572C290.558 7.7619 267.15 -3.39205 270.494 1.06954C273.838 5.53113 250.43 -7.85363 239.283 9.9927C228.136 27.839 212.68 24.5387 218.179 35.6697C223.677 46.8007 221.448 76.9164 221.448 76.9164H236.821C236.821 76.9164 252.659 46.8008 264.92 60.1855Z" fill="#2F2E41"/>
<path d="M592.978 154.744L593.88 154.489L638.266 141.937L673.709 190.21L650.081 290.697L658.942 331.088C658.942 331.088 587.071 312.37 558.52 328.133C558.52 328.133 556.551 319.15 558.52 314.775C560.489 310.4 563.442 292.194 560.489 284.057C557.535 275.919 566.396 237.498 566.396 237.498C566.396 237.498 563.442 211.884 576.241 199.077C589.04 186.27 592.978 154.744 592.978 154.744Z" />
<path d="M426.762 109.847L349.069 209.446C347.725 211.175 347.121 213.366 347.388 215.54C347.656 217.714 348.774 219.692 350.497 221.043C368.54 264.879 422.518 297.386 486.015 326.891C487.742 328.237 489.932 328.843 492.105 328.575C494.278 328.307 496.256 327.187 497.605 325.462L575.298 225.863C576.643 224.134 577.249 221.943 576.981 219.769C576.713 217.594 575.594 215.615 573.87 214.266C520.583 184.158 474.784 149.275 438.352 108.418C436.624 107.073 434.434 106.468 432.262 106.736C430.09 107.004 428.112 108.122 426.762 109.847Z" fill="#E6E6E6"/>
<path d="M569.845 223.597L546.196 253.914C531.749 272.322 510.61 284.261 487.396 287.124C464.181 289.987 440.777 283.54 422.297 269.193L356.022 217.427C355.04 216.66 354.402 215.535 354.249 214.298C354.095 213.061 354.438 211.813 355.203 210.829L430.278 114.586C431.047 113.605 432.173 112.969 433.409 112.818C434.645 112.667 435.891 113.012 436.873 113.779C470.399 157.099 515.276 190.81 569.033 217.004C570.013 217.771 570.649 218.896 570.801 220.132C570.953 221.368 570.609 222.614 569.845 223.597Z" fill="white"/>
<path d="M425.212 164.219L409.811 183.963C409.402 184.486 408.803 184.825 408.144 184.906C407.486 184.987 406.822 184.803 406.299 184.394C405.776 183.986 405.436 183.386 405.355 182.727C405.273 182.068 405.457 181.404 405.864 180.88L421.266 161.136C421.468 160.877 421.72 160.659 422.006 160.497C422.292 160.335 422.607 160.23 422.933 160.19C423.26 160.149 423.591 160.174 423.908 160.262C424.225 160.349 424.521 160.499 424.781 160.701C425.04 160.904 425.257 161.155 425.419 161.442C425.581 161.728 425.685 162.044 425.725 162.37C425.765 162.697 425.74 163.028 425.653 163.345C425.565 163.663 425.415 163.959 425.212 164.219Z" fill="#E6E6E6"/>
<path d="M454.101 149.573L420.278 192.933C420.076 193.192 419.824 193.409 419.538 193.571C419.252 193.733 418.937 193.837 418.611 193.877C418.285 193.917 417.954 193.893 417.637 193.805C417.32 193.718 417.024 193.568 416.765 193.366C416.506 193.163 416.289 192.912 416.127 192.626C415.965 192.34 415.861 192.024 415.821 191.698C415.78 191.371 415.805 191.04 415.893 190.723C415.98 190.406 416.129 190.11 416.332 189.85L450.155 146.491C450.357 146.231 450.608 146.013 450.894 145.851C451.18 145.688 451.496 145.583 451.822 145.543C452.149 145.502 452.48 145.526 452.797 145.614C453.115 145.702 453.411 145.851 453.671 146.054C453.93 146.257 454.147 146.508 454.309 146.795C454.471 147.082 454.575 147.397 454.615 147.724C454.655 148.051 454.63 148.382 454.542 148.7C454.454 149.017 454.304 149.314 454.101 149.573Z" fill="#E6E6E6"/>
<path d="M455.897 183.842L414.356 237.096C413.922 237.538 413.342 237.804 412.724 237.845C412.107 237.886 411.496 237.698 411.008 237.317C410.52 236.936 410.19 236.389 410.079 235.779C409.969 235.17 410.087 234.542 410.41 234.014L451.951 180.759C452.385 180.318 452.966 180.051 453.583 180.01C454.2 179.969 454.811 180.157 455.299 180.538C455.787 180.919 456.117 181.467 456.228 182.076C456.338 182.685 456.22 183.313 455.897 183.842Z" fill="#E6E6E6"/>
<path d="M506.399 218.052L464.858 271.306C464.424 271.748 463.843 272.014 463.226 272.055C462.609 272.096 461.998 271.908 461.51 271.527C461.022 271.146 460.692 270.599 460.581 269.989C460.471 269.38 460.589 268.752 460.912 268.224L502.453 214.969C502.887 214.527 503.467 214.261 504.085 214.22C504.702 214.179 505.313 214.367 505.801 214.748C506.289 215.129 506.619 215.676 506.73 216.286C506.84 216.895 506.722 217.523 506.399 218.052Z" fill="#E6E6E6"/>
<path d="M524.448 226.261L482.907 279.515C482.473 279.957 481.892 280.224 481.275 280.264C480.658 280.305 480.047 280.117 479.559 279.736C479.071 279.355 478.741 278.808 478.63 278.199C478.52 277.589 478.637 276.961 478.96 276.433L520.502 223.178C520.935 222.737 521.516 222.47 522.134 222.429C522.751 222.389 523.362 222.577 523.85 222.958C524.337 223.338 524.668 223.886 524.778 224.495C524.889 225.104 524.771 225.733 524.448 226.261Z" fill="#E6E6E6"/>
<path d="M482.846 171.683L424.864 246.013C424.43 246.455 423.849 246.721 423.232 246.762C422.615 246.803 422.004 246.615 421.516 246.234C421.028 245.853 420.698 245.305 420.587 244.696C420.477 244.087 420.594 243.459 420.917 242.93L478.899 168.6C479.333 168.159 479.914 167.892 480.531 167.851C481.148 167.81 481.759 167.998 482.247 168.379C482.735 168.76 483.065 169.308 483.176 169.917C483.286 170.526 483.169 171.155 482.846 171.683Z" fill="#E6E6E6"/>
<path d="M482.645 204.733L441.103 257.988C440.669 258.429 440.089 258.696 439.471 258.737C438.854 258.777 438.243 258.589 437.755 258.208C437.268 257.827 436.937 257.28 436.827 256.671C436.716 256.062 436.834 255.433 437.157 254.905L478.698 201.651C479.132 201.209 479.713 200.942 480.33 200.902C480.947 200.861 481.558 201.049 482.046 201.43C482.534 201.811 482.864 202.358 482.975 202.967C483.085 203.577 482.968 204.205 482.645 204.733Z" fill="#E6E6E6"/>
<path d="M509.594 192.574L451.612 266.905C451.178 267.346 450.597 267.613 449.98 267.654C449.363 267.694 448.752 267.506 448.264 267.126C447.776 266.745 447.446 266.197 447.335 265.588C447.225 264.979 447.342 264.35 447.665 263.822L505.647 189.492C506.081 189.05 506.662 188.784 507.279 188.743C507.896 188.702 508.507 188.89 508.995 189.271C509.483 189.652 509.813 190.199 509.924 190.809C510.034 191.418 509.917 192.046 509.594 192.574Z" fill="#E6E6E6"/>
<path d="M372.793 226.012C385.01 222.401 396.775 225.781 399.071 233.561C401.367 241.342 393.324 250.574 381.102 254.185C376.24 255.695 371.087 256.017 366.075 255.126L314.118 269.774L307.768 245.23L359.662 233.395C363.387 229.92 367.89 227.389 372.793 226.012Z" fill="#FFB6B6"/>
<path d="M280.894 139.029L272.751 236.513L345.695 237.298L359.852 259.11C359.852 259.11 271.439 310.336 244.892 284.161C218.344 257.987 206.532 147.842 230.135 128.989C253.738 110.135 280.894 139.029 280.894 139.029Z" fill="#E6E6E6"/>
<path d="M519.847 315.042C507.144 314.084 497.341 306.75 497.951 298.66C498.561 290.571 509.352 284.791 522.06 285.751C527.141 286.064 532.074 287.591 536.444 290.203L590.216 294.94L587.457 320.142L534.74 312.797C530.026 314.725 524.919 315.494 519.847 315.042Z" fill="#FFB8B8"/>
<path d="M677.104 196.65L668.318 306.47C668.318 306.47 665.55 330.136 628.716 328.653C591.882 327.169 542.956 315.534 542.956 315.534L544.724 289.905L585.896 292.143C585.896 292.143 604.755 286.478 608.716 289.402C612.677 292.327 611.132 296.082 614.639 291.326C618.146 286.569 616.11 283.842 619.609 287.649C623.107 291.456 624.146 298.345 625.653 289.663C627.16 280.981 630.913 282.528 630.913 282.528L628.71 202.548C628.71 202.548 637.661 163.858 658.428 175.517C679.196 187.176 677.104 196.65 677.104 196.65Z" />
</g>
<defs>
<clipPath id="clip0_1379_1083">
<rect width="802" height="729" fill="white"/>
</clipPath>
</defs>
</svg>
