<svg width="457" height="528" viewBox="0 0 457 528" fill="none" xmlns="http://www.w3.org/2000/svg">
<path d="M43.6101 404.033C45.7041 403.799 47.7244 403.115 49.5314 402.03C51.3384 400.944 52.889 399.483 54.0758 397.748C55.2627 396.012 56.0575 394.043 56.4053 391.977C56.7532 389.911 56.6457 387.798 56.0903 385.783L112.893 340.723L104.307 322.121L37.2329 376.127C33.8833 377.328 31.0861 379.707 29.3716 382.811C27.6571 385.915 27.1443 389.529 27.9304 392.969C28.7165 396.409 30.7468 399.435 33.6367 401.475C36.5266 403.514 40.0752 404.424 43.6101 404.033Z" fill="#FFB6B6"/>
<path d="M211.985 207.274C215.845 199.018 194.28 177.186 193.223 168.422C193.157 167.892 193.083 167.365 193.001 166.839C192.825 165.727 192.27 164.71 191.431 163.959L162.718 163.941C157.761 169.319 153.777 175.515 150.942 182.254L134.045 240.766L113.216 290.276L100.681 304.763L59.1506 352.779L60.4299 354.092L60.4367 354.094L74.0601 368.127L74.0645 368.136L66.2905 381.59L101.418 358.175L121.583 336.151L141.002 314.947C166.518 276.916 219.793 238.417 211.985 207.274Z" />
<path d="M158.109 527.715H254.786C262.298 508.986 267.511 495.59 267.511 495.59C267.511 495.59 268.777 508.711 270.584 527.715H357.986C358.804 476.072 359.949 423.048 360.326 406.207L192.564 409.956L175.877 431.182C175.82 431.536 175.763 431.927 175.692 432.369C175.017 436.682 165.933 482.976 158.109 527.715Z" fill="#2F2E41"/>
<path d="M159.582 164.046L159.598 164.016C160.133 163.021 160.993 162.241 162.035 161.808C172.68 153.529 184.336 149.755 197.416 152.336C199.558 145.838 201.555 145.838 201.555 145.838L229.926 136.446L234.007 111.462L303.91 109.091L310.263 140.269C310.263 140.269 349.336 147.289 349.336 152.365C349.336 157.442 342.824 157.442 349.336 157.442C355.848 157.442 357.592 151.64 363.228 157.442C363.711 157.93 364.221 158.39 364.755 158.82C364.82 158.878 364.892 158.929 364.957 158.987C371.328 164.009 376.334 170.558 379.514 178.029C382.694 185.501 383.946 193.655 383.155 201.74L371.137 321.57L358.308 449.437L182.743 456.761L170.985 347.954L159.025 166.918C158.918 165.927 159.112 164.926 159.582 164.046Z" />
<path d="M447.568 485.344C446.565 487.866 445.554 489.714 444.533 490.628L104.069 491.351C103.049 490.438 102.037 488.59 101.035 486.068C89.1271 456.106 111.591 423.615 143.828 423.554L404.757 423.059C436.951 422.998 459.46 455.423 447.568 485.344Z" fill="white"/>
<path d="M103.662 492.238L103.94 492.238L444.94 491.51L445.146 491.325C446.208 490.37 447.263 488.545 448.372 485.744C451.193 478.741 452.233 471.143 451.4 463.636C450.566 456.128 447.884 448.947 443.597 442.739C439.316 436.403 433.555 431.216 426.817 427.631C420.079 424.046 412.57 422.171 404.944 422.172H404.854L143.727 422.67C136.074 422.684 128.541 424.58 121.786 428.191C115.03 431.802 109.258 437.018 104.973 443.385C100.691 449.611 98.016 456.807 97.188 464.327C96.36 471.847 97.405 479.457 100.229 486.471C101.339 489.272 102.394 491.097 103.456 492.052L103.662 492.238ZM421.898 489.989L132.992 489.11C112.599 489.048 97.5978 469.282 103.641 449.726C104.211 447.77 105.064 445.908 106.172 444.2C110.325 438.03 115.919 432.974 122.466 429.475C129.012 425.975 136.313 424.138 143.73 424.124L404.857 423.626H404.944C408.26 423.737 411.53 424.439 414.601 425.699C431.468 432.107 442.747 448.216 443.685 466.299C443.697 466.53 443.709 466.76 443.721 466.991C443.868 469.859 443.451 472.729 442.494 475.435C441.537 478.142 440.058 480.633 438.142 482.766C436.226 484.899 433.91 486.632 431.327 487.866C428.744 489.101 425.944 489.812 423.087 489.96C422.691 489.98 422.295 489.99 421.898 489.989Z" fill="#E6E6E6"/>
<path d="M381.954 314.226L364.846 321.979C372.889 328.544 385.137 337.376 397.132 341.462L416.191 328.384C423.291 300.837 418.942 272.448 410.409 248.444C405.682 235.105 399.413 222.372 391.732 210.506C392.519 202.429 391.272 194.283 388.108 186.819C384.943 179.354 379.962 172.811 373.623 167.794C373.551 167.736 373.486 167.685 373.422 167.627C367.108 173.14 361.951 179.865 358.252 187.408C354.553 194.951 352.386 203.161 351.878 211.557L351.497 217.904L350.734 230.41L348.797 262.348L371.766 298.286L381.954 314.226Z" />
<path d="M332.344 450.617C332.142 450.875 331.885 451.083 331.593 451.226C331.301 451.368 330.98 451.442 330.657 451.44H212.607C212.284 451.44 211.966 451.366 211.674 451.224C211.383 451.082 211.126 450.876 210.923 450.62C210.719 450.364 210.575 450.066 210.499 449.746C210.423 449.426 210.418 449.093 210.484 448.77L212.316 439.894C212.392 439.532 212.556 439.195 212.792 438.914C213.028 438.633 213.33 438.416 213.669 438.285C213.914 438.186 214.176 438.136 214.44 438.136H328.831C329.095 438.136 329.357 438.186 329.602 438.285C329.941 438.416 330.243 438.633 330.479 438.914C330.715 439.195 330.879 439.532 330.955 439.894L332.787 448.77C332.852 449.092 332.846 449.425 332.77 449.745C332.693 450.064 332.547 450.362 332.344 450.617Z" fill="#2F2E41"/>
<path d="M377.178 256.637V392.579C377.176 394.311 376.49 395.972 375.269 397.197C374.049 398.422 372.394 399.111 370.668 399.112H169.941C168.215 399.111 166.56 398.422 165.339 397.197C164.119 395.972 163.432 394.311 163.431 392.579V256.637C163.435 254.906 164.123 253.247 165.343 252.024C166.563 250.801 168.216 250.113 169.941 250.11H370.668C372.392 250.113 374.046 250.801 375.266 252.024C376.486 253.247 377.174 254.906 377.178 256.637Z" fill="#3F3D56"/>
<path d="M295.581 372.333V446.118H243.253V372.333C243.252 371.802 243.424 371.285 243.742 370.858C244.061 370.431 244.51 370.116 245.023 369.959C245.265 369.88 245.518 369.841 245.773 369.844H293.054C293.723 369.843 294.365 370.104 294.839 370.57C295.313 371.037 295.58 371.67 295.581 372.331V372.333ZM275.16 397.686C275.146 396.232 274.551 394.841 273.505 393.818C272.459 392.794 271.046 392.22 269.574 392.22C268.101 392.22 266.688 392.794 265.642 393.818C264.596 394.841 264.001 396.232 263.988 397.686V406.247C263.995 407.706 264.587 409.102 265.634 410.131C266.681 411.16 268.097 411.737 269.574 411.737C271.05 411.737 272.467 411.16 273.513 410.131C274.56 409.102 275.152 407.706 275.16 406.247V397.686Z" fill="#2F2E41"/>
<path d="M264.982 106.43C239.756 106.43 219.306 86.1786 219.306 61.1973C219.306 36.216 239.756 15.9646 264.982 15.9646C290.208 15.9646 310.658 36.216 310.658 61.1973C310.658 86.1786 290.208 106.43 264.982 106.43Z" fill="#FFB6B6"/>
<path d="M210.437 53.4949C215.34 55.0148 220.067 55.9107 223.256 51.8951C226.445 47.8794 225.612 43.2878 230.355 41.352C234.185 39.7842 238.607 40.4561 242.469 41.912C243.158 42.168 243.831 42.4559 244.488 42.7439C244.857 42.4239 245.225 42.12 245.626 41.8319C248.641 39.6915 252.363 38.7868 256.026 39.3043C253.348 40.5954 251.145 42.6941 249.728 45.3037C251.042 45.9596 252.454 46.4498 253.718 47.1755C271.087 57.1456 290.403 61.1609 288.827 44.5198C283.571 58.3424 287.657 63.27 295.365 75.8928L295.669 76.6287C294.9 73.3171 300.308 73.1601 304.979 74.2929C308.429 75.1296 306.197 83.16 301.774 88.6916C311.661 73.8289 326.469 51.1367 313.664 39.7521C311.776 38.0731 310.591 35.7041 310.251 29.6411C310.05 26.0463 303.922 25.1455 300.685 26.7454C300.216 21.3402 298.324 16.1548 295.2 11.7154C292.077 7.27607 287.832 3.74062 282.898 1.46777C272.995 -2.93181 262.924 3.83607 252.164 5.1474C246.194 5.87499 241.666 8.27563 241.428 15.8824C241.269 20.948 233.624 22.7618 228.624 23.6577C225.452 24.2177 221.878 23.8817 219.346 25.8815C216.414 28.2013 216.382 32.2809 216.398 36.2005C219.267 36.1188 222.096 36.893 224.522 38.4242C221.552 38.4988 218.681 39.5065 216.318 41.304C216.272 41.3321 216.229 41.3642 216.19 41.4C215.324 47.9915 215.677 49.3834 210.437 53.4949Z" fill="#2F2E41"/>
<path d="M359.198 325.03C360.139 326.89 361.472 328.524 363.107 329.819C364.742 331.114 366.639 332.039 368.667 332.53C370.696 333.02 372.806 333.066 374.854 332.662C376.901 332.258 378.836 331.415 380.525 330.191L432.248 354.766L435.714 340.292L383.04 309.3C380.765 306.615 377.583 304.857 374.096 304.357C370.609 303.858 367.06 304.653 364.121 306.592C361.183 308.531 359.058 311.479 358.151 314.877C357.244 318.275 357.616 321.888 359.198 325.03Z" fill="#FFB6B6"/>
<path d="M378.772 249.812L415.557 324.465L400.011 317.467L389.192 312.592L383.767 333.059C383.767 333.059 387.359 336.526 393.024 341.083C401.146 347.626 413.514 356.429 425.628 360.502C435.109 363.695 444.424 363.991 451.419 358.04C464.696 346.745 451.717 301.889 439.174 267.737C430.776 244.865 422.581 226.803 422.581 226.803C422.581 202.682 375.45 167.998 366.703 163.253C361.707 160.552 360.326 164.486 360.326 164.486L387.737 204.343L379.543 237.347L377.223 246.671L378.772 249.812Z" />
</svg>
