<svg width="71" height="71" viewBox="0 0 71 71" fill="none" xmlns="http://www.w3.org/2000/svg">
<path d="M35.5003 5.9165C31.6154 5.9165 27.7685 6.6817 24.1793 8.1684C20.5901 9.6551 17.3288 11.8342 14.5817 14.5813C9.0338 20.1292 5.91699 27.6538 5.91699 35.4998C5.91699 43.3458 9.0338 50.8705 14.5817 56.4184C17.3288 59.1655 20.5901 61.3446 24.1793 62.8313C27.7685 64.318 31.6154 65.0832 35.5003 65.0832C43.3463 65.0832 50.8709 61.9664 56.4189 56.4184C61.9669 50.8705 65.0837 43.3458 65.0837 35.4998C65.0837 31.6149 64.3185 27.768 62.8318 24.1788C61.3451 20.5896 59.166 17.3283 56.4189 14.5813C53.6718 11.8342 50.4106 9.6551 46.8214 8.1684C43.2322 6.6817 39.3853 5.9165 35.5003 5.9165ZM35.5003 11.8332C41.7771 11.8332 47.7968 14.3266 52.2352 18.765C56.6735 23.2033 59.167 29.223 59.167 35.4998C59.167 42.5998 56.2087 48.8123 51.1795 53.2498C47.0378 49.404 41.417 47.3332 35.5003 47.3332C29.5837 47.3332 24.2587 49.404 19.8212 53.2498C14.792 48.8123 11.8337 42.5998 11.8337 35.4998C11.8337 29.223 14.3271 23.2033 18.7655 18.765C23.2038 14.3266 29.2235 11.8332 35.5003 11.8332ZM41.417 17.4244C40.2928 17.454 39.2278 18.1936 38.7545 19.3473L34.9382 28.9028L34.6424 29.5832C32.542 29.9678 30.7966 31.3582 29.9978 33.3107C28.7849 36.3578 30.2641 39.7894 33.3112 41.0023C36.3582 42.2153 39.7899 40.7361 41.0028 37.689C41.772 35.7365 41.417 33.4882 40.1449 31.8315L40.4407 31.0623L44.257 21.5661L44.2866 21.4773C44.8782 19.9686 44.1387 18.2528 42.6299 17.6315C42.2453 17.4836 41.8607 17.4244 41.417 17.4244ZM29.5837 17.7498C28.7991 17.7498 28.0466 18.0615 27.4918 18.6163C26.937 19.1711 26.6253 19.9236 26.6253 20.7082C26.6253 21.4928 26.937 22.2452 27.4918 22.8C28.0466 23.3548 28.7991 23.6665 29.5837 23.6665C30.3683 23.6665 31.1207 23.3548 31.6755 22.8C32.2303 22.2452 32.542 21.4928 32.542 20.7082C32.542 19.9236 32.2303 19.1711 31.6755 18.6163C31.1207 18.0615 30.3683 17.7498 29.5837 17.7498ZM20.7087 26.6248C19.9241 26.6248 19.1716 26.9365 18.6168 27.4913C18.062 28.0461 17.7503 28.7986 17.7503 29.5832C17.7503 30.3678 18.062 31.1202 18.6168 31.675C19.1716 32.2298 19.9241 32.5415 20.7087 32.5415C21.4933 32.5415 22.2457 32.2298 22.8005 31.675C23.3553 31.1202 23.667 30.3678 23.667 29.5832C23.667 28.7986 23.3553 28.0461 22.8005 27.4913C22.2457 26.9365 21.4933 26.6248 20.7087 26.6248ZM50.292 26.6248C49.5074 26.6248 48.7549 26.9365 48.2001 27.4913C47.6453 28.0461 47.3337 28.7986 47.3337 29.5832C47.3337 30.3678 47.6453 31.1202 48.2001 31.675C48.7549 32.2298 49.5074 32.5415 50.292 32.5415C51.0766 32.5415 51.8291 32.2298 52.3839 31.675C52.9386 31.1202 53.2503 30.3678 53.2503 29.5832C53.2503 28.7986 52.9386 28.0461 52.3839 27.4913C51.8291 26.9365 51.0766 26.6248 50.292 26.6248Z" />
</svg>
