<svg width="80" height="80" viewBox="0 0 80 80" fill="none" xmlns="http://www.w3.org/2000/svg">
<path d="M33.8195 10.8267C34.3176 9.5957 35.1719 8.54152 36.2729 7.79924C37.374 7.05696 38.6716 6.6604 39.9995 6.6604C41.3274 6.6604 42.6251 7.05696 43.7261 7.79924C44.8272 8.54152 45.6815 9.5957 46.1795 10.8267C51.1087 12.1823 55.4566 15.1185 58.5554 19.1844C61.6542 23.2504 63.3326 28.2211 63.3329 33.3333V48.99L69.4395 58.15C69.7745 58.652 69.9668 59.2355 69.9961 59.8383C70.0254 60.441 69.8905 61.0404 69.6058 61.5725C69.3211 62.1046 68.8973 62.5495 68.3796 62.8596C67.8618 63.1697 67.2697 63.3334 66.6662 63.3333H51.5495C51.1482 66.1103 49.7597 68.6498 47.6385 70.4865C45.5173 72.3231 42.8054 73.3341 39.9995 73.3341C37.1937 73.3341 34.4817 72.3231 32.3605 70.4865C30.2393 68.6498 28.8509 66.1103 28.4495 63.3333H13.3329C12.7294 63.3334 12.1372 63.1697 11.6195 62.8596C11.1018 62.5495 10.678 62.1046 10.3933 61.5725C10.1086 61.0404 9.97367 60.441 10.0029 59.8383C10.0322 59.2355 10.2246 58.652 10.5595 58.15L16.6662 48.99V33.3333C16.6662 22.5867 23.9329 13.5333 33.8195 10.8267ZM35.2862 63.3333C35.6305 64.3088 36.2688 65.1535 37.1133 65.751C37.9577 66.3485 38.9667 66.6694 40.0012 66.6694C41.0356 66.6694 42.0446 66.3485 42.8891 65.751C43.7336 65.1535 44.3719 64.3088 44.7162 63.3333H35.2862ZM39.9995 16.6667C35.5792 16.6667 31.34 18.4226 28.2144 21.5482C25.0888 24.6738 23.3329 28.913 23.3329 33.3333V50C23.333 50.6584 23.1381 51.3022 22.7729 51.85L19.5629 56.6667H60.4329L57.2229 51.85C56.8587 51.3018 56.6651 50.6581 56.6662 50V33.3333C56.6662 28.913 54.9102 24.6738 51.7846 21.5482C48.659 18.4226 44.4198 16.6667 39.9995 16.6667Z" />
</svg>
