<svg width="460" height="596" viewBox="0 0 460 596" fill="none" xmlns="http://www.w3.org/2000/svg">
<path d="M313.376 586.67L298.145 586.668L290.899 527.919L313.379 527.921L313.376 586.67Z" fill="#FFB6B6"/>
<path d="M261.192 586.324C260.718 587.123 260.468 589.701 260.468 590.629C260.468 593.484 262.782 595.799 265.637 595.799H312.806C314.754 595.799 316.333 594.22 316.333 592.272V590.308C316.333 590.308 318.666 584.406 313.862 577.131C313.862 577.131 307.891 582.828 298.969 573.906L296.338 569.14L277.294 583.068L266.737 584.367C264.428 584.652 262.38 584.323 261.192 586.324Z" fill="#2F2E41"/>
<path d="M454.023 556.612L441.049 564.591L404.095 518.349L423.242 506.572L454.023 556.612Z" fill="#FFB6B6"/>
<path d="M409.395 583.66C409.41 584.589 410.548 586.916 411.034 587.707C412.53 590.139 415.714 590.897 418.146 589.401L458.321 564.686C459.98 563.665 460.498 561.493 459.477 559.834L458.448 558.162C458.448 558.162 457.343 551.912 449.439 548.233C449.439 548.233 447.339 556.213 435.065 553.289L430.326 550.608L421.403 572.45L413.093 579.088C411.275 580.54 409.359 581.334 409.395 583.66Z" fill="#2F2E41"/>
<path d="M358.291 311.889C357.537 308.601 357.595 305.408 358.302 302.763L349.125 271.903L364.067 267.852L371.767 299.592C373.553 301.651 374.993 304.49 375.747 307.779C377.469 315.292 374.958 322.303 370.138 323.438C365.317 324.573 360.014 319.402 358.291 311.889Z" fill="#FFB6B6"/>
<path d="M273.273 106.188C273.273 106.188 297.354 95.7064 310.8 110.853C323.038 124.639 347.882 166.123 345.331 170.16L369.789 285.73L351.66 291.315L303.568 158.383L273.273 106.188Z" />
<path d="M246.753 277.459L259.16 422.207L289.144 556.616L321.195 553.515L305.687 406.698L315.179 276.222L246.753 277.459Z" fill="#2F2E41"/>
<path d="M249.318 308.866L326.596 431.888L414.769 537.672L441.847 520.246L360.866 396.805C348.471 342.431 334.746 292.097 309.592 276.451L249.318 308.866Z" fill="#2F2E41"/>
<path d="M253.828 309.468C250.204 309.468 246.693 308.191 243.832 305.765C239.992 302.508 237.991 297.76 238.342 292.738L245.084 228.061L242.509 157.435L242.525 157.358L250.528 118.979C250.607 117.759 250.863 116.468 251.276 115.228L263.097 79.6867C265.223 73.2939 271.177 68.9988 277.915 68.9988H288.367C293.601 68.9988 298.459 71.5982 301.361 75.9529L310.512 89.6792C311.12 90.591 311.633 91.5699 312.037 92.589L332.239 143.575C332.88 145.194 333.245 146.897 333.323 148.636L339.59 290.137C339.8 294.835 337.909 299.331 334.406 302.472C330.925 305.595 326.279 306.976 321.672 306.264C295.292 302.191 272.204 305.522 257.479 309.035C256.263 309.325 255.039 309.468 253.828 309.468Z" />
<path d="M279.804 65.8357C296.402 65.8357 309.858 52.3802 309.858 35.782C309.858 19.1839 296.402 5.72839 279.804 5.72839C263.206 5.72839 249.75 19.1839 249.75 35.782C249.75 52.3802 263.206 65.8357 279.804 65.8357Z" fill="#FFB6B6"/>
<path d="M303.604 58.5016C300.893 59.5138 296.737 61.0876 294.026 62.0998C291.497 57.0597 294.595 54.4443 294.917 48.8147C295.024 46.936 295.295 45.0553 295.139 43.1799C294.984 41.3046 294.339 39.3796 292.925 38.1387C290.761 36.2406 287.157 36.5492 285.062 38.5234C282.967 40.4976 282.37 43.7596 283.226 46.5079C274.985 42.9457 269.662 33.6005 270.8 24.6956C268.339 23.7309 265.816 22.7532 263.174 22.6794C260.532 22.6056 257.701 23.6139 256.293 25.8509C255.305 27.4196 255.108 29.4108 254 30.8966C252.2 33.3109 248.309 33.498 245.918 31.6667C243.528 29.8353 242.613 26.5072 243.123 23.539C243.633 20.5709 239.922 14.5136 241.999 12.3327C243.416 10.8449 250.448 12.953 252.029 11.6406C253.471 10.4432 254.918 9.24182 256.508 8.24846C258.526 6.98756 260.76 6.07443 263.083 5.56134C265.281 5.07601 267.539 4.94852 269.786 4.82259C272.068 4.69474 275.224 0.152359 277.505 0.0245033C284.221 -0.351909 290.224 3.70382 296.668 5.63473C303.112 7.56563 307.166 13.1105 310.733 18.8141C315.814 26.9384 314.087 35.8403 310.588 43.6087C309.723 45.5289 312.625 47.5468 312.195 49.6084C311.796 51.5248 310.001 52.9128 309.581 54.8248C309.222 56.4598 307.1 54.5656 306.594 56.1611C306.157 57.5379 304.87 58.51 303.494 58.9495C302.118 59.3889 300.644 59.38 299.2 59.3669" fill="#2F2E41"/>
<path d="M145.586 104.637C148.296 106.426 150.378 108.678 151.644 110.976L178.539 126.383L170.833 138.967L144.38 121.983C141.77 121.722 138.88 120.694 136.17 118.906C129.978 114.82 127.067 108.313 129.667 104.373C132.267 100.433 139.394 100.551 145.586 104.637Z" fill="#FFB6B6"/>
<path d="M297.153 68.8699L298.212 69.6411L300.883 71.5853C308.911 77.4305 308.165 89.6322 299.484 94.4551L288.627 77.1146" fill="#3F3D56"/>
<path d="M250.889 168.897L233.312 155.456C233.312 155.456 241.584 82.0481 263.296 82.0481C285.008 82.0481 296.381 69.6411 296.381 69.6411C296.381 69.6411 373.925 178.202 352.213 190.609C330.501 203.016 300.517 196.813 300.517 196.813L289.957 104.073C288.659 99.1704 281.912 98.6395 279.863 103.279L250.889 168.897Z" fill="#3F3D56"/>
<path d="M272.127 88.3954C289.278 77.877 306.513 101.965 291.263 115.089L291.212 115.133L230.279 172.442L157.358 136.433L164.568 116.99L221.064 139.37L263.445 95.3739C266.395 92.4201 269.297 90.1309 272.127 88.3954Z" />
<path d="M96.8268 263.865L2.12437 385.191C0.486089 387.297 -0.250601 389.966 0.0757271 392.614C0.402056 395.262 1.76479 397.673 3.86531 399.318C25.8577 452.717 91.6528 492.314 169.051 528.256C171.157 529.896 173.826 530.633 176.475 530.307C179.123 529.981 181.534 528.617 183.178 526.515L277.88 405.189C279.52 403.084 280.258 400.414 279.932 397.765C279.605 395.117 278.241 392.706 276.139 391.062C211.187 354.386 155.361 311.894 110.953 262.124C108.848 260.486 106.178 259.749 103.53 260.076C100.882 260.402 98.4717 261.765 96.8268 263.865Z" fill="#E6E6E6"/>
<path d="M271.233 402.429L242.407 439.359C224.798 461.783 199.031 476.327 170.734 479.814C142.437 483.301 113.91 475.448 91.3841 457.971L10.5994 394.914C9.40263 393.979 8.62543 392.608 8.43828 391.101C8.25112 389.595 8.66928 388.075 9.60106 386.876L101.112 269.639C102.049 268.444 103.421 267.669 104.929 267.485C106.436 267.301 107.954 267.722 109.152 268.656C150.017 321.425 204.718 362.489 270.244 394.398C271.438 395.333 272.214 396.703 272.399 398.209C272.585 399.714 272.165 401.232 271.233 402.429Z" fill="white"/>
<path d="M94.9374 330.098L76.164 354.149C75.6658 354.786 74.935 355.199 74.1323 355.298C73.3297 355.396 72.5207 355.172 71.8832 354.675C71.2457 354.177 70.8318 353.447 70.7326 352.644C70.6333 351.841 70.8567 351.032 71.3537 350.394L90.1271 326.343C90.3735 326.027 90.6798 325.762 91.0285 325.564C91.3772 325.367 91.7615 325.24 92.1594 325.19C92.5572 325.141 92.9609 325.171 93.3473 325.278C93.7337 325.385 94.0952 325.566 94.4112 325.813C94.7273 326.06 94.9916 326.366 95.1891 326.715C95.3866 327.064 95.5134 327.449 95.5622 327.846C95.6111 328.244 95.5811 328.648 95.4738 329.034C95.3666 329.421 95.1843 329.782 94.9374 330.098Z" fill="#E6E6E6"/>
<path d="M130.151 312.257L88.923 365.076C88.6764 365.391 88.3701 365.656 88.0215 365.853C87.6728 366.051 87.2887 366.177 86.891 366.226C86.4934 366.275 86.09 366.246 85.7038 366.139C85.3177 366.032 84.9564 365.85 84.6405 365.603C84.3247 365.357 84.0605 365.05 83.863 364.702C83.6656 364.353 83.5387 363.969 83.4897 363.571C83.4407 363.174 83.4705 362.77 83.5774 362.384C83.6843 361.998 83.8662 361.637 84.1127 361.321L125.341 308.503C125.587 308.186 125.893 307.921 126.242 307.723C126.591 307.525 126.975 307.398 127.373 307.348C127.771 307.299 128.175 307.328 128.562 307.435C128.948 307.542 129.31 307.724 129.626 307.971C129.942 308.218 130.207 308.524 130.404 308.874C130.602 309.223 130.729 309.607 130.777 310.005C130.826 310.404 130.796 310.807 130.688 311.194C130.581 311.58 130.398 311.942 130.151 312.257Z" fill="#E6E6E6"/>
<path d="M132.34 354.002L81.7038 418.873C81.1753 419.411 80.4674 419.736 79.7148 419.785C78.9623 419.835 78.2178 419.606 77.6232 419.142C77.0287 418.678 76.6258 418.011 76.4912 417.269C76.3566 416.527 76.4998 415.761 76.8936 415.118L127.53 350.247C128.058 349.709 128.766 349.384 129.519 349.334C130.271 349.285 131.016 349.514 131.61 349.978C132.205 350.442 132.608 351.108 132.742 351.851C132.877 352.593 132.734 353.358 132.34 354.002Z" fill="#E6E6E6"/>
<path d="M193.898 395.674L143.262 460.545C142.733 461.083 142.025 461.408 141.273 461.458C140.52 461.507 139.776 461.278 139.181 460.814C138.587 460.35 138.184 459.684 138.049 458.942C137.915 458.199 138.058 457.434 138.452 456.791L189.088 391.919C189.616 391.381 190.324 391.056 191.077 391.007C191.829 390.957 192.574 391.186 193.168 391.65C193.763 392.114 194.166 392.781 194.3 393.523C194.435 394.265 194.292 395.031 193.898 395.674Z" fill="#E6E6E6"/>
<path d="M215.898 405.674L165.262 470.545C164.733 471.083 164.025 471.408 163.273 471.458C162.52 471.507 161.776 471.278 161.181 470.814C160.587 470.35 160.184 469.684 160.049 468.942C159.915 468.199 160.058 467.434 160.452 466.791L211.088 401.919C211.616 401.381 212.324 401.056 213.077 401.007C213.829 400.957 214.574 401.186 215.168 401.65C215.763 402.114 216.166 402.781 216.3 403.523C216.435 404.265 216.292 405.031 215.898 405.674Z" fill="#E6E6E6"/>
<path d="M165.188 339.19L94.5129 429.735C93.9845 430.273 93.2765 430.598 92.5239 430.647C91.7713 430.697 91.0268 430.468 90.4323 430.004C89.8378 429.54 89.4348 428.873 89.3003 428.131C89.1657 427.389 89.3089 426.623 89.7026 425.98L160.378 335.436C160.907 334.897 161.615 334.573 162.367 334.523C163.12 334.473 163.864 334.702 164.459 335.167C165.053 335.631 165.456 336.297 165.591 337.039C165.725 337.781 165.582 338.547 165.188 339.19Z" fill="#E6E6E6"/>
<path d="M164.943 379.45L114.307 444.322C113.778 444.86 113.07 445.185 112.318 445.234C111.565 445.284 110.821 445.055 110.226 444.591C109.632 444.127 109.229 443.46 109.094 442.718C108.96 441.976 109.103 441.21 109.497 440.567L160.133 375.696C160.661 375.157 161.369 374.833 162.122 374.783C162.874 374.733 163.619 374.962 164.213 375.426C164.808 375.891 165.211 376.557 165.345 377.299C165.48 378.041 165.337 378.807 164.943 379.45Z" fill="#E6E6E6"/>
<path d="M197.792 364.639L127.116 455.184C126.588 455.722 125.88 456.047 125.127 456.096C124.375 456.146 123.63 455.917 123.036 455.453C122.441 454.989 122.038 454.322 121.904 453.58C121.769 452.838 121.912 452.072 122.306 451.429L192.982 360.885C193.51 360.346 194.218 360.022 194.971 359.972C195.723 359.922 196.468 360.151 197.062 360.615C197.657 361.08 198.06 361.746 198.194 362.488C198.329 363.23 198.186 363.996 197.792 364.639Z" fill="#E6E6E6"/>
<path d="M142.873 113.582C142.734 113.582 142.594 113.577 142.455 113.568C133.24 112.976 101.711 108.516 82.8816 75.959C81.4907 73.5559 81.7654 70.498 83.5658 68.3521C99.2907 55.5633 111.574 41.7222 118.825 26.3428C120.134 24.7826 122.099 23.9297 124.088 23.9648C126.129 24.0131 128.011 24.9744 129.25 26.6024C138.19 38.3496 155.839 59.1447 173.598 66.4356C175.594 67.2559 177.039 68.9202 177.562 71.0048C178.082 73.0717 177.601 75.2027 176.244 76.8507L147.998 111.149C146.728 112.692 144.836 113.582 142.873 113.582Z" fill="#E6E6E6"/>
<path d="M89.395 70.4178C88.914 70.9922 88.8262 71.8112 89.1767 72.4584C106.211 103.826 136.666 106.286 142.598 106.461C143.169 106.493 143.704 106.236 144.067 105.796L172.11 71.7448C172.507 71.2619 172.63 70.6461 172.447 70.0516C172.263 69.4545 171.81 69.0093 171.204 68.8337C152.158 63.2674 132.174 37.4854 126.503 29.7155C126.172 29.2614 125.659 28.9893 125.099 28.9704C124.522 28.9648 123.997 29.1912 123.63 29.6277C115.516 45.449 104.155 59.0798 89.395 70.4178Z" fill="white"/>
<path d="M103.517 77.7652L128.937 51.8466C130.675 50.0748 127.952 47.3481 126.212 49.1221L100.792 75.0407C99.0548 76.8124 101.777 79.5391 103.517 77.7652Z" fill="#E6E6E6"/>
<path d="M118.859 85.0674C125.875 78.7793 131.971 71.4985 136.964 63.5094C138.281 61.4005 134.949 59.4642 133.637 61.5647C128.81 69.2885 122.917 76.2644 116.135 82.3429C114.285 84.0014 117.017 86.7189 118.859 85.0674Z" fill="#E6E6E6"/>
<path d="M132.687 93.8109C139.075 86.7353 144.512 78.8384 148.792 70.3202C149.903 68.1104 146.58 66.1571 145.465 68.3755C141.33 76.6056 136.135 84.2486 129.963 91.0864C128.305 92.9229 131.021 95.6562 132.687 93.8109Z" fill="#E6E6E6"/>
<path d="M165.991 123.857C165.852 123.857 165.713 123.852 165.573 123.843C156.358 123.251 124.83 118.791 106 86.2335C104.609 83.8304 104.884 80.7726 106.684 78.6266C121.623 65.6692 132.871 51.5002 141.943 36.6173C143.252 35.0571 145.217 34.2042 147.206 34.2393C149.248 34.2876 151.129 35.249 152.368 36.877C161.308 48.6241 178.957 69.4193 196.716 76.7101C198.712 77.5304 200.157 79.1948 200.681 81.2793C201.2 83.3463 200.719 85.4772 199.362 87.1253L171.116 121.424C169.846 122.966 167.954 123.857 165.991 123.857Z" fill="#E6E6E6"/>
<path d="M112.513 80.6923C112.032 81.2668 111.944 82.0858 112.295 82.733C129.329 114.1 159.784 116.561 165.716 116.735C166.287 116.768 166.823 116.511 167.185 116.07L195.228 82.0193C195.625 81.5364 195.748 80.9206 195.565 80.3261C195.381 79.7291 194.928 79.2838 194.322 79.1082C175.276 73.542 155.292 47.76 149.621 39.99C149.29 39.536 148.777 39.2638 148.217 39.245C147.64 39.2393 147.116 39.4657 146.749 39.9022C137.028 56.0543 126.093 70.3722 112.513 80.6923Z" fill="white"/>
<path d="M126.635 88.0398L152.055 62.1212C153.792 60.3495 151.07 57.6228 149.33 59.3967L123.91 85.3153C122.172 87.0871 124.895 89.8138 126.635 88.0398Z" fill="#E6E6E6"/>
<path d="M141.977 95.3418C148.993 89.0537 155.09 81.7729 160.082 73.7838C161.399 71.6749 158.067 69.7386 156.755 71.8391C151.928 79.5629 146.035 86.5388 139.253 92.6173C137.403 94.2758 140.135 96.9933 141.977 95.3418Z" fill="#E6E6E6"/>
<path d="M155.805 104.086C162.192 97.0099 167.629 89.1131 171.91 80.5948C173.021 78.385 169.698 76.4318 168.583 78.6501C164.447 86.8803 159.253 94.5233 153.08 101.361C151.422 103.198 154.139 105.931 155.805 104.086Z" fill="#E6E6E6"/>
</svg>
