<svg width="77" height="77" viewBox="0 0 77 77" fill="none" xmlns="http://www.w3.org/2000/svg">
<path d="M38.4997 38.5002C34.9705 38.5002 31.9493 37.2436 29.4361 34.7304C26.9229 32.2172 25.6663 29.196 25.6663 25.6668C25.6663 22.1377 26.9229 19.1165 29.4361 16.6033C31.9493 14.0901 34.9705 12.8335 38.4997 12.8335C42.0288 12.8335 45.05 14.0901 47.5632 16.6033C50.0764 19.1165 51.333 22.1377 51.333 25.6668C51.333 29.196 50.0764 32.2172 47.5632 34.7304C45.05 37.2436 42.0288 38.5002 38.4997 38.5002ZM12.833 64.1668V55.1835C12.833 53.3654 13.3014 51.6939 14.2383 50.1689C15.1751 48.6438 16.4178 47.4814 17.9663 46.6814C21.2816 45.0238 24.6504 43.78 28.0726 42.9501C31.4948 42.1202 34.9705 41.7064 38.4997 41.7085C42.0288 41.7085 45.5045 42.1234 48.9268 42.9533C52.349 43.7832 55.7177 45.0259 59.033 46.6814C60.5837 47.4835 61.8275 48.6471 62.7643 50.1721C63.7011 51.6971 64.1685 53.3676 64.1663 55.1835V64.1668H12.833ZM19.2497 57.7502H57.7497V55.1835C57.7497 54.5953 57.6021 54.0606 57.3069 53.5793C57.0118 53.0981 56.6246 52.7238 56.1455 52.4564C53.258 51.0127 50.3438 49.9304 47.4028 49.2096C44.4618 48.4888 41.4941 48.1273 38.4997 48.1252C35.5052 48.1252 32.5375 48.4866 29.5966 49.2096C26.6556 49.9325 23.7413 51.0148 20.8538 52.4564C20.3726 52.7238 19.9844 53.0981 19.6892 53.5793C19.394 54.0606 19.2475 54.5953 19.2497 55.1835V57.7502ZM38.4997 32.0835C40.2643 32.0835 41.7754 31.4547 43.033 30.197C44.2907 28.9393 44.9185 27.4293 44.9163 25.6668C44.9163 23.9022 44.2875 22.3911 43.0298 21.1335C41.7722 19.8758 40.2621 19.248 38.4997 19.2502C36.7351 19.2502 35.224 19.879 33.9663 21.1367C32.7086 22.3943 32.0809 23.9044 32.083 25.6668C32.083 27.4314 32.7118 28.9425 33.9695 30.2002C35.2272 31.4579 36.7372 32.0856 38.4997 32.0835Z" />
</svg>
