<svg width="77" height="77" viewBox="0 0 77 77" fill="none" xmlns="http://www.w3.org/2000/svg">
<g clip-path="url(#clip0_1379_183)">
<path d="M67.3747 22.4585C68.1924 22.4594 68.979 22.7725 69.5736 23.3339C70.1682 23.8952 70.526 24.6625 70.574 25.4788C70.6219 26.2951 70.3563 27.099 69.8314 27.726C69.3066 28.3531 68.5621 28.7561 67.7501 28.8527L67.3747 28.8752V60.9585C68.1924 60.9594 68.979 61.2725 69.5736 61.8339C70.1682 62.3952 70.526 63.1625 70.574 63.9788C70.6219 64.7951 70.3563 65.599 69.8314 66.226C69.3066 66.8531 68.5621 67.2561 67.7501 67.3527L67.3747 67.3752H9.6247C8.80696 67.3743 8.02043 67.0611 7.42581 66.4998C6.83119 65.9384 6.47336 65.1712 6.42544 64.3549C6.37752 63.5385 6.64312 62.7347 7.16797 62.1076C7.69282 61.4805 8.43731 61.0775 9.24933 60.981L9.6247 60.9585V28.8752C8.80696 28.8743 8.02043 28.5611 7.42581 27.9998C6.83119 27.4384 6.47336 26.6712 6.42544 25.8549C6.37752 25.0385 6.64312 24.2347 7.16797 23.6076C7.69282 22.9805 8.43731 22.5775 9.24933 22.481L9.6247 22.4585H67.3747ZM60.958 28.8752H16.0414V60.9585H22.458V38.5002C22.458 37.6493 22.7961 36.8332 23.3977 36.2315C23.9994 35.6299 24.8155 35.2918 25.6664 35.2918C26.5173 35.2918 27.3333 35.6299 27.935 36.2315C28.5367 36.8332 28.8747 37.6493 28.8747 38.5002V60.9585H35.2914V38.5002C35.2914 37.6493 35.6294 36.8332 36.2311 36.2315C36.8327 35.6299 37.6488 35.2918 38.4997 35.2918C39.3506 35.2918 40.1667 35.6299 40.7683 36.2315C41.37 36.8332 41.708 37.6493 41.708 38.5002V60.9585H48.1247V38.5002C48.1247 37.6493 48.4627 36.8332 49.0644 36.2315C49.6661 35.6299 50.4821 35.2918 51.333 35.2918C52.1839 35.2918 53 35.6299 53.6017 36.2315C54.2033 36.8332 54.5414 37.6493 54.5414 38.5002V60.9585H60.958V28.8752ZM57.7497 12.8335C58.6006 12.8335 59.4167 13.1715 60.0183 13.7732C60.62 14.3749 60.958 15.1909 60.958 16.0418C60.958 16.8927 60.62 17.7088 60.0183 18.3105C59.4167 18.9121 58.6006 19.2502 57.7497 19.2502H19.2497C18.3988 19.2502 17.5827 18.9121 16.9811 18.3105C16.3794 17.7088 16.0414 16.8927 16.0414 16.0418C16.0414 15.1909 16.3794 14.3749 16.9811 13.7732C17.5827 13.1715 18.3988 12.8335 19.2497 12.8335H57.7497Z" />
</g>
<defs>
<clipPath id="clip0_1379_183">
<rect width="77" height="77" fill="white"/>
</clipPath>
</defs>
</svg>
