<svg width="80" height="80" viewBox="0 0 80 80" fill="none" xmlns="http://www.w3.org/2000/svg">
<path d="M16.6667 73.3333C14.8333 73.3333 13.2644 72.6811 11.96 71.3767C10.6556 70.0722 10.0022 68.5022 10 66.6667V51.5L19.1667 41.0833L23.9167 45.8333L17.25 53.3333H62.75L56.25 46L61 41.25L70 51.5V66.6667C70 68.5 69.3478 70.07 68.0433 71.3767C66.7389 72.6833 65.1689 73.3356 63.3333 73.3333H16.6667ZM35.3333 48L23.75 36.25C22.4722 34.9722 21.8333 33.3889 21.8333 31.5C21.8333 29.6111 22.4722 28.0278 23.75 26.75L40.0833 10.4167C41.3611 9.13889 42.9444 8.5 44.8333 8.5C46.7222 8.5 48.3056 9.13889 49.5833 10.4167L61.3333 22C62.6111 23.2778 63.2644 24.8467 63.2933 26.7067C63.3222 28.5667 62.6967 30.1367 61.4167 31.4167L44.75 48.0833C43.4722 49.3611 41.9033 49.9867 40.0433 49.96C38.1833 49.9333 36.6133 49.28 35.3333 48ZM56.6667 26.6667L44.8333 15L28.3333 31.5L40.1667 43.1667L56.6667 26.6667Z" />
</svg>
