<svg width="8" height="6" viewBox="0 0 8 6" fill="none" xmlns="http://www.w3.org/2000/svg">
<path d="M2.56502 4.3207L6.79821 0.19242C6.92975 0.0641397 7.09716 0 7.30045 0C7.50374 0 7.67115 0.0641397 7.80269 0.19242C7.93423 0.320699 8 0.483965 8 0.682215C8 0.880466 7.93423 1.04373 7.80269 1.17201L3.06726 5.79009C2.92377 5.93003 2.75635 6 2.56502 6C2.37369 6 2.20628 5.93003 2.06278 5.79009L0.197309 3.97085C0.0657695 3.84257 0 3.6793 0 3.48105C0 3.2828 0.0657695 3.11953 0.197309 2.99125C0.328849 2.86297 0.496263 2.79883 0.699551 2.79883C0.90284 2.79883 1.07025 2.86297 1.20179 2.99125L2.56502 4.3207Z" />
</svg>
