<svg width="15" height="16" viewBox="0 0 15 16" fill="none" xmlns="http://www.w3.org/2000/svg">
<path d="M13.8229 1.18608C13.7289 1.08565 13.6172 1.00597 13.4943 0.951607C13.3714 0.897244 13.2396 0.869261 13.1066 0.869261C12.9735 0.869261 12.8417 0.897244 12.7188 0.951607C12.5959 1.00597 12.4842 1.08565 12.3902 1.18608L7.42162 6.47274L2.45301 1.17524C2.35894 1.07494 2.24727 0.995385 2.12436 0.941105C2.00145 0.886824 1.86972 0.858887 1.73668 0.858887C1.60365 0.858887 1.47191 0.886824 1.349 0.941105C1.2261 0.995385 1.11442 1.07494 1.02035 1.17524C0.926277 1.27554 0.851657 1.39461 0.800746 1.52565C0.749836 1.6567 0.723633 1.79715 0.723633 1.93899C0.723633 2.08083 0.749836 2.22129 0.800746 2.35233C0.851657 2.48338 0.926277 2.60245 1.02035 2.70274L5.98896 8.00024L1.02035 13.2977C0.926277 13.398 0.851657 13.5171 0.800746 13.6482C0.749836 13.7792 0.723633 13.9197 0.723633 14.0615C0.723633 14.2033 0.749836 14.3438 0.800746 14.4748C0.851657 14.6059 0.926277 14.7249 1.02035 14.8252C1.11442 14.9255 1.2261 15.0051 1.349 15.0594C1.47191 15.1137 1.60365 15.1416 1.73668 15.1416C1.86972 15.1416 2.00145 15.1137 2.12436 15.0594C2.24727 15.0051 2.35894 14.9255 2.45301 14.8252L7.42162 9.52774L12.3902 14.8252C12.4843 14.9255 12.596 15.0051 12.7189 15.0594C12.8418 15.1137 12.9735 15.1416 13.1066 15.1416C13.2396 15.1416 13.3713 15.1137 13.4942 15.0594C13.6171 15.0051 13.7288 14.9255 13.8229 14.8252C13.917 14.7249 13.9916 14.6059 14.0425 14.4748C14.0934 14.3438 14.1196 14.2033 14.1196 14.0615C14.1196 13.9197 14.0934 13.7792 14.0425 13.6482C13.9916 13.5171 13.917 13.398 13.8229 13.2977L8.85429 8.00024L13.8229 2.70274C14.209 2.29108 14.209 1.59774 13.8229 1.18608Z" />
</svg>
