<svg width="6" height="29" viewBox="0 0 6 29" fill="none" xmlns="http://www.w3.org/2000/svg">
<path d="M2.96875 19C3.59864 19 4.20273 18.7498 4.64813 18.3044C5.09353 17.859 5.34375 17.2549 5.34375 16.625V2.375C5.34375 1.74511 5.09353 1.14102 4.64813 0.695622C4.20273 0.250223 3.59864 0 2.96875 0C2.33886 0 1.73477 0.250223 1.28937 0.695622C0.843973 1.14102 0.59375 1.74511 0.59375 2.375V16.625C0.59375 17.2549 0.843973 17.859 1.28937 18.3044C1.73477 18.7498 2.33886 19 2.96875 19ZM2.96875 28.5C3.55591 28.5 4.12989 28.3259 4.6181 27.9997C5.10631 27.6735 5.48682 27.2098 5.71152 26.6673C5.93621 26.1249 5.99501 25.528 5.88046 24.9521C5.76591 24.3762 5.48316 23.8472 5.06797 23.432C4.65279 23.0168 4.12381 22.7341 3.54792 22.6195C2.97204 22.505 2.37513 22.5638 1.83266 22.7885C1.29019 23.0132 0.826535 23.3937 0.500324 23.8819C0.174114 24.3701 0 24.9441 0 25.5312C0 26.3186 0.312778 27.0737 0.869527 27.6305C1.42628 28.1872 2.18139 28.5 2.96875 28.5Z"/>
</svg>
