<svg width="19" className="viewChats" height="19" viewBox="0 0 19 19" fill="none" xmlns="http://www.w3.org/2000/svg">
<path className="viewChats" d="M9.49992 17.4167C13.8723 17.4167 17.4166 13.8724 17.4166 9.50004C17.4166 5.12767 13.8723 1.58337 9.49992 1.58337C5.12754 1.58337 1.58325 5.12767 1.58325 9.50004C1.58325 10.7667 1.88092 11.9637 2.40896 13.0253C2.54988 13.3072 2.59659 13.6294 2.51504 13.9342L2.044 15.6964C1.99752 15.8708 1.9977 16.0543 2.04451 16.2285C2.09132 16.4028 2.18312 16.5617 2.31071 16.6893C2.43829 16.8168 2.59718 16.9086 2.77144 16.9555C2.9457 17.0023 3.1292 17.0024 3.30354 16.956L5.06579 16.4849C5.3717 16.4079 5.69519 16.4454 5.97542 16.5902C7.07023 17.1354 8.27688 17.4183 9.49992 17.4167Z" stroke-width="1.5"/>
</svg>
