<svg width="20" height="20" viewBox="0 0 20 20" fill="none" xmlns="http://www.w3.org/2000/svg">
<path d="M9.6 0C12.1461 0 14.5879 1.01143 16.3882 2.81178C18.1886 4.61212 19.2 7.05392 19.2 9.6C19.2 12.1461 18.1886 14.5879 16.3882 16.3882C14.5879 18.1886 12.1461 19.2 9.6 19.2C7.05392 19.2 4.61212 18.1886 2.81178 16.3882C1.01143 14.5879 0 12.1461 0 9.6C0 7.05392 1.01143 4.61212 2.81178 2.81178C4.61212 1.01143 7.05392 0 9.6 0ZM9.6 1.2C8.4969 1.2 7.40459 1.41727 6.38546 1.83941C5.36632 2.26155 4.44032 2.88029 3.6603 3.6603C2.88029 4.44032 2.26155 5.36632 1.83941 6.38546C1.41727 7.40459 1.2 8.4969 1.2 9.6C1.2 10.7031 1.41727 11.7954 1.83941 12.8145C2.26155 13.8337 2.88029 14.7597 3.6603 15.5397C4.44032 16.3197 5.36632 16.9385 6.38546 17.3606C7.40459 17.7827 8.4969 18 9.6 18C11.8278 18 13.9644 17.115 15.5397 15.5397C17.115 13.9644 18 11.8278 18 9.6C18 7.37218 17.115 5.23561 15.5397 3.6603C13.9644 2.085 11.8278 1.2 9.6 1.2ZM6.186 12.5124C7.05337 13.3857 8.22234 13.8935 9.45258 13.9314C10.6828 13.9694 11.8809 13.5346 12.8004 12.7164L13.014 12.5124C13.1194 12.4053 13.2612 12.3416 13.4113 12.334C13.5615 12.3264 13.7089 12.3754 13.8247 12.4714C13.9404 12.5673 14.0158 12.7032 14.0362 12.8521C14.0565 13.001 14.0202 13.1522 13.9344 13.2756L13.866 13.3596L13.8384 13.386C13.2782 13.9426 12.6138 14.3835 11.8833 14.6833C11.1527 14.9832 10.3702 15.1362 9.58048 15.1337C8.79076 15.1311 8.00928 14.973 7.28067 14.6684C6.55205 14.3638 5.89057 13.9187 5.334 13.3584C5.22181 13.2454 5.1591 13.0925 5.15967 12.9333C5.16023 12.7741 5.22402 12.6216 5.337 12.5094C5.44998 12.3972 5.6029 12.3345 5.76212 12.3351C5.92134 12.3356 6.07381 12.3994 6.186 12.5124ZM12.6 6.6C12.9183 6.6 13.2235 6.72643 13.4485 6.95147C13.6736 7.17652 13.8 7.48174 13.8 7.8C13.8 8.11826 13.6736 8.42348 13.4485 8.64853C13.2235 8.87357 12.9183 9 12.6 9C12.2817 9 11.9765 8.87357 11.7515 8.64853C11.5264 8.42348 11.4 8.11826 11.4 7.8C11.4 7.48174 11.5264 7.17652 11.7515 6.95147C11.9765 6.72643 12.2817 6.6 12.6 6.6ZM6.6 6.6C6.91826 6.6 7.22348 6.72643 7.44853 6.95147C7.67357 7.17652 7.8 7.48174 7.8 7.8C7.8 8.11826 7.67357 8.42348 7.44853 8.64853C7.22348 8.87357 6.91826 9 6.6 9C6.28174 9 5.97652 8.87357 5.75147 8.64853C5.52643 8.42348 5.4 8.11826 5.4 7.8C5.4 7.48174 5.52643 7.17652 5.75147 6.95147C5.97652 6.72643 6.28174 6.6 6.6 6.6Z" />
</svg>
