<svg width="12" height="12" viewBox="0 0 12 12" fill="none" xmlns="http://www.w3.org/2000/svg">
<path d="M11.3269 0.446089C11.2516 0.369339 11.1621 0.308449 11.0636 0.266903C10.9651 0.225358 10.8595 0.203973 10.7528 0.203973C10.6462 0.203973 10.5406 0.225358 10.4421 0.266903C10.3436 0.308449 10.2541 0.369339 10.1787 0.446089L6.19689 4.48625L2.21503 0.437809C2.13964 0.361161 2.05015 0.300359 1.95165 0.258877C1.85315 0.217395 1.74758 0.196045 1.64096 0.196045C1.53435 0.196045 1.42878 0.217395 1.33028 0.258877C1.23178 0.300359 1.14228 0.361161 1.06689 0.437809C0.991501 0.514458 0.9317 0.605454 0.8909 0.7056C0.850101 0.805746 0.829102 0.913083 0.829102 1.02148C0.829102 1.12988 0.850101 1.23722 0.8909 1.33736C0.9317 1.43751 0.991501 1.5285 1.06689 1.60515L5.04875 5.6536L1.06689 9.70204C0.991501 9.77869 0.9317 9.86968 0.8909 9.96983C0.850101 10.07 0.829102 10.1773 0.829102 10.2857C0.829102 10.3941 0.850101 10.5014 0.8909 10.6016C0.9317 10.7017 0.991501 10.7927 1.06689 10.8694C1.14228 10.946 1.23178 11.0068 1.33028 11.0483C1.42878 11.0898 1.53435 11.1111 1.64096 11.1111C1.74758 11.1111 1.85315 11.0898 1.95165 11.0483C2.05015 11.0068 2.13964 10.946 2.21503 10.8694L6.19689 6.82094L10.1787 10.8694C10.2541 10.946 10.3436 11.0068 10.4421 11.0483C10.5406 11.0898 10.6462 11.1111 10.7528 11.1111C10.8594 11.1111 10.965 11.0898 11.0635 11.0483C11.162 11.0068 11.2515 10.946 11.3269 10.8694C11.4023 10.7927 11.4621 10.7017 11.5029 10.6016C11.5437 10.5014 11.5647 10.3941 11.5647 10.2857C11.5647 10.1773 11.5437 10.07 11.5029 9.96983C11.4621 9.86968 11.4023 9.77869 11.3269 9.70204L7.34503 5.6536L11.3269 1.60515C11.6363 1.29055 11.6363 0.760692 11.3269 0.446089Z" />
</svg>
