<svg width="29" height="24" viewBox="0 0 29 24" fill="none" xmlns="http://www.w3.org/2000/svg">
<path d="M27.1875 21.5625H25.375V11.0897C25.375 10.8388 25.323 10.5907 25.2222 10.361C25.1214 10.1313 24.974 9.92502 24.7893 9.75522L15.7268 1.20475C15.7224 1.20089 15.7182 1.19672 15.7144 1.19229C15.3807 0.888849 14.9459 0.720703 14.4949 0.720703C14.0439 0.720703 13.6091 0.888849 13.2754 1.19229L13.263 1.20475L4.21066 9.75522C4.02601 9.92502 3.87862 10.1313 3.77781 10.361C3.677 10.5907 3.62496 10.8388 3.625 11.0897V21.5625H1.8125C1.57215 21.5625 1.34164 21.658 1.17168 21.828C1.00173 21.9979 0.90625 22.2284 0.90625 22.4688C0.90625 22.7091 1.00173 22.9396 1.17168 23.1096C1.34164 23.2795 1.57215 23.375 1.8125 23.375H27.1875C27.4279 23.375 27.6584 23.2795 27.8283 23.1096C27.9983 22.9396 28.0938 22.7091 28.0938 22.4688C28.0938 22.2284 27.9983 21.9979 27.8283 21.828C27.6584 21.658 27.4279 21.5625 27.1875 21.5625ZM5.4375 11.0897L5.44996 11.0783L14.5 2.53128L23.5512 11.0761L23.5636 11.0874V21.5625H18.125V16.125C18.125 15.6443 17.934 15.1833 17.5941 14.8434C17.2542 14.5035 16.7932 14.3125 16.3125 14.3125H12.6875C12.2068 14.3125 11.7458 14.5035 11.4059 14.8434C11.066 15.1833 10.875 15.6443 10.875 16.125V21.5625H5.4375V11.0897ZM16.3125 21.5625H12.6875V16.125H16.3125V21.5625Z" />
</svg>
