<svg width="13" height="13" viewBox="0 0 13 13" fill="none" xmlns="http://www.w3.org/2000/svg">
<path fill-rule="evenodd" clip-rule="evenodd" d="M11.0657 1.93434C10.6086 1.47744 9.98883 1.22076 9.34257 1.22076C8.69632 1.22076 8.07652 1.47744 7.61948 1.93434L1.93271 7.62111C1.48865 8.08066 1.24285 8.69624 1.24825 9.33527C1.25365 9.97429 1.50982 10.5856 1.96159 11.0376C2.41336 11.4896 3.02458 11.7461 3.6636 11.7518C4.30262 11.7575 4.91832 11.5119 5.37808 11.0681H5.37889L5.78265 10.6619C5.89719 10.5505 6.05092 10.4885 6.21071 10.4893C6.3705 10.4902 6.52357 10.5538 6.63694 10.6664C6.7503 10.779 6.81489 10.9316 6.81678 11.0914C6.81867 11.2512 6.75771 11.4053 6.64704 11.5206L6.24247 11.9276L6.24085 11.9292C5.55525 12.6148 4.62538 13 3.6558 13C2.68622 13 1.75636 12.6148 1.07076 11.9292C0.385164 11.2436 0 10.3138 0 9.3442C0 8.37462 0.385164 7.44475 1.07076 6.75916L6.75753 1.07239C7.44269 0.386358 8.37232 0.000610138 9.3419 7.23168e-07C10.3115 -0.000608692 11.2416 0.383971 11.9276 1.06914C12.6136 1.7543 12.9994 2.68393 13 3.65351C13.0006 4.62309 12.616 5.5532 11.9309 6.23922L9.12404 9.12566C8.92806 9.33234 8.69267 9.49767 8.43176 9.61188C8.17085 9.7261 7.8897 9.7869 7.6049 9.79068C7.32011 9.79446 7.03745 9.74116 6.77359 9.63392C6.50974 9.52667 6.27004 9.36766 6.06864 9.16626C5.86724 8.96487 5.70823 8.72517 5.60099 8.46131C5.49374 8.19745 5.44044 7.91479 5.44422 7.63C5.44801 7.3452 5.5088 7.06405 5.62302 6.80314C5.73724 6.54223 5.90256 6.30684 6.10924 6.11086L8.912 3.30729C8.96818 3.24907 9.03539 3.20262 9.10971 3.17065C9.18403 3.13868 9.26398 3.12184 9.34488 3.1211C9.42578 3.12036 9.50602 3.13573 9.58091 3.16633C9.65581 3.19694 9.72386 3.24215 9.78109 3.29933C9.83833 3.35651 9.8836 3.42452 9.91427 3.49938C9.94495 3.57425 9.9604 3.65447 9.95973 3.73537C9.95907 3.81627 9.9423 3.89623 9.9104 3.97059C9.87851 4.04494 9.83212 4.11219 9.77395 4.16843L6.97119 6.972C6.88611 7.05666 6.81853 7.15724 6.77232 7.26801C6.72611 7.37878 6.70218 7.49757 6.70187 7.61759C6.70157 7.73761 6.72491 7.85652 6.77057 7.96752C6.81622 8.07852 6.88328 8.17944 6.96794 8.26452C7.05259 8.34961 7.15318 8.41718 7.26395 8.46339C7.37472 8.5096 7.49351 8.53354 7.61353 8.53384C7.73355 8.53414 7.85245 8.5108 7.96346 8.46515C8.07446 8.4195 8.17538 8.35243 8.26046 8.26777L11.0665 5.38133C11.5234 4.92429 11.78 4.3045 11.78 3.65824C11.78 3.01199 11.5234 2.39219 11.0665 1.93515L11.0657 1.93434Z" />
</svg>
