<svg width="10" height="12" viewBox="0 0 10 12" fill="none" xmlns="http://www.w3.org/2000/svg">
<path d="M6.87075 0.33562L9.20408 2.66662C9.30461 2.76699 9.36505 2.90059 9.37407 3.04236C9.38309 3.18413 9.34007 3.32432 9.25308 3.43662L9.20467 3.49145L6.87133 5.82829C6.7666 5.93402 6.62542 5.99572 6.47668 6.00077C6.32794 6.00581 6.1829 5.95382 6.07124 5.85543C5.95959 5.75704 5.88976 5.61969 5.87605 5.47151C5.86234 5.32332 5.90579 5.17549 5.9975 5.05829L6.04592 5.00345L7.38175 3.66645H1.20833C1.06546 3.66643 0.927553 3.61398 0.820783 3.51904C0.714013 3.42409 0.6458 3.29327 0.629083 3.15137L0.625 3.08254C0.625019 2.93966 0.677474 2.80176 0.772417 2.69499C0.86736 2.58822 0.998187 2.52 1.14008 2.50329L1.20833 2.4992H7.38583L6.0465 1.16162C5.94598 1.06125 5.88554 0.927645 5.87651 0.785878C5.86749 0.644111 5.91051 0.503924 5.9975 0.39162L6.04592 0.336203C6.14629 0.235681 6.27989 0.175239 6.42166 0.166217C6.56343 0.157196 6.70361 0.200215 6.81592 0.287203L6.87075 0.33562ZM9.36975 8.84762L9.37325 8.91587C9.37323 9.05875 9.32078 9.19665 9.22583 9.30342C9.13089 9.41019 9.00006 9.4784 8.85817 9.49512L8.78992 9.4992H2.6165L3.95408 10.8368C4.05461 10.9372 4.11505 11.0708 4.12407 11.2125C4.13309 11.3543 4.09007 11.4945 4.00308 11.6068L3.95467 11.6616C3.85429 11.7621 3.72069 11.8226 3.57892 11.8316C3.43716 11.8406 3.29697 11.7976 3.18467 11.7106L3.12983 11.6616L0.7965 9.33062C0.695978 9.23025 0.635535 9.09664 0.626514 8.95488C0.617492 8.81311 0.660512 8.67292 0.7475 8.56062L0.795917 8.50579L3.12925 6.17012C3.23398 6.06439 3.37517 6.00268 3.5239 5.99764C3.67264 5.99259 3.81768 6.04458 3.92934 6.14297C4.041 6.24136 4.11083 6.37871 4.12454 6.5269C4.13824 6.67509 4.0948 6.82292 4.00308 6.94012L3.95467 6.99495L2.61883 8.33254H8.7905C8.93338 8.33255 9.07128 8.38501 9.17805 8.47995C9.28482 8.5749 9.35303 8.70572 9.36975 8.84762Z" />
</svg>
