<svg width="24" height="24" viewBox="0 0 24 24" fill="none" xmlns="http://www.w3.org/2000/svg">
<path d="M3.99994 9.99997L3.29294 10.707L2.58594 9.99997L3.29294 9.29297L3.99994 9.99997ZM20.9999 18C20.9999 18.2652 20.8946 18.5195 20.707 18.7071C20.5195 18.8946 20.2652 19 19.9999 19C19.7347 19 19.4804 18.8946 19.2928 18.7071C19.1053 18.5195 18.9999 18.2652 18.9999 18H20.9999ZM8.29294 15.707L3.29294 10.707L4.70694 9.29297L9.70694 14.293L8.29294 15.707ZM3.29294 9.29297L8.29294 4.29297L9.70694 5.70697L4.70694 10.707L3.29294 9.29297ZM3.99994 8.99997H13.9999V11H3.99994V8.99997ZM20.9999 16V18H18.9999V16H20.9999ZM13.9999 8.99997C15.8565 8.99997 17.6369 9.73747 18.9497 11.0502C20.2624 12.363 20.9999 14.1435 20.9999 16H18.9999C18.9999 14.6739 18.4732 13.4021 17.5355 12.4644C16.5978 11.5268 15.326 11 13.9999 11V8.99997Z" />
</svg>
