<svg width="17" height="12" viewBox="0 0 17 12" fill="none" xmlns="http://www.w3.org/2000/svg">
<path d="M4.25 12C3.07803 12 2.07658 11.6038 1.24564 10.8113C0.414697 10.0189 -0.000514673 9.05031 4.78765e-07 7.90566C4.78765e-07 6.92453 0.302652 6.05031 0.907955 5.28302C1.51326 4.51572 2.3053 4.02516 3.28409 3.81132C3.50303 2.90566 4.05038 2.04402 4.92614 1.22642C5.80189 0.408805 6.73561 0 7.72727 0C8.15227 0 8.51623 0.147925 8.81914 0.443774C9.12205 0.739623 9.27324 1.09484 9.27273 1.50943V6.07547L9.96818 5.41509C10.1098 5.27673 10.2871 5.20755 10.4998 5.20755C10.7126 5.20755 10.896 5.28302 11.05 5.43396C11.1917 5.57233 11.2625 5.74843 11.2625 5.96226C11.2625 6.1761 11.1917 6.3522 11.05 6.49057L9.04091 8.45283C8.96364 8.5283 8.87992 8.58189 8.78977 8.61358C8.69962 8.64528 8.60303 8.66088 8.5 8.66038C8.39697 8.66038 8.30038 8.64478 8.21023 8.61358C8.12008 8.58239 8.03636 8.5288 7.95909 8.45283L5.95 6.49057C5.80833 6.3522 5.73441 6.17937 5.72823 5.97207C5.72205 5.76478 5.79597 5.58541 5.95 5.43396C6.09167 5.2956 6.26888 5.22314 6.48164 5.2166C6.69439 5.21006 6.87779 5.27623 7.03182 5.41509L7.72727 6.07547V1.50943C6.74849 1.68553 5.98864 2.14792 5.44773 2.8966C4.90682 3.64528 4.63636 4.4156 4.63636 5.20755H4.25C3.50303 5.20755 2.86553 5.46541 2.3375 5.98113C1.80947 6.49685 1.54545 7.1195 1.54545 7.84906C1.54545 8.57862 1.80947 9.20126 2.3375 9.71698C2.86553 10.2327 3.50303 10.4906 4.25 10.4906H13.5227C14.0636 10.4906 14.5208 10.3082 14.8943 9.94339C15.2678 9.57862 15.4545 9.13207 15.4545 8.60377C15.4545 8.07547 15.2678 7.62893 14.8943 7.26415C14.5208 6.89937 14.0636 6.71698 13.5227 6.71698H12.3636V5.20755C12.3636 4.60377 12.222 4.04075 11.9386 3.51849C11.6553 2.99623 11.2818 2.55296 10.8182 2.18868V0.433962C11.7712 0.874214 12.5246 1.52528 13.0784 2.38717C13.6322 3.24906 13.9091 4.18918 13.9091 5.20755C14.7977 5.30818 15.5352 5.68252 16.1214 6.33057C16.7077 6.97862 17.0005 7.73635 17 8.60377C17 9.54717 16.6618 10.3492 15.9854 11.0098C15.309 11.6704 14.4881 12.0005 13.5227 12H4.25Z" />
</svg>
