<svg width="26" height="23" viewBox="0 0 26 23" fill="none" xmlns="http://www.w3.org/2000/svg">
<path d="M17.8713 0C18.2553 0 18.6355 0.0743641 18.9903 0.218846C19.3451 0.363329 19.6674 0.5751 19.9389 0.842068C20.2104 1.10904 20.4258 1.42597 20.5727 1.77479C20.7197 2.1236 20.7953 2.49745 20.7953 2.875V3.83717H21.77C22.8902 3.83784 23.9643 4.2755 24.7566 5.05408C25.549 5.83266 25.9947 6.88853 25.9961 7.98994L26 15.6528C26.0002 16.0302 25.9247 16.4039 25.778 16.7526C25.6313 17.1013 25.4162 17.4182 25.1449 17.6852C24.8736 17.9521 24.5515 18.164 24.197 18.3085C23.8425 18.4531 23.4624 18.5276 23.0786 18.5278H20.7927V20.125C20.7927 20.8875 20.4847 21.6188 19.9363 22.1579C19.388 22.6971 18.6442 23 17.8687 23H8.12216C7.34667 23 6.60295 22.6971 6.05459 22.1579C5.50624 21.6188 5.19818 20.8875 5.19818 20.125V18.5278H2.92398C2.14849 18.5278 1.40476 18.2249 0.856413 17.6857C0.308061 17.1465 0 16.4153 0 15.6528V7.99122C0 6.88984 0.444977 5.83356 1.23704 5.05477C2.0291 4.27597 3.10337 3.83844 4.22352 3.83844L5.19688 3.83717L5.19818 2.875C5.19818 2.1125 5.50624 1.38124 6.05459 0.842068C6.60295 0.302901 7.34667 0 8.12216 0H17.8713ZM17.8687 13.4167H8.12216C7.86366 13.4167 7.61575 13.5176 7.43297 13.6974C7.25019 13.8771 7.1475 14.1208 7.1475 14.375V20.125C7.1475 20.654 7.58415 21.0833 8.12216 21.0833H17.8687C18.1272 21.0833 18.3752 20.9824 18.5579 20.8026C18.7407 20.6229 18.8434 20.3792 18.8434 20.125V14.375C18.8434 14.1208 18.7407 13.8771 18.5579 13.6974C18.3752 13.5176 18.1272 13.4167 17.8687 13.4167ZM21.77 5.75511H4.22352C3.62037 5.75511 3.04191 5.9907 2.61542 6.41005C2.18892 6.82941 1.94932 7.39817 1.94932 7.99122V15.6528C1.94932 16.1818 2.38596 16.6111 2.92398 16.6111H5.19818V14.375C5.19818 13.6125 5.50624 12.8812 6.05459 12.3421C6.60295 11.8029 7.34667 11.5 8.12216 11.5H17.8687C18.6442 11.5 19.388 11.8029 19.9363 12.3421C20.4847 12.8812 20.7927 13.6125 20.7927 14.375V16.6111H23.1098C23.3623 16.6028 23.6016 16.4983 23.7772 16.3197C23.9527 16.1412 24.0508 15.9024 24.0507 15.6541L24.0468 7.99122C24.0454 7.39814 23.805 6.82978 23.3782 6.41064C22.9515 5.99151 22.3732 5.75579 21.77 5.75511ZM17.8713 1.91667H8.12216C7.86366 1.91667 7.61575 2.01763 7.43297 2.19736C7.25019 2.37708 7.1475 2.62083 7.1475 2.875L7.1462 3.83717H18.846V2.875C18.846 2.62083 18.7433 2.37708 18.5605 2.19736C18.3777 2.01763 18.1298 1.91667 17.8713 1.91667Z" />
</svg>
