<svg width="17" height="15" viewBox="0 0 17 15" fill="none" xmlns="http://www.w3.org/2000/svg">
<path d="M3.5625 1.78125C3.5625 1.30883 3.75017 0.855765 4.08422 0.521716C4.41826 0.187667 4.87133 0 5.34375 0H11.2812C11.7537 0 12.2067 0.187667 12.5408 0.521716C12.8748 0.855765 13.0625 1.30883 13.0625 1.78125V2.375H14.25C14.8799 2.375 15.484 2.62522 15.9294 3.07062C16.3748 3.51602 16.625 4.12011 16.625 4.75V10.0938C16.625 10.5662 16.4373 11.0192 16.1033 11.3533C15.7692 11.6873 15.3162 11.875 14.8438 11.875H13.0625V12.4688C13.0625 12.9412 12.8748 13.3942 12.5408 13.7283C12.2067 14.0623 11.7537 14.25 11.2812 14.25H5.34375C4.87133 14.25 4.41826 14.0623 4.08422 13.7283C3.75017 13.3942 3.5625 12.9412 3.5625 12.4688V11.875H1.78125C1.30883 11.875 0.855765 11.6873 0.521716 11.3533C0.187667 11.0192 0 10.5662 0 10.0938V4.75C0 4.12011 0.250223 3.51602 0.695621 3.07062C1.14102 2.62522 1.74511 2.375 2.375 2.375H3.5625V1.78125ZM3.5625 10.6875V10.0938C3.5625 9.62133 3.75017 9.16826 4.08422 8.83422C4.41826 8.50017 4.87133 8.3125 5.34375 8.3125H11.2812C11.7537 8.3125 12.2067 8.50017 12.5408 8.83422C12.8748 9.16826 13.0625 9.62133 13.0625 10.0938V10.6875H14.8438C15.0012 10.6875 15.1522 10.6249 15.2636 10.5136C15.3749 10.4022 15.4375 10.2512 15.4375 10.0938V4.75C15.4375 4.43506 15.3124 4.13301 15.0897 3.91031C14.867 3.68761 14.5649 3.5625 14.25 3.5625H2.375C2.06006 3.5625 1.75801 3.68761 1.53531 3.91031C1.31261 4.13301 1.1875 4.43506 1.1875 4.75V10.0938C1.1875 10.2512 1.25006 10.4022 1.36141 10.5136C1.47276 10.6249 1.62378 10.6875 1.78125 10.6875H3.5625ZM4.75 2.375H11.875V1.78125C11.875 1.62378 11.8124 1.47276 11.7011 1.36141C11.5897 1.25006 11.4387 1.1875 11.2812 1.1875H5.34375C5.18628 1.1875 5.03526 1.25006 4.92391 1.36141C4.81256 1.47276 4.75 1.62378 4.75 1.78125V2.375ZM4.75 10.0938V12.4688C4.75 12.6262 4.81256 12.7772 4.92391 12.8886C5.03526 12.9999 5.18628 13.0625 5.34375 13.0625H11.2812C11.4387 13.0625 11.5897 12.9999 11.7011 12.8886C11.8124 12.7772 11.875 12.6262 11.875 12.4688V10.0938C11.875 9.93628 11.8124 9.78525 11.7011 9.6739C11.5897 9.56256 11.4387 9.5 11.2812 9.5H5.34375C5.18628 9.5 5.03526 9.56256 4.92391 9.6739C4.81256 9.78525 4.75 9.93628 4.75 10.0938Z" />
</svg>
