<svg width="8" height="8" viewBox="0 0 8 8" fill="none" xmlns="http://www.w3.org/2000/svg">
<path d="M6.97476 1.08309C7.03448 1.02546 7.08212 0.956521 7.11491 0.880284C7.1477 0.804047 7.16498 0.722043 7.16574 0.639057C7.1665 0.556071 7.15073 0.473764 7.11934 0.396939C7.08795 0.320114 7.04158 0.25031 6.98292 0.1916C6.92427 0.132889 6.85451 0.0864485 6.77771 0.0549868C6.70092 0.023525 6.61862 0.00767276 6.53564 0.0083545C6.45265 0.00903624 6.37063 0.0262385 6.29436 0.0589576C6.21809 0.0916768 6.14911 0.139258 6.09142 0.198924L3.58642 2.70309L1.08226 0.198924C1.02504 0.137518 0.956038 0.0882662 0.879372 0.0541062C0.802706 0.0199463 0.719945 0.00157792 0.636026 9.72665e-05C0.552107 -0.00138339 0.468749 0.014054 0.390926 0.0454882C0.313102 0.0769224 0.242407 0.12371 0.183058 0.183058C0.12371 0.242407 0.0769224 0.313102 0.0454882 0.390925C0.014054 0.468749 -0.00138339 0.552107 9.72665e-05 0.636026C0.00157792 0.719945 0.0199463 0.802706 0.0541062 0.879372C0.0882662 0.956038 0.137518 1.02504 0.198924 1.08226L2.70142 3.58726L0.197257 6.09142C0.0868571 6.2099 0.0267543 6.36661 0.0296111 6.52853C0.0324679 6.69044 0.0980615 6.84493 0.212572 6.95944C0.327083 7.07395 0.48157 7.13955 0.643488 7.1424C0.805406 7.14526 0.962111 7.08516 1.08059 6.97476L3.58642 4.47059L6.09059 6.97559C6.20907 7.08599 6.36578 7.14609 6.52769 7.14324C6.68961 7.14038 6.8441 7.07479 6.95861 6.96028C7.07312 6.84576 7.13871 6.69128 7.14157 6.52936C7.14443 6.36744 7.08432 6.21074 6.97392 6.09226L4.47142 3.58726L6.97476 1.08309Z" />
</svg>
