<svg width="60" height="60" viewBox="0 0 60 60" fill="none" xmlns="http://www.w3.org/2000/svg">
<path d="M23.7498 37.5C22.1902 37.5 20.6944 36.9074 19.5916 35.8525C18.4887 34.7976 17.8691 33.3668 17.8691 31.875C17.8691 30.3832 18.4887 28.9524 19.5916 27.8975C20.6944 26.8426 22.1902 26.25 23.7498 26.25C24.1182 24.609 25.1958 23.1669 26.7456 22.2409C27.5129 21.7824 28.3731 21.4644 29.277 21.3051C30.181 21.1458 31.1109 21.1483 32.0137 21.3125C32.9165 21.4767 33.7746 21.7992 34.5389 22.2618C35.3033 22.7245 35.9588 23.318 36.4683 24.0087C36.9777 24.6993 37.331 25.4735 37.508 26.287C37.685 27.1005 37.6822 27.9374 37.4998 28.75H38.7498C39.9101 28.75 41.0229 29.2109 41.8434 30.0314C42.6639 30.8519 43.1248 31.9647 43.1248 33.125C43.1248 34.2853 42.6639 35.3981 41.8434 36.2186C41.0229 37.0391 39.9101 37.5 38.7498 37.5H37.4998" stroke="none" stroke-width="2" stroke-linecap="round" stroke-linejoin="round"/>
<path d="M26.25 33.75L30 30M30 30L33.75 33.75M30 30V41.25" stroke="none" stroke-width="1.5" stroke-linecap="round" stroke-linejoin="round"/>
</svg>
