<svg width="19" height="16" viewBox="0 0 19 16" fill="none" xmlns="http://www.w3.org/2000/svg">
<path d="M4.8333 12C3.79353 12 2.79634 11.6049 2.06112 10.9017C1.32589 10.1984 0.912842 9.24456 0.912842 8.25C0.912842 7.25544 1.32589 6.30161 2.06112 5.59835C2.79634 4.89509 3.79353 4.5 4.8333 4.5C5.07887 3.40598 5.79727 2.44457 6.83045 1.82726C7.34203 1.5216 7.9155 1.30962 8.51811 1.20343C9.12072 1.09723 9.74066 1.0989 10.3426 1.20833C10.9444 1.31777 11.5165 1.53283 12.026 1.84123C12.5356 2.14964 12.9726 2.54535 13.3123 3.00577C13.6519 3.4662 13.8874 3.98232 14.0054 4.52466C14.1234 5.06701 14.1216 5.62496 14 6.16667H14.8333C15.6068 6.16667 16.3487 6.47396 16.8957 7.02094C17.4427 7.56792 17.75 8.30979 17.75 9.08333C17.75 9.85688 17.4427 10.5987 16.8957 11.1457C16.3487 11.6927 15.6068 12 14.8333 12H14" stroke-width="1.66667" stroke-linecap="round" stroke-linejoin="round"/>
<path d="M6.5 9.5L9 7M9 7L11.5 9.5M9 7V14.5" stroke-width="1.66667" stroke-linecap="round" stroke-linejoin="round"/>
</svg>
