<svg width="4" height="19" viewBox="0 0 4 19" fill="none" xmlns="http://www.w3.org/2000/svg">
<path d="M2 12.6667C2.42435 12.6667 2.83131 12.4999 3.13137 12.2029C3.43143 11.906 3.6 11.5033 3.6 11.0833V1.58333C3.6 1.16341 3.43143 0.76068 3.13137 0.463748C2.83131 0.166815 2.42435 0 2 0C1.57565 0 1.16869 0.166815 0.868629 0.463748C0.568571 0.76068 0.4 1.16341 0.4 1.58333V11.0833C0.4 11.5033 0.568571 11.906 0.868629 12.2029C1.16869 12.4999 1.57565 12.6667 2 12.6667ZM2 19C2.39556 19 2.78224 18.8839 3.11114 18.6665C3.44004 18.449 3.69638 18.1399 3.84776 17.7782C3.99913 17.4166 4.03874 17.0186 3.96157 16.6347C3.8844 16.2508 3.69392 15.8981 3.41421 15.6214C3.13451 15.3446 2.77814 15.1561 2.39018 15.0797C2.00222 15.0033 1.60008 15.0425 1.23463 15.1923C0.869181 15.3421 0.556823 15.5958 0.337061 15.9213C0.117298 16.2467 0 16.6294 0 17.0208C0 17.5457 0.210714 18.0492 0.585786 18.4203C0.960859 18.7915 1.46957 19 2 19Z" />
</svg>
