<svg width="16" height="29" viewBox="0 0 16 29" fill="none" xmlns="http://www.w3.org/2000/svg">
<path d="M1.55007 6.99583C0.383399 6.5 -0.112434 5.05625 0.587566 4.00625C2.00215 1.90625 4.36465 0.375 7.48548 0.375C10.9126 0.375 13.2605 1.93542 14.4563 3.88958C15.4771 5.56667 16.0751 8.70208 14.5001 11.0354C12.7501 13.6167 11.073 14.4042 10.1688 16.0667C9.95007 16.4604 9.81882 16.7812 9.73132 17.4375C9.60007 18.5021 8.72507 19.3333 7.6459 19.3333C6.37715 19.3333 5.34173 18.2396 5.48757 16.9708C5.57507 16.2271 5.75007 15.4542 6.1584 14.725C7.28132 12.6979 9.43965 11.5021 10.6938 9.70833C12.0209 7.82708 11.2771 4.3125 7.51465 4.3125C5.8084 4.3125 4.70007 5.20208 4.01465 6.26667C3.50423 7.09792 2.43965 7.36042 1.55007 6.99583ZM10.4167 25.1667C10.4167 26.7708 9.10423 28.0833 7.50007 28.0833C5.8959 28.0833 4.5834 26.7708 4.5834 25.1667C4.5834 23.5625 5.8959 22.25 7.50007 22.25C9.10423 22.25 10.4167 23.5625 10.4167 25.1667Z" />
</svg>
