<svg width="56" height="56" viewBox="0 0 56 56" fill="none" xmlns="http://www.w3.org/2000/svg">
<path d="M28 0.875C35.194 0.875 42.0933 3.7328 47.1803 8.81973C52.2672 13.9067 55.125 20.806 55.125 28C55.125 35.194 52.2672 42.0933 47.1803 47.1803C42.0933 52.2672 35.194 55.125 28 55.125C20.806 55.125 13.9067 52.2672 8.81973 47.1803C3.7328 42.0933 0.875 35.194 0.875 28C0.875 20.806 3.7328 13.9067 8.81973 8.81973C13.9067 3.7328 20.806 0.875 28 0.875ZM28 51.25C34.1663 51.25 40.08 48.8005 44.4402 44.4402C48.8005 40.08 51.25 34.1663 51.25 28C51.25 21.8337 48.8005 15.92 44.4402 11.5598C40.08 7.19955 34.1663 4.75 28 4.75C21.8337 4.75 15.92 7.19955 11.5598 11.5598C7.19955 15.92 4.75 21.8337 4.75 28C4.75 34.1663 7.19955 40.08 11.5598 44.4402C15.92 48.8005 21.8337 51.25 28 51.25ZM30.9062 40.5938C30.9062 41.3645 30.6001 42.1037 30.055 42.6488C29.51 43.1938 28.7708 43.5 28 43.5C27.2292 43.5 26.49 43.1938 25.945 42.6488C25.3999 42.1037 25.0938 41.3645 25.0938 40.5938C25.0938 39.823 25.3999 39.0838 25.945 38.5387C26.49 37.9937 27.2292 37.6875 28 37.6875C28.7708 37.6875 29.51 37.9937 30.055 38.5387C30.6001 39.0838 30.9062 39.823 30.9062 40.5938ZM28 12.5C28.5139 12.5 29.0067 12.7041 29.37 13.0675C29.7334 13.4308 29.9375 13.9236 29.9375 14.4375V31.875C29.9375 32.3889 29.7334 32.8817 29.37 33.245C29.0067 33.6084 28.5139 33.8125 28 33.8125C27.4861 33.8125 26.9933 33.6084 26.63 33.245C26.2666 32.8817 26.0625 32.3889 26.0625 31.875V14.4375C26.0625 13.9236 26.2666 13.4308 26.63 13.0675C26.9933 12.7041 27.4861 12.5 28 12.5Z" />
</svg>
