<svg width="54" height="52" viewBox="0 0 54 52" fill="none" xmlns="http://www.w3.org/2000/svg">
<path d="M27 48.75C20.7343 48.75 14.7251 46.3531 10.2946 42.0867C5.86406 37.8202 3.375 32.0337 3.375 26C3.375 19.9663 5.86406 14.1798 10.2946 9.91332C14.7251 5.64687 20.7343 3.25 27 3.25C33.2657 3.25 39.2748 5.64687 43.7054 9.91332C48.1359 14.1798 50.625 19.9663 50.625 26C50.625 32.0337 48.1359 37.8202 43.7054 42.0867C39.2748 46.3531 33.2657 48.75 27 48.75ZM27 52C34.1608 52 41.0284 49.2607 46.0919 44.3848C51.1554 39.5088 54 32.8956 54 26C54 19.1044 51.1554 12.4912 46.0919 7.61522C41.0284 2.73928 34.1608 0 27 0C19.8392 0 12.9716 2.73928 7.90812 7.61522C2.84464 12.4912 0 19.1044 0 26C0 32.8956 2.84464 39.5088 7.90812 44.3848C12.9716 49.2607 19.8392 52 27 52Z" />
<path d="M17.7356 18.8045C17.731 18.9095 17.7487 19.0142 17.7877 19.1123C17.8266 19.2104 17.886 19.2998 17.9622 19.375C18.0384 19.4502 18.1298 19.5096 18.2307 19.5495C18.3316 19.5895 18.4399 19.6091 18.549 19.6072H21.3333C21.7991 19.6072 22.1703 19.24 22.2311 18.7947C22.5348 16.6627 24.0536 15.1093 26.7603 15.1093C29.0756 15.1093 31.1951 16.224 31.1951 18.9052C31.1951 20.969 29.9328 21.918 27.9382 23.361C25.6668 24.9502 23.868 26.806 23.9962 29.8187L24.0063 30.524C24.0099 30.7372 24.1003 30.9406 24.2582 31.0901C24.416 31.2397 24.6286 31.3235 24.8501 31.3235H27.5872C27.811 31.3235 28.0256 31.2379 28.1838 31.0855C28.3421 30.9331 28.431 30.7265 28.431 30.511V30.1697C28.431 27.8362 29.3523 27.157 31.8397 25.3402C33.8951 23.8355 36.0382 22.165 36.0382 18.6582C36.0382 13.7475 31.7317 11.375 27.0168 11.375C22.7407 11.375 18.0562 13.2925 17.7356 18.8045ZM22.9905 37.5342C22.9905 39.2665 24.4248 40.547 26.3992 40.547C28.4546 40.547 29.8687 39.2665 29.8687 37.5342C29.8687 35.7402 28.4512 34.4792 26.3958 34.4792C24.4248 34.4792 22.9905 35.7402 22.9905 37.5342Z" />
</svg>
