<svg width="18" height="20" viewBox="0 0 18 20" fill="none" xmlns="http://www.w3.org/2000/svg">
<path d="M2.58333 19.6772C2.07917 19.6772 1.64742 19.493 1.28808 19.1246C0.928751 18.7561 0.74939 18.3138 0.750002 17.7975V4.63924C0.750002 4.12231 0.929668 3.67963 1.289 3.3112C1.64833 2.94277 2.07978 2.75887 2.58333 2.75949H3.5V0.879745H5.33334V2.75949H12.6667V0.879745H14.5V2.75949H15.4167C15.9208 2.75949 16.3526 2.94371 16.7119 3.31214C17.0713 3.68057 17.2506 4.12294 17.25 4.63924V17.7975C17.25 18.3144 17.0703 18.7571 16.711 19.1255C16.3517 19.4939 15.9202 19.6778 15.4167 19.6772H2.58333ZM2.58333 17.7975H15.4167V8.39873H2.58333V17.7975ZM2.58333 6.51899H15.4167V4.63924H2.58333V6.51899ZM9 12.1582C8.74028 12.1582 8.52242 12.068 8.34642 11.8875C8.17042 11.7071 8.08272 11.484 8.08334 11.2184C8.08334 10.9521 8.17134 10.7287 8.34734 10.5482C8.52334 10.3678 8.74089 10.2779 9 10.2785C9.25972 10.2785 9.47759 10.3687 9.65359 10.5492C9.82959 10.7296 9.91728 10.9527 9.91667 11.2184C9.91667 11.4847 9.82867 11.708 9.65267 11.8885C9.47667 12.0689 9.25911 12.1589 9 12.1582ZM5.33334 12.1582C5.07361 12.1582 4.85575 12.068 4.67975 11.8875C4.50375 11.7071 4.41606 11.484 4.41667 11.2184C4.41667 10.9521 4.50467 10.7287 4.68067 10.5482C4.85667 10.3678 5.07422 10.2779 5.33334 10.2785C5.59306 10.2785 5.81092 10.3687 5.98692 10.5492C6.16292 10.7296 6.25061 10.9527 6.25 11.2184C6.25 11.4847 6.162 11.708 5.986 11.8885C5.81 12.0689 5.59245 12.1589 5.33334 12.1582ZM12.6667 12.1582C12.4069 12.1582 12.1891 12.068 12.0131 11.8875C11.8371 11.7071 11.7494 11.484 11.75 11.2184C11.75 10.9521 11.838 10.7287 12.014 10.5482C12.19 10.3678 12.4076 10.2779 12.6667 10.2785C12.9264 10.2785 13.1443 10.3687 13.3203 10.5492C13.4963 10.7296 13.5839 10.9527 13.5833 11.2184C13.5833 11.4847 13.4953 11.708 13.3193 11.8885C13.1433 12.0689 12.9258 12.1589 12.6667 12.1582ZM9 15.9177C8.74028 15.9177 8.52242 15.8275 8.34642 15.647C8.17042 15.4666 8.08272 15.2435 8.08334 14.9778C8.08334 14.7116 8.17134 14.4882 8.34734 14.3077C8.52334 14.1273 8.74089 14.0373 9 14.038C9.25972 14.038 9.47759 14.1282 9.65359 14.3087C9.82959 14.4891 9.91728 14.7122 9.91667 14.9778C9.91667 15.2441 9.82867 15.4675 9.65267 15.648C9.47667 15.8284 9.25911 15.9183 9 15.9177ZM5.33334 15.9177C5.07361 15.9177 4.85575 15.8275 4.67975 15.647C4.50375 15.4666 4.41606 15.2435 4.41667 14.9778C4.41667 14.7116 4.50467 14.4882 4.68067 14.3077C4.85667 14.1273 5.07422 14.0373 5.33334 14.038C5.59306 14.038 5.81092 14.1282 5.98692 14.3087C6.16292 14.4891 6.25061 14.7122 6.25 14.9778C6.25 15.2441 6.162 15.4675 5.986 15.648C5.81 15.8284 5.59245 15.9183 5.33334 15.9177ZM12.6667 15.9177C12.4069 15.9177 12.1891 15.8275 12.0131 15.647C11.8371 15.4666 11.7494 15.2435 11.75 14.9778C11.75 14.7116 11.838 14.4882 12.014 14.3077C12.19 14.1273 12.4076 14.0373 12.6667 14.038C12.9264 14.038 13.1443 14.1282 13.3203 14.3087C13.4963 14.4891 13.5839 14.7122 13.5833 14.9778C13.5833 15.2441 13.4953 15.4675 13.3193 15.648C13.1433 15.8284 12.9258 15.9183 12.6667 15.9177Z" />
</svg>
